<svg width="713" height="482" viewBox="0 0 713 482" fill="none" xmlns="http://www.w3.org/2000/svg">
<path d="M161.24 0.499441C182.634 -1.42343 204.958 2.81693 226.859 2.94671C255.382 3.11639 286.67 2.58787 315.21 3.26604C325.569 3.51235 334.682 26.8637 336.257 35.0951C336.959 38.7629 337.339 46.9448 339.557 50.3989C344.916 54.1373 393.792 53.2723 403.005 54.5805C407.116 55.1662 420.505 57.6411 424.167 57.767C438.832 58.2925 453.075 58.1166 467.756 60.1528C491.146 60.722 514.64 59.4959 538.09 59.7914C558.256 60.0432 579.391 53.6724 599.737 54.8383C608.052 55.2104 618.956 53.2019 624.479 61.8334C632.164 75.003 634.458 106.613 631.759 121.047C639.077 121.578 648.712 121.994 655.57 122.689C704.781 127.686 727.898 148.427 700.014 196.819C698.432 199.556 696.176 201.948 694.556 204.772C682.07 226.486 676.011 250.991 661.598 271.687C636.829 308.628 617.413 349.259 597.893 389.14C594.023 396.902 588.285 418.058 575.931 414.461C573.829 413.854 572.078 412.403 571.087 410.455C569.423 407.187 569.729 403.372 570.556 399.885C572.269 392.638 576.588 385.779 579.166 379.271C584.93 364.695 592.747 351.98 599.551 338.247C609.503 318.175 620.495 299.433 631.634 280.012C634.524 274.971 639.133 269.711 642.319 264.757C646.26 258.627 649.801 252.069 653.496 245.802C660.514 233.908 665.534 221.548 671.429 209.134C672.94 205.943 679.793 195.861 680.302 194.257L678.441 193.753C679.815 190.809 689.104 182.703 690.954 176.912C692.41 172.352 694.342 168.815 692.262 163.517C688.561 154.086 674.412 159.067 672.184 158.218C672.014 156.511 672.015 156.127 671.528 154.436C668.971 154.606 661.351 157.885 659.512 157.972C649.298 158.47 635 160.441 625.18 160.08C596.278 164.929 562.432 163.884 533.153 163.681C521.904 162.811 510.375 160.72 499.088 160.567C446.982 159.844 394.893 162.882 342.978 157.6C314.973 154.754 283.796 157.929 257.064 166.801C247.571 169.954 237.853 191.241 230.753 198.63C223.052 208.22 213.675 218.773 206.662 228.697L139.112 324.869C134.369 331.743 130.05 338.991 125.42 345.97C117.376 358.094 109.023 370.005 100.367 381.702C88.1184 398.314 74.3647 414.834 61.3439 430.915C49.8046 445.174 45.0005 447.473 36.1926 464.917C26.3959 471.437 23.7657 471.305 15.7678 462.859C3.99662 461.02 2.88332 450.527 2.29706 440.631C1.7951 432.153 2.0908 423.504 1.89374 415.014L0.123231 349.21C-0.290594 332.642 0.450263 315.849 0.695497 299.269C0.789648 292.887 1.76884 286.52 2.03925 280.138L4.38104 210.092C5.03462 190.781 4.16118 170.326 4.97186 150.889C5.21273 145.115 6.01923 139.241 6.50311 133.182C7.01708 126.734 6.63027 119.816 7.70038 113.302C10.3284 97.2974 14.0511 76.8367 24.3791 63.9955C26.7745 61.0179 32.2485 61.5102 35.7824 59.7641C39.3267 58.018 44.0122 54.6735 47.4016 53.2504C58.4232 48.6143 75.0511 49.414 87.2228 49.2826C92.8341 35.8751 91.373 22.6124 101.818 11.2563C115.405 -3.51645 141.886 1.56949 161.24 0.499441ZM150.407 22.892C142.335 22.9046 125.522 21.6879 118.491 23.2358C105.729 35.0068 113.983 52.988 101.398 65.3256C86.9154 79.5186 59.0099 62.9777 45.2238 80.5805C39.8769 87.4116 32.8608 106.602 32.6867 115.267C32.2718 135.952 32.1349 156.598 31.4387 177.223C29.2289 229.737 27.4881 282.262 26.216 334.803C25.6812 360.064 25.91 385.397 24.7512 410.658C24.3352 419.727 24.7806 431.063 23.4133 440.001C26.8169 434.002 29.6557 427.494 33.5148 421.95C35.5105 419.082 43.8488 411.26 44.924 408.758C45.9843 405.282 47.3642 406.256 51.2912 403.678L51.7082 403.399C56.4289 399.14 73.4853 377.016 75.8928 371.296C78.5448 364.996 77.6528 345.275 78.2707 337.021C79.1903 335.138 79.4909 334.519 80.0021 332.489L80.1096 332.045L80.0373 333.008C83.5411 323.834 83.6692 291.278 83.4016 280.161C83.3501 278.02 82.4079 272.398 82.0822 269.842C81.9765 265.923 81.4283 258.392 86.6174 257.27C92.9592 260.5 91.6689 305.295 91.2277 312.57C90.3311 327.349 87.4908 343.211 86.09 358.05C91.5553 350.973 107.32 329.095 109.781 321.59C118.192 295.952 119.791 266.482 126.437 240.126C128.01 233.881 125.314 216.825 135.571 220.733C140.05 224.701 134.851 243.673 134.395 249.672C133.402 262.732 133.703 275.535 133.398 288.568L133.877 287.818C138.817 280.193 149.678 267.483 153.579 261.128C157.208 255.222 161.442 229.667 163.067 221.461L171.258 180.967C172.212 176.266 175.261 156.649 177.687 154.765C180.322 155.121 180.93 155.532 183.414 156.654C183.659 167.71 180.45 177.103 178.249 187.897L165.788 246.87C175.025 233.109 184.175 220.618 192.133 206.02C199.272 192.927 205.068 179.429 212.318 166.374C214.094 163.402 217.022 160.945 218.848 158.033C221.44 153.906 222.333 148.771 225.049 144.671C228.624 139.274 234.223 139.029 240.067 139.067C244.271 133.325 245.715 130.779 251.626 126.586C252.374 123.368 253.25 121.649 256.167 119.936C266.506 113.871 334.189 116.401 348.618 118.103C359.297 119.362 369.804 123.215 380.47 123.527C387.077 123.718 393.744 122.723 400.334 122.274C410.34 121.601 420.747 121.157 430.77 121.239C437.683 121.293 444.613 122.06 451.543 122.197C470.061 122.569 488.453 122.476 506.977 123.297C516.802 123.735 526.59 125.092 536.421 125.158C561.234 125.322 585.987 120.276 610.822 120.079C610.773 114.873 610.614 79.0259 606.438 77.559C588.336 72.0252 566.571 81.1551 548.868 81.5766C517.662 82.321 486.455 81.5114 455.315 80.1157C439.413 79.3986 424.513 80.225 408.54 77.5649C398.884 75.9611 387.591 76.7708 377.743 75.1616C362.193 74.4446 343.391 76.3716 328.337 70.4985C323.526 68.6154 320.139 60.6125 318.71 55.7465C314.912 42.807 316.688 36.4946 308.921 24.7543C287.673 23.5956 267.125 24.876 245.888 24.1869C233.784 23.7945 221.082 25.0681 208.919 24.6713C196.767 24.153 185.921 22.6102 173.573 23.5834C166.554 24.1368 157.62 22.5165 150.407 22.892Z" fill="black"/>
<path d="M44.9238 408.758C46.0498 394.619 47.6701 382.676 51.9578 369.096C53.1451 365.335 52.4981 360.524 55.2832 357.426C56.9555 357.037 56.2406 356.857 57.545 357.667C61.2415 365.166 50.5275 391.631 51.7082 403.399L51.2905 403.678C47.3636 406.256 45.9841 405.282 44.9238 408.758Z" fill="#1C1C1C"/>
<path d="M78.2695 337.021C79.7836 317.37 78.9603 288.552 82.081 269.843C82.4067 272.399 83.3488 278.02 83.4002 280.161C83.6679 291.278 83.5398 323.835 80.036 333.009L80.1088 332.045L80.0009 332.488C79.4897 334.519 79.1891 335.138 78.2695 337.021Z" fill="#1C1C1C"/>
<path d="M167.175 47.3451C174.333 46.4638 176.412 46.7868 180.661 52.6108C182.069 51.6255 185.56 49.1131 187.111 48.6095C197.578 45.2487 208.615 49.2499 219.109 50.2242C225.705 50.8318 231.841 51.4284 238.388 50.3337C238.916 50.2461 240.655 50.487 240.839 51.1438C246.283 70.6299 212.595 61.8722 203.608 59.7976C199.389 59.617 194.738 59.7429 190.482 59.7703C186.444 62.934 181.243 69.0974 175.16 67.2692C172.137 66.3605 172.415 59.3324 170.062 58.9711C164.002 58.0406 162.699 64.598 159.324 66.5521C154.746 69.1959 145.212 65.5121 140.191 63.881C138.07 60.9197 135.142 56.2343 136.461 52.66C141.337 47.9582 151.119 52.2659 157.299 51.1384C160.138 50.6238 164.435 48.5602 167.175 47.3451Z" fill="black"/>
<path d="M19.3169 313.653C19.4894 314.321 19.6963 315.049 19.7034 316.04C19.8266 333.008 18.9995 350.453 17.8417 367.393C17.4821 367.793 17.1225 368.193 16.7628 368.592C14.6713 364.575 17.7251 319.603 19.3169 313.653Z" fill="white"/>
<path d="M17.383 371.942C18.1198 375.03 18.3294 381.105 16.112 383.563C14.7194 379.874 14.9526 375.144 17.383 371.942Z" fill="white"/>
<path d="M125.187 290.643C126.563 295.41 126.414 298.574 123.237 302.269C121.843 301.163 124.689 292.383 125.187 290.643Z" fill="white"/>
<path d="M556.077 467.277C555.836 467.496 555.557 467.676 555.289 467.857C549.87 471.464 489.208 470.632 478.468 471.07C464.772 471.628 451.109 471.354 437.414 471.655L365.619 473.484L220.136 477.682C209.797 477.961 199.16 478.782 188.682 479.122L94.057 481.382C82.4501 481.596 70.2904 482.433 58.8012 481.338C50.083 480.501 50.0058 464.655 56.6708 463.396C66.4554 461.546 78.458 461.819 88.6652 461.409C122.059 459.794 155.475 458.667 188.902 458.032C197.464 457.835 206.11 457.993 214.647 457.763L395.538 452.219C416.881 451.43 437.54 451.233 458.981 450.166C481.063 448.918 503.161 448.075 525.27 447.637C532.402 447.446 551.747 445.787 557.467 448.486C559.657 449.914 560.308 450.265 562.109 452.093C564.414 460.402 564.956 463.735 556.077 467.277Z" fill="black"/>
<path d="M557.467 448.486C559.657 449.914 560.308 450.265 562.109 452.093C564.414 460.402 564.956 463.735 556.077 467.277C559.591 462.723 559.75 453.642 557.467 448.486Z" fill="#1C1C1C"/>
</svg>
