<svg width="703" height="811" viewBox="0 0 703 811" fill="none" xmlns="http://www.w3.org/2000/svg">
<path d="M496.683 637.201C499.103 637.043 500.924 636.651 502.833 638.187C504.01 641.039 501.21 643.28 499.079 644.888C498.996 642.833 498.326 638.449 496.683 637.201Z" fill="#2B2B2C"/>
<path d="M150.766 347.388C155.324 347.148 160.553 348.465 164.765 348.369C177.534 348.078 187.4 348.9 199.424 353.629C202.626 354.888 209.223 355.292 213.011 356.339C220.398 358.38 228.106 360.199 235.66 361.608C241.529 362.25 247.343 361.901 253.232 362.646C263.762 363.978 273.605 365.718 283.902 368.275C299.509 372.301 315.047 373.765 330.864 376.425C343.261 378.51 357.053 381.774 369.168 385.3C373.527 386.569 376.803 389.396 380.045 392.305C386.66 398.237 391.462 404.743 391.334 413.962C391.412 427.145 391.722 439.86 382.084 450.192C375.871 456.849 367.929 456.789 359.403 456.983L264.952 446.881C254.066 445.741 244.205 445.103 233.349 444.327C227.177 443.888 217.113 441.254 210.555 440.466C205.176 439.627 199.676 435.524 194.701 434.118C185.657 431.556 176.884 428.887 167.925 426.1C155.61 422.274 142.841 420.69 131.814 413.222C126.287 409.476 120.452 403.207 119.095 396.313C117.851 386.842 120.347 373.069 126.221 365.303C131.804 357.923 141.525 349.033 150.766 347.388Z" fill="black"/>
<path d="M173.148 102.54C179.297 102.691 184.74 104.717 190.754 105.623C195.06 106.202 200.865 105.959 205.352 106.38C211.868 106.993 219.263 107.747 225.717 108.879C241.608 111.667 257.65 115.928 273.485 118.806C281.467 120.257 291.995 119.989 300.374 121.529C304.36 122.385 310.497 122.659 314.246 124.032C324.815 127.902 334.706 128.24 345.784 129.337C352.223 129.975 358.877 131.931 365.295 132.875C372.609 133.952 380.122 134.502 387.369 136.222C399.173 138.654 409.867 142.587 421.19 146.43C433.749 150.693 447.33 153.483 457.988 162.03C460.238 163.836 462.792 165.211 464.72 167.457C469.073 171.973 468.594 176.9 470.851 182.598C472.301 186.26 474.748 190.812 475.838 194.474C483.489 220.15 481.715 248.908 481.038 275.406C480.808 283.953 479.141 293.521 479.668 302.009C480.365 313.212 481.252 324.129 481.394 335.411C481.545 347.804 481.287 360.349 481.834 372.723C482.194 380.927 484.004 389.65 484.677 397.881C485.153 404.229 486.017 413.836 485.922 420.073C485.629 438.942 485.929 457.672 485.466 476.541C485.224 486.31 485.684 496.313 485.506 506.079C485.624 513.282 483.934 521.024 483.846 528.112C483.743 536.36 483.066 544.736 482.908 552.906C482.575 569.993 482.959 587.123 482.539 604.21C482.424 608.883 481.442 613.829 481.101 618.522C481.299 627.056 478.999 636.156 478.785 644.322L478.772 644.879C485.121 642.872 490.282 639.316 496.682 637.202C499.102 637.043 500.924 636.651 502.833 638.187C504.009 641.038 501.21 643.279 499.079 644.887C494.199 648.447 489.311 651.536 483.739 653.94C480.127 655.5 477.866 657.219 477.434 661.409C476.789 667.475 476.836 673.613 477.007 679.715C487.039 675.284 519.713 658.795 528.889 661.971C529.879 662.316 530.791 662.91 531.215 663.904C531.844 665.388 531.377 667.118 530.723 668.508C530.387 669.225 529.983 669.906 529.567 670.58C524.102 673.949 510.612 677.561 504.025 680.103C494.393 683.821 486.028 687.465 476.772 692.165C476.895 698.882 477.454 708.884 475.806 715.062C497.162 705.835 519.618 698.145 541.334 689.892C546.027 688.11 558.268 684.594 561.299 683.109C566.344 675.597 579.011 672.944 587.407 674.354C593.15 674.869 601.843 682.713 597.11 688.661C591.961 695.135 582.559 695.203 575.014 697.27C528.517 710.013 483.949 728.506 440.122 748.381C437.528 749.557 434.458 750.373 431.832 751.565C419.269 758.134 407.945 765.706 392.986 762.423C385.946 760.883 383.788 757.592 378.335 753.114C377.734 753.434 377.125 753.743 376.51 754.036C365.128 759.544 348.2 752.036 336.482 749.696C326.502 747.7 315.942 748.599 306.403 746.643C293.299 743.8 279.861 743.114 267.919 736.457C256.516 730.102 248.004 729.963 235.655 729.705C230.384 729.622 225.13 729.06 219.961 728.031C211.457 726.348 201.962 723.766 193.691 721.136C187.432 719.132 180.992 716.041 174.606 714.524C160.43 711.154 146.684 706.968 132.896 702.295C127.331 700.406 119.741 700.034 114.284 697.844C98.0294 691.203 87.6729 676.603 79.9958 661.492C73.7192 649.137 74.5386 636.706 74.6091 623.405C74.6657 613.845 74.661 604.282 74.5944 594.723L74.5437 552.613C74.485 539.41 73.9751 525.36 74.6979 512.189C75.4402 498.666 76.7376 484.83 77.6774 471.275L81.5603 409.278C81.9226 404.015 81.3535 398.011 81.7722 392.839C82.152 388.148 82.893 383.129 83.3679 378.395L87.402 339.057C88.4579 328.539 88.7498 316.792 89.6579 306.093C90.5276 295.848 91.456 285.777 92.4196 275.553C92.7479 268.151 92.5342 260.676 92.695 253.272C93.0004 239.217 94.1043 225.276 94.7272 211.252C95.0247 204.549 95.3205 196.477 96.696 189.88C99.7662 175.158 103.641 160.164 111.346 147.116C112.738 144.763 116.715 142.86 118.25 140.43C120.236 137.133 120.803 132.097 122.351 128.58C123.576 125.798 126.454 122.582 127.466 119.801L126.824 118.757C126.807 115.495 133.747 115.712 136.065 114.669C147.963 109.318 159.635 102.209 173.148 102.54ZM164.793 152.419C161.979 152.085 152.148 150.24 149.897 150.528C145.258 151.596 140.595 152.562 135.914 153.427C131.197 158.006 122.879 167.107 116.184 166.452C113.197 176.651 110.498 185.623 109.07 196.231C107.824 205.485 108.274 214.357 107.977 223.629L106.351 275.616C106.076 287.085 104.662 298.666 103.736 310.101C103.257 316.017 103.575 322.024 103.157 327.909C101.462 351.774 97.9723 375.368 97.1979 399.306C97.0102 405.115 96.9859 411.174 96.5935 416.948L91.7624 497.168C91.5703 500.76 90.4741 504.329 90.3933 508.119C90.1885 517.781 90.237 527.462 90.2224 537.121L90.0261 577.789C89.9785 592.489 89.5948 607.078 89.8503 621.753C89.9382 626.818 89.5876 632.421 89.944 637.387C90.4977 645.054 92.6508 652.522 96.2644 659.309C100.488 667.055 111.712 682.368 120.699 683.928C134.133 686.261 146.059 690.561 159.014 694.628C166.94 697.111 175.536 698.98 183.512 701.423C189.356 703.229 195.748 705.854 201.608 707.91C208.842 710.44 216.205 712.587 223.666 714.341C235.25 717.109 246.425 714.963 258.822 718.309C268.681 720.974 277 726.775 286.121 729.289C294.985 731.737 305.936 732.58 315.039 735.269C319.419 736.196 324.705 735.82 329.173 736.691C338.654 738.105 348.369 740.797 357.495 743.771C363.1 745.395 367.67 746.388 373.254 743.624C381.333 739.624 389.313 723.828 391.425 715.259C396.567 694.394 395.095 668.758 395.769 647.33C396.365 628.465 397.549 609.544 397.573 590.833C396.737 590.259 394.079 588.457 394.041 587.519C393.798 581.595 396.52 575.318 397.775 569.873C398.464 566.892 399.07 561.471 399.133 558.818C399.498 542.293 400.068 525.767 400.844 509.254C401.169 503.077 402.369 496.036 402.33 490.009C402.258 478.913 403.145 467.98 403.513 456.975L407.003 364.326C407.399 352.816 407.193 340.234 407.716 329.169L410.956 257.1C411.348 247.668 412.441 236.409 411.578 227.141C410.789 218.652 398.151 204.61 390.503 201.38C376.947 195.655 362.136 191.464 347.554 189.466C311.329 184.453 276.083 174.748 240.128 168.22C227.84 165.977 215.766 161.224 203.7 158.354C191.094 155.355 177.606 154.134 164.793 152.419ZM153.484 365.583C168.413 364.379 181.534 366.069 195.408 371.124C198.858 372.381 205.113 373.082 209.068 374.112C217.454 376.296 226.232 377.962 234.683 379.963C245.298 381.602 256.386 381.964 266.977 383.642C280.944 385.854 293.868 390.27 308.108 391.392C316.596 392.061 325.531 393.872 334.111 394.627C339.355 395.089 345.637 397.532 351.021 398.217C363.173 400.882 376.439 400.618 376.002 417.103C375.769 425.906 377.485 435.116 369.916 441.555C365.983 441.547 361.894 441.052 357.976 440.632C347.819 439.512 337.357 436.293 326.954 435.461C320.754 434.962 313.905 433.093 307.602 432.44C298.733 431.521 289.836 430.412 280.996 429.228C265.484 426.504 250.104 425.117 234.499 423.403C226.893 422.563 218.589 420.988 211.423 418.402C208.461 417.333 205.191 416.204 202.138 415.301C191.25 412.905 181.111 408.929 170.612 405.539C162.079 402.783 151.468 402.866 143.035 399.204C139.034 397.469 137.173 395.314 134.667 391.929C134.278 385.745 134.561 380.476 138.396 375.411C142.948 369.399 146.127 366.846 153.484 365.583Z" fill="black"/>
<path d="M251.472 219.55C258.306 219.144 265.191 219.434 270.516 224.093C279.149 231.648 284.618 242.698 285.645 254.034C286.768 266.441 283.891 275.387 276.181 284.836C278.786 284.02 282.689 282.99 284.815 285.403C292.02 293.582 300.12 301.282 305.458 310.879C308.118 314.909 307.623 322.652 301.366 322.058C296.364 321.582 289.271 310.269 286.419 306.479C283.148 302.689 273.762 295.073 273.716 289.589C273.708 288.6 273.992 289.061 273.496 288.058C266.622 294.508 263.078 296.106 253.657 297.237C245.446 297.939 233.504 296.434 227.166 290.844C208.342 274.24 208.997 250.957 225.62 232.848C232.624 225.218 240.729 220.171 251.472 219.55ZM253.571 233.016C238.97 234.003 223.809 250.916 224.302 266C224.462 270.894 230.396 279.977 234.165 283.278C237.28 285.878 242.442 287.035 246.396 287.514C253.233 287.546 261.077 286.382 265.922 281.164C271.357 275.145 276.568 267.351 276.198 258.896C275.885 251.754 275.674 244.563 270.089 239.353C264.595 234.226 260.918 233.077 253.571 233.016Z" fill="black"/>
<path d="M231.706 604.053C232.704 603.982 233.703 603.922 234.703 603.879C248.609 603.32 252.169 609.395 258.431 619.802C263.028 627.444 269.117 633.345 268.898 643.451C268.757 650 265.323 659.259 260.819 664.122C252.92 672.049 241.921 671.574 231.535 671.661C199.401 672.81 181.457 646.044 202.632 619.227C210.778 608.912 218.552 605.217 231.706 604.053Z" fill="black"/>
<path d="M169.562 134.415C179.689 134.458 192.758 133.241 201.684 138.462C200.074 138.361 192 136.801 189.823 136.487C185.401 135.85 173.05 135.569 169.562 134.415Z" fill="#2B2B2C"/>
</svg>
