<svg width="264" height="236" viewBox="0 0 264 236" fill="none" xmlns="http://www.w3.org/2000/svg">
<path d="M255.046 233.799C259.993 233.317 263.613 228.916 263.131 223.969C262.649 219.022 258.248 215.402 253.301 215.884L254.173 224.842L255.046 233.799ZM54.0389 1.20943C49.7355 -1.27795 44.2305 0.194248 41.7431 4.49767L1.20898 74.626C-1.27839 78.9294 0.193804 84.4345 4.49723 86.9218C8.80065 89.4092 14.3057 87.937 16.7931 83.6336L52.8234 21.2973L115.16 57.3276C119.463 59.815 124.968 58.3428 127.456 54.0394C129.943 49.736 128.471 44.2309 124.167 41.7436L54.0389 1.20943ZM254.173 224.842L253.301 215.884C217.657 219.355 190.132 215.389 168.339 206.153C146.616 196.948 129.957 182.241 116.414 163.173C88.8929 124.424 74.8453 68.8079 58.2296 6.67632L49.5352 9.00146L40.8407 11.3266C57.0986 72.1202 71.896 131.579 101.739 173.596C116.878 194.912 136.029 212.011 161.316 222.727C186.532 233.413 217.216 237.483 255.046 233.799L254.173 224.842Z" fill="black"/>
</svg>
