<svg width="268" height="320" viewBox="0 0 268 320" fill="none" xmlns="http://www.w3.org/2000/svg">
<rect x="5.6416" width="256" height="320" rx="12" fill="black" fill-opacity="0.01"/>
<rect x="12.041" y="6.39941" width="243.2" height="307.2" rx="19.2" fill="#F0F0F0" fill-opacity="0.9"/>
<g filter="url(#filter2_f_86_960)">
<circle cx="133.639" cy="140.539" r="88.8391" fill="url(#paint0_linear_86_960)"/>
</g>
<path d="M106.2 272.832C106.2 271.723 106.44 270.736 106.92 269.872C107.4 268.997 108.067 268.32 108.92 267.84C109.784 267.349 110.76 267.104 111.848 267.104C113.181 267.104 114.323 267.456 115.272 268.16C116.221 268.864 116.856 269.824 117.176 271.04H114.168C113.933 270.581 113.613 270.235 113.208 270C112.803 269.755 112.339 269.632 111.816 269.632C110.973 269.632 110.291 269.925 109.768 270.512C109.245 271.088 108.984 271.861 108.984 272.832C108.984 273.803 109.245 274.581 109.768 275.168C110.291 275.755 110.973 276.048 111.816 276.048C112.339 276.048 112.803 275.925 113.208 275.68C113.613 275.435 113.933 275.083 114.168 274.624H117.176C116.856 275.84 116.221 276.8 115.272 277.504C114.323 278.197 113.181 278.544 111.848 278.544C110.76 278.544 109.784 278.304 108.92 277.824C108.067 277.333 107.4 276.656 106.92 275.792C106.44 274.928 106.2 273.941 106.2 272.832ZM121.587 266.624V278.464H118.851V266.624H121.587ZM123.026 273.984C123.026 273.067 123.197 272.261 123.538 271.568C123.89 270.875 124.365 270.341 124.962 269.968C125.559 269.595 126.226 269.408 126.962 269.408C127.591 269.408 128.141 269.536 128.61 269.792C129.09 270.048 129.458 270.384 129.714 270.8V269.536H132.45V278.464H129.714V277.2C129.447 277.616 129.074 277.952 128.594 278.208C128.125 278.464 127.575 278.592 126.946 278.592C126.221 278.592 125.559 278.405 124.962 278.032C124.365 277.648 123.89 277.109 123.538 276.416C123.197 275.712 123.026 274.901 123.026 273.984ZM129.714 274C129.714 273.317 129.522 272.779 129.138 272.384C128.765 271.989 128.306 271.792 127.762 271.792C127.218 271.792 126.754 271.989 126.37 272.384C125.997 272.768 125.81 273.301 125.81 273.984C125.81 274.667 125.997 275.211 126.37 275.616C126.754 276.011 127.218 276.208 127.762 276.208C128.306 276.208 128.765 276.011 129.138 275.616C129.522 275.221 129.714 274.683 129.714 274ZM137.166 271.136C137.486 270.613 137.886 270.203 138.366 269.904C138.856 269.595 139.39 269.44 139.966 269.44V272.336H139.214C138.531 272.336 138.019 272.485 137.678 272.784C137.336 273.072 137.166 273.584 137.166 274.32V278.464H134.43V269.536H137.166V271.136ZM142.649 268.608C142.169 268.608 141.775 268.469 141.465 268.192C141.167 267.904 141.017 267.552 141.017 267.136C141.017 266.709 141.167 266.357 141.465 266.08C141.775 265.792 142.169 265.648 142.649 265.648C143.119 265.648 143.503 265.792 143.801 266.08C144.111 266.357 144.265 266.709 144.265 267.136C144.265 267.552 144.111 267.904 143.801 268.192C143.503 268.469 143.119 268.608 142.649 268.608ZM144.009 269.536V278.464H141.273V269.536H144.009ZM150.968 276.144V278.464H149.576C148.584 278.464 147.811 278.224 147.256 277.744C146.701 277.253 146.424 276.459 146.424 275.36V271.808H145.336V269.536H146.424V267.36H149.16V269.536H150.952V271.808H149.16V275.392C149.16 275.659 149.224 275.851 149.352 275.968C149.48 276.085 149.693 276.144 149.992 276.144H150.968ZM154.54 269.536L156.604 275.12L158.652 269.536H161.612L156.012 282.704H153.068L155.116 278.16L151.484 269.536H154.54Z" fill="black"/>
<defs>
<filter id="filter2_f_86_960" x="-0.00019455" y="6.9002" width="267.278" height="267.278" filterUnits="userSpaceOnUse" color-interpolation-filters="sRGB">
<feFlood flood-opacity="0" result="BackgroundImageFix"/>
<feBlend mode="normal" in="SourceGraphic" in2="BackgroundImageFix" result="shape"/>
<feGaussianBlur stdDeviation="22.4" result="effect1_foregroundBlur_86_960"/>
</filter>
<linearGradient id="paint0_linear_86_960" x1="133.639" y1="51.7002" x2="133.639" y2="172.388" gradientUnits="userSpaceOnUse">
<stop stop-color="#11C5F2"/>
<stop offset="1" stop-color="#191F91"/>
</linearGradient>
</defs>
</svg>
