<svg width="256" height="320" viewBox="0 0 256 320" fill="none" xmlns="http://www.w3.org/2000/svg">
<rect width="256" height="320" rx="12" fill="black" fill-opacity="0.01"/>
<rect x="6.39941" y="6.39941" width="243.2" height="307.2" rx="19.2" fill="#F0F0F0" fill-opacity="0.9"/>
<path d="M36.2441 39.9233V42.7833H28.6781V47.5413H34.4761V50.3493H28.6781V58.0713H25.0381V39.9233H36.2441ZM42.4653 38.8313V58.0713H38.8253V38.8313H42.4653ZM47.9076 41.9513C47.2662 41.9513 46.7289 41.752 46.2956 41.3533C45.8796 40.9373 45.6716 40.426 45.6716 39.8193C45.6716 39.2126 45.8796 38.71 46.2956 38.3113C46.7289 37.8953 47.2662 37.6873 47.9076 37.6873C48.5489 37.6873 49.0776 37.8953 49.4936 38.3113C49.9269 38.71 50.1436 39.2126 50.1436 39.8193C50.1436 40.426 49.9269 40.9373 49.4936 41.3533C49.0776 41.752 48.5489 41.9513 47.9076 41.9513ZM49.7016 43.6673V58.0713H46.0616V43.6673H49.7016ZM56.9379 45.7473C57.4059 45.0886 58.0472 44.5426 58.8619 44.1093C59.6939 43.6586 60.6386 43.4333 61.6959 43.4333C62.9266 43.4333 64.0359 43.7366 65.0239 44.3433C66.0292 44.95 66.8179 45.8166 67.3899 46.9433C67.9792 48.0526 68.2739 49.344 68.2739 50.8173C68.2739 52.2906 67.9792 53.5993 67.3899 54.7433C66.8179 55.87 66.0292 56.7453 65.0239 57.3693C64.0359 57.9933 62.9266 58.3053 61.6959 58.3053C60.6386 58.3053 59.7026 58.0886 58.8879 57.6553C58.0906 57.222 57.4406 56.676 56.9379 56.0173V64.9353H53.2979V43.6673H56.9379V45.7473ZM64.5559 50.8173C64.5559 49.9506 64.3739 49.2053 64.0099 48.5813C63.6632 47.94 63.1952 47.4546 62.6059 47.1253C62.0339 46.796 61.4099 46.6313 60.7339 46.6313C60.0752 46.6313 59.4512 46.8046 58.8619 47.1513C58.2899 47.4806 57.8219 47.966 57.4579 48.6073C57.1112 49.2486 56.9379 50.0026 56.9379 50.8693C56.9379 51.736 57.1112 52.49 57.4579 53.1313C57.8219 53.7726 58.2899 54.2666 58.8619 54.6133C59.4512 54.9426 60.0752 55.1073 60.7339 55.1073C61.4099 55.1073 62.0339 54.934 62.6059 54.5873C63.1952 54.2406 63.6632 53.7466 64.0099 53.1053C64.3739 52.464 64.5559 51.7013 64.5559 50.8173ZM95.764 43.4593C97.532 43.4593 98.9534 44.0053 100.028 45.0973C101.12 46.172 101.666 47.68 101.666 49.6213V58.0713H98.026V50.1153C98.026 48.9886 97.74 48.1306 97.168 47.5413C96.596 46.9346 95.816 46.6313 94.828 46.6313C93.84 46.6313 93.0514 46.9346 92.462 47.5413C91.89 48.1306 91.604 48.9886 91.604 50.1153V58.0713H87.964V50.1153C87.964 48.9886 87.678 48.1306 87.106 47.5413C86.534 46.9346 85.754 46.6313 84.766 46.6313C83.7607 46.6313 82.9634 46.9346 82.374 47.5413C81.802 48.1306 81.516 48.9886 81.516 50.1153V58.0713H77.876V43.6673H81.516V45.4093C81.984 44.8026 82.582 44.326 83.31 43.9793C84.0554 43.6326 84.87 43.4593 85.754 43.4593C86.8807 43.4593 87.886 43.702 88.77 44.1873C89.654 44.6553 90.3387 45.3313 90.824 46.2153C91.292 45.3833 91.968 44.716 92.852 44.2133C93.7534 43.7106 94.724 43.4593 95.764 43.4593ZM118.51 50.5313C118.51 51.0166 118.476 51.4673 118.406 51.8833H107.876C107.946 52.9406 108.301 53.7726 108.942 54.3793C109.584 54.986 110.381 55.2893 111.334 55.2893C112.686 55.2893 113.648 54.7086 114.22 53.5473H118.146C117.73 54.934 116.933 56.078 115.754 56.9793C114.576 57.8633 113.128 58.3053 111.412 58.3053C110.026 58.3053 108.778 58.002 107.668 57.3953C106.576 56.7713 105.718 55.896 105.094 54.7693C104.488 53.6426 104.184 52.3426 104.184 50.8693C104.184 49.3786 104.488 48.07 105.094 46.9433C105.701 45.8166 106.55 44.95 107.642 44.3433C108.734 43.7366 109.991 43.4333 111.412 43.4333C112.782 43.4333 114.004 43.728 115.078 44.3173C116.17 44.9066 117.011 45.7386 117.6 46.8133C118.207 47.888 118.51 49.1273 118.51 50.5313ZM114.74 49.6733C114.723 48.668 114.385 47.8793 113.726 47.3073C113.085 46.718 112.279 46.4233 111.308 46.4233C110.39 46.4233 109.618 46.718 108.994 47.3073C108.37 47.8793 107.998 48.668 107.876 49.6733H114.74ZM132.362 46.6573V53.6253C132.362 54.1106 132.475 54.466 132.7 54.6913C132.943 54.8993 133.341 55.0033 133.896 55.0033H135.586V58.0713H133.298C130.23 58.0713 128.696 56.5806 128.696 53.5993V46.6573H126.98V43.6673H128.696V40.1053H132.362V43.6673H135.586V46.6573H132.362ZM144.6 58.3053C143.213 58.3053 141.965 58.002 140.856 57.3953C139.747 56.7713 138.871 55.896 138.23 54.7693C137.606 53.6426 137.294 52.3426 137.294 50.8693C137.294 49.396 137.615 48.096 138.256 46.9693C138.915 45.8426 139.807 44.976 140.934 44.3693C142.061 43.7453 143.317 43.4333 144.704 43.4333C146.091 43.4333 147.347 43.7453 148.474 44.3693C149.601 44.976 150.485 45.8426 151.126 46.9693C151.785 48.096 152.114 49.396 152.114 50.8693C152.114 52.3426 151.776 53.6426 151.1 54.7693C150.441 55.896 149.54 56.7713 148.396 57.3953C147.269 58.002 146.004 58.3053 144.6 58.3053ZM144.6 55.1853C145.259 55.1853 145.874 55.0206 146.446 54.6913C147.035 54.362 147.503 53.8766 147.85 53.2353C148.197 52.5766 148.37 51.788 148.37 50.8693C148.37 49.9506 148.197 49.1706 147.85 48.5293C147.503 47.8706 147.044 47.3766 146.472 47.0473C145.917 46.718 145.311 46.5533 144.652 46.5533C143.629 46.5533 142.763 46.9346 142.052 47.6973C141.341 48.4426 140.986 49.5 140.986 50.8693C140.986 52.2386 141.333 53.3046 142.026 54.0673C142.719 54.8126 143.577 55.1853 144.6 55.1853ZM30.6801 77.4333C31.7548 77.4333 32.6995 77.65 33.5141 78.0833C34.3288 78.4993 34.9701 79.0453 35.4381 79.7213V77.6673H39.1041V92.1753C39.1041 93.51 38.8355 94.6973 38.2981 95.7373C37.7608 96.7946 36.9548 97.6266 35.8801 98.2333C34.8055 98.8573 33.5055 99.1693 31.9801 99.1693C29.9348 99.1693 28.2535 98.6926 26.9361 97.7393C25.6361 96.786 24.8995 95.486 24.7261 93.8393H28.3401C28.5308 94.498 28.9381 95.018 29.5621 95.3993C30.2035 95.798 30.9748 95.9973 31.8761 95.9973C32.9335 95.9973 33.7915 95.6766 34.4501 95.0353C35.1088 94.4113 35.4381 93.458 35.4381 92.1753V89.9393C34.9701 90.6153 34.3201 91.1786 33.4881 91.6293C32.6735 92.08 31.7375 92.3053 30.6801 92.3053C29.4668 92.3053 28.3575 91.9933 27.3521 91.3693C26.3468 90.7453 25.5495 89.87 24.9601 88.7433C24.3881 87.5993 24.1021 86.2906 24.1021 84.8173C24.1021 83.3613 24.3881 82.07 24.9601 80.9433C25.5495 79.8166 26.3381 78.95 27.3261 78.3433C28.3315 77.7366 29.4495 77.4333 30.6801 77.4333ZM35.4381 84.8693C35.4381 83.9853 35.2648 83.2313 34.9181 82.6073C34.5715 81.966 34.1035 81.4806 33.5141 81.1513C32.9248 80.8046 32.2921 80.6313 31.6161 80.6313C30.9401 80.6313 30.3161 80.796 29.7441 81.1253C29.1721 81.4546 28.7041 81.94 28.3401 82.5813C27.9935 83.2053 27.8201 83.9506 27.8201 84.8173C27.8201 85.684 27.9935 86.4466 28.3401 87.1053C28.7041 87.7466 29.1721 88.2406 29.7441 88.5873C30.3335 88.934 30.9575 89.1073 31.6161 89.1073C32.2921 89.1073 32.9248 88.9426 33.5141 88.6133C34.1035 88.2666 34.5715 87.7813 34.9181 87.1573C35.2648 86.516 35.4381 85.7533 35.4381 84.8693ZM56.0492 84.5313C56.0492 85.0166 56.0146 85.4673 55.9452 85.8833H45.4152C45.4846 86.9406 45.8399 87.7726 46.4812 88.3793C47.1226 88.986 47.9199 89.2893 48.8732 89.2893C50.2252 89.2893 51.1872 88.7086 51.7592 87.5473H55.6852C55.2692 88.934 54.4719 90.078 53.2932 90.9793C52.1146 91.8633 50.6672 92.3053 48.9512 92.3053C47.5646 92.3053 46.3166 92.002 45.2072 91.3953C44.1152 90.7713 43.2572 89.896 42.6332 88.7693C42.0266 87.6426 41.7232 86.3426 41.7232 84.8693C41.7232 83.3786 42.0266 82.07 42.6332 80.9433C43.2399 79.8166 44.0892 78.95 45.1812 78.3433C46.2732 77.7366 47.5299 77.4333 48.9512 77.4333C50.3206 77.4333 51.5426 77.728 52.6172 78.3173C53.7092 78.9066 54.5499 79.7386 55.1392 80.8133C55.7459 81.888 56.0492 83.1273 56.0492 84.5313ZM52.2792 83.6733C52.2619 82.668 51.9239 81.8793 51.2652 81.3073C50.6239 80.718 49.8179 80.4233 48.8472 80.4233C47.9286 80.4233 47.1572 80.718 46.5332 81.3073C45.9092 81.8793 45.5366 82.668 45.4152 83.6733H52.2792ZM62.9441 80.6573V87.6253C62.9441 88.1106 63.0568 88.466 63.2821 88.6913C63.5248 88.8993 63.9234 89.0033 64.4781 89.0033H66.1681V92.0713H63.8801C60.8121 92.0713 59.2781 90.5806 59.2781 87.5993V80.6573H57.5621V77.6673H59.2781V74.1053H62.9441V77.6673H66.1681V80.6573H62.9441ZM78.1612 77.6673L81.8792 87.7293L85.6492 77.6673H89.5232L80.6052 98.8833H76.7312L79.8512 91.7073L74.0792 77.6673H78.1612ZM97.8814 92.3053C96.4947 92.3053 95.2467 92.002 94.1374 91.3953C93.0281 90.7713 92.1527 89.896 91.5114 88.7693C90.8874 87.6426 90.5754 86.3426 90.5754 84.8693C90.5754 83.396 90.8961 82.096 91.5374 80.9693C92.1961 79.8426 93.0887 78.976 94.2154 78.3693C95.3421 77.7453 96.5987 77.4333 97.9854 77.4333C99.3721 77.4333 100.629 77.7453 101.755 78.3693C102.882 78.976 103.766 79.8426 104.407 80.9693C105.066 82.096 105.395 83.396 105.395 84.8693C105.395 86.3426 105.057 87.6426 104.381 88.7693C103.723 89.896 102.821 90.7713 101.677 91.3953C100.551 92.002 99.2854 92.3053 97.8814 92.3053ZM97.8814 89.1853C98.5401 89.1853 99.1554 89.0206 99.7274 88.6913C100.317 88.362 100.785 87.8766 101.131 87.2353C101.478 86.5766 101.651 85.788 101.651 84.8693C101.651 83.9506 101.478 83.1706 101.131 82.5293C100.785 81.8706 100.325 81.3766 99.7534 81.0473C99.1987 80.718 98.5921 80.5533 97.9334 80.5533C96.9107 80.5533 96.0441 80.9346 95.3334 81.6973C94.6227 82.4426 94.2674 83.5 94.2674 84.8693C94.2674 86.2386 94.6141 87.3046 95.3074 88.0673C96.0007 88.8126 96.8587 89.1853 97.8814 89.1853ZM121.663 77.6673V92.0713H117.997V90.2513C117.529 90.8753 116.914 91.3693 116.151 91.7333C115.406 92.08 114.591 92.2533 113.707 92.2533C112.581 92.2533 111.584 92.0193 110.717 91.5513C109.851 91.066 109.166 90.364 108.663 89.4453C108.178 88.5093 107.935 87.4 107.935 86.1173V77.6673H111.575V85.5973C111.575 86.7413 111.861 87.6253 112.433 88.2493C113.005 88.856 113.785 89.1593 114.773 89.1593C115.779 89.1593 116.567 88.856 117.139 88.2493C117.711 87.6253 117.997 86.7413 117.997 85.5973V77.6673H121.663ZM128.895 80.2153C129.363 79.3486 129.97 78.6726 130.715 78.1873C131.478 77.702 132.344 77.4593 133.315 77.4593V81.2813H132.353C131.209 81.2813 130.342 81.55 129.753 82.0873C129.181 82.6246 128.895 83.5606 128.895 84.8953V92.0713H125.255V77.6673H128.895V80.2153ZM36.1661 122.613H28.9381L27.7421 126.071H23.9201L30.4461 107.897H34.6841L41.2101 126.071H37.3621L36.1661 122.613ZM35.2041 119.779L32.5521 112.109L29.9001 119.779H35.2041ZM57.2475 111.667V126.071H53.5815V124.251C53.1135 124.875 52.4981 125.369 51.7355 125.733C50.9901 126.08 50.1755 126.253 49.2915 126.253C48.1648 126.253 47.1681 126.019 46.3015 125.551C45.4348 125.066 44.7501 124.364 44.2475 123.445C43.7621 122.509 43.5195 121.4 43.5195 120.117V111.667H47.1595V119.597C47.1595 120.741 47.4455 121.625 48.0175 122.249C48.5895 122.856 49.3695 123.159 50.3575 123.159C51.3628 123.159 52.1515 122.856 52.7235 122.249C53.2955 121.625 53.5815 120.741 53.5815 119.597V111.667H57.2475ZM64.4789 114.215C64.9469 113.349 65.5536 112.673 66.2989 112.187C67.0616 111.702 67.9283 111.459 68.8989 111.459V115.281H67.9369C66.7929 115.281 65.9263 115.55 65.3369 116.087C64.7649 116.625 64.4789 117.561 64.4789 118.895V126.071H60.8389V111.667H64.4789V114.215ZM70.4146 118.817C70.4146 117.361 70.7006 116.07 71.2726 114.943C71.862 113.817 72.6506 112.95 73.6386 112.343C74.644 111.737 75.762 111.433 76.9926 111.433C78.0673 111.433 79.0033 111.65 79.8006 112.083C80.6153 112.517 81.2653 113.063 81.7506 113.721V111.667H85.4166V126.071H81.7506V123.965C81.2826 124.641 80.6326 125.205 79.8006 125.655C78.986 126.089 78.0413 126.305 76.9666 126.305C75.7533 126.305 74.644 125.993 73.6386 125.369C72.6506 124.745 71.862 123.87 71.2726 122.743C70.7006 121.599 70.4146 120.291 70.4146 118.817ZM81.7506 118.869C81.7506 117.985 81.5773 117.231 81.2306 116.607C80.884 115.966 80.416 115.481 79.8266 115.151C79.2373 114.805 78.6046 114.631 77.9286 114.631C77.2526 114.631 76.6286 114.796 76.0566 115.125C75.4846 115.455 75.0166 115.94 74.6526 116.581C74.306 117.205 74.1326 117.951 74.1326 118.817C74.1326 119.684 74.306 120.447 74.6526 121.105C75.0166 121.747 75.4846 122.241 76.0566 122.587C76.646 122.934 77.27 123.107 77.9286 123.107C78.6046 123.107 79.2373 122.943 79.8266 122.613C80.416 122.267 80.884 121.781 81.2306 121.157C81.5773 120.516 81.7506 119.753 81.7506 118.869ZM102.533 114.657H100.011V126.071H96.3188V114.657H94.6808V111.667H96.3188V110.939C96.3188 109.171 96.8214 107.871 97.8268 107.039C98.8321 106.207 100.349 105.817 102.377 105.869V108.937C101.493 108.92 100.877 109.067 100.531 109.379C100.184 109.691 100.011 110.255 100.011 111.069V111.667H102.533V114.657ZM111.288 126.305C109.901 126.305 108.653 126.002 107.544 125.395C106.434 124.771 105.559 123.896 104.918 122.769C104.294 121.643 103.982 120.343 103.982 118.869C103.982 117.396 104.302 116.096 104.944 114.969C105.602 113.843 106.495 112.976 107.622 112.369C108.748 111.745 110.005 111.433 111.392 111.433C112.778 111.433 114.035 111.745 115.162 112.369C116.288 112.976 117.172 113.843 117.814 114.969C118.472 116.096 118.802 117.396 118.802 118.869C118.802 120.343 118.464 121.643 117.788 122.769C117.129 123.896 116.228 124.771 115.084 125.395C113.957 126.002 112.692 126.305 111.288 126.305ZM111.288 123.185C111.946 123.185 112.562 123.021 113.134 122.691C113.723 122.362 114.191 121.877 114.538 121.235C114.884 120.577 115.058 119.788 115.058 118.869C115.058 117.951 114.884 117.171 114.538 116.529C114.191 115.871 113.732 115.377 113.16 115.047C112.605 114.718 111.998 114.553 111.34 114.553C110.317 114.553 109.45 114.935 108.74 115.697C108.029 116.443 107.674 117.5 107.674 118.869C107.674 120.239 108.02 121.305 108.714 122.067C109.407 122.813 110.265 123.185 111.288 123.185ZM125.112 114.215C125.58 113.349 126.186 112.673 126.932 112.187C127.694 111.702 128.561 111.459 129.532 111.459V115.281H128.57C127.426 115.281 126.559 115.55 125.97 116.087C125.398 116.625 125.112 117.561 125.112 118.895V126.071H121.472V111.667H125.112V114.215ZM143.178 114.657V121.625C143.178 122.111 143.291 122.466 143.516 122.691C143.759 122.899 144.158 123.003 144.712 123.003H146.402V126.071H144.114C141.046 126.071 139.512 124.581 139.512 121.599V114.657H137.796V111.667H139.512V108.105H143.178V111.667H146.402V114.657H143.178ZM157.133 111.459C158.225 111.459 159.195 111.702 160.045 112.187C160.894 112.655 161.553 113.357 162.021 114.293C162.506 115.212 162.749 116.321 162.749 117.621V126.071H159.109V118.115C159.109 116.971 158.823 116.096 158.251 115.489C157.679 114.865 156.899 114.553 155.911 114.553C154.905 114.553 154.108 114.865 153.519 115.489C152.947 116.096 152.661 116.971 152.661 118.115V126.071H149.021V106.831H152.661V113.461C153.129 112.837 153.753 112.352 154.533 112.005C155.313 111.641 156.179 111.459 157.133 111.459ZM179.6 118.531C179.6 119.017 179.565 119.467 179.496 119.883H168.966C169.035 120.941 169.391 121.773 170.032 122.379C170.673 122.986 171.471 123.289 172.424 123.289C173.776 123.289 174.738 122.709 175.31 121.547H179.236C178.82 122.934 178.023 124.078 176.844 124.979C175.665 125.863 174.218 126.305 172.502 126.305C171.115 126.305 169.867 126.002 168.758 125.395C167.666 124.771 166.808 123.896 166.184 122.769C165.577 121.643 165.274 120.343 165.274 118.869C165.274 117.379 165.577 116.07 166.184 114.943C166.791 113.817 167.64 112.95 168.732 112.343C169.824 111.737 171.081 111.433 172.502 111.433C173.871 111.433 175.093 111.728 176.168 112.317C177.26 112.907 178.101 113.739 178.69 114.813C179.297 115.888 179.6 117.127 179.6 118.531ZM175.83 117.673C175.813 116.668 175.475 115.879 174.816 115.307C174.175 114.718 173.369 114.423 172.398 114.423C171.479 114.423 170.708 114.718 170.084 115.307C169.46 115.879 169.087 116.668 168.966 117.673H175.83ZM24.1021 152.817C24.1021 151.361 24.3881 150.07 24.9601 148.943C25.5495 147.817 26.3468 146.95 27.3521 146.343C28.3575 145.737 29.4755 145.433 30.7061 145.433C31.6421 145.433 32.5348 145.641 33.3841 146.057C34.2335 146.456 34.9095 146.993 35.4121 147.669V140.831H39.1041V160.071H35.4121V157.939C34.9615 158.65 34.3288 159.222 33.5141 159.655C32.6995 160.089 31.7548 160.305 30.6801 160.305C29.4668 160.305 28.3575 159.993 27.3521 159.369C26.3468 158.745 25.5495 157.87 24.9601 156.743C24.3881 155.599 24.1021 154.291 24.1021 152.817ZM35.4381 152.869C35.4381 151.985 35.2648 151.231 34.9181 150.607C34.5715 149.966 34.1035 149.481 33.5141 149.151C32.9248 148.805 32.2921 148.631 31.6161 148.631C30.9401 148.631 30.3161 148.796 29.7441 149.125C29.1721 149.455 28.7041 149.94 28.3401 150.581C27.9935 151.205 27.8201 151.951 27.8201 152.817C27.8201 153.684 27.9935 154.447 28.3401 155.105C28.7041 155.747 29.1721 156.241 29.7441 156.587C30.3335 156.934 30.9575 157.107 31.6161 157.107C32.2921 157.107 32.9248 156.943 33.5141 156.613C34.1035 156.267 34.5715 155.781 34.9181 155.157C35.2648 154.516 35.4381 153.753 35.4381 152.869ZM41.7232 152.817C41.7232 151.361 42.0092 150.07 42.5812 148.943C43.1706 147.817 43.9592 146.95 44.9472 146.343C45.9526 145.737 47.0706 145.433 48.3012 145.433C49.3759 145.433 50.3119 145.65 51.1092 146.083C51.9239 146.517 52.5739 147.063 53.0592 147.721V145.667H56.7252V160.071H53.0592V157.965C52.5912 158.641 51.9412 159.205 51.1092 159.655C50.2946 160.089 49.3499 160.305 48.2752 160.305C47.0619 160.305 45.9526 159.993 44.9472 159.369C43.9592 158.745 43.1706 157.87 42.5812 156.743C42.0092 155.599 41.7232 154.291 41.7232 152.817ZM53.0592 152.869C53.0592 151.985 52.8859 151.231 52.5392 150.607C52.1926 149.966 51.7246 149.481 51.1352 149.151C50.5459 148.805 49.9132 148.631 49.2372 148.631C48.5612 148.631 47.9372 148.796 47.3652 149.125C46.7932 149.455 46.3252 149.94 45.9612 150.581C45.6146 151.205 45.4412 151.951 45.4412 152.817C45.4412 153.684 45.6146 154.447 45.9612 155.105C46.3252 155.747 46.7932 156.241 47.3652 156.587C47.9546 156.934 48.5786 157.107 49.2372 157.107C49.9132 157.107 50.5459 156.943 51.1352 156.613C51.7246 156.267 52.1926 155.781 52.5392 155.157C52.8859 154.516 53.0592 153.753 53.0592 152.869ZM62.6983 145.667L66.4163 155.729L70.1863 145.667H74.0603L65.1423 166.883H61.2683L64.3883 159.707L58.6163 145.667H62.6983ZM77.6345 160.253C76.9758 160.253 76.4298 160.054 75.9965 159.655C75.5805 159.239 75.3725 158.728 75.3725 158.121C75.3725 157.515 75.5805 157.012 75.9965 156.613C76.4298 156.197 76.9758 155.989 77.6345 155.989C78.2758 155.989 78.8045 156.197 79.2205 156.613C79.6365 157.012 79.8445 157.515 79.8445 158.121C79.8445 158.728 79.6365 159.239 79.2205 159.655C78.8045 160.054 78.2758 160.253 77.6345 160.253Z" fill="black"/>
</svg>
