<svg width="322" height="351" viewBox="0 0 322 351" fill="none" xmlns="http://www.w3.org/2000/svg">
<path d="M113.954 86.5911C117.835 89.6957 123.499 89.0656 126.603 85.1839C129.708 81.3021 129.078 75.6386 125.196 72.534L119.575 79.5625L113.954 86.5911ZM119.497 79.5001L111.325 83.2712L112.216 85.2011L113.875 86.5286L119.497 79.5001ZM117.571 75.3263L125.743 71.5552L125.65 71.3537L125.547 71.157L117.571 75.3263ZM115.387 71.1498L123.364 66.9805L122.111 64.5843L119.745 63.2752L115.387 71.1498ZM110.797 68.6095L101.8 68.3713L101.656 73.8368L106.439 76.4841L110.797 68.6095ZM110.952 62.7547L119.949 62.9928L120.086 57.8046L115.665 55.0871L110.952 62.7547ZM106.647 60.1088L98.6484 64.2343L99.798 66.4632L101.935 67.7764L106.647 60.1088ZM104.457 55.862L96.3879 59.8485L96.4224 59.9183L96.4581 59.9875L104.457 55.862ZM102.308 51.5125L110.377 47.526L108.428 43.5817L104.119 42.6965L102.308 51.5125ZM96.5586 50.3315L87.6522 51.6262L88.5608 57.8765L94.7476 59.1474L96.5586 50.3315ZM95.7377 44.6847L104.644 43.3899L103.784 37.4755L97.9994 35.9736L95.7377 44.6847ZM90.5062 43.3264L84.0336 49.5799L85.7932 51.4011L88.2444 52.0376L90.5062 43.3264ZM87.3077 40.0159L93.7802 33.7624L93.1836 33.1449L92.4811 32.6514L87.3077 40.0159ZM83.2203 37.1446L88.3937 29.7801L84.7049 27.1888L80.4206 28.5911L83.2203 37.1446ZM78.1769 38.7954L74.6684 47.0833L77.7728 48.3975L80.9766 47.3488L78.1769 38.7954ZM73.6252 36.8685L77.1337 28.5806L73.9771 27.2443L70.7314 28.3464L73.6252 36.8685ZM68.9796 38.446L71.2299 47.1601L71.5552 47.0761L71.8734 46.9681L68.9796 38.446ZM64.4865 39.6063L62.2362 30.8921L62.0933 30.929L61.9516 30.9706L64.4865 39.6063ZM60.8924 40.6613L58.3575 32.0256L55.8962 32.7481L54.1857 34.6596L60.8924 40.6613ZM58.0102 43.882L51.3035 37.8803L51.024 38.1926L50.7748 38.5295L58.0102 43.882ZM55.2066 47.6718L47.9712 42.3193L47.445 43.0306L47.0674 43.8308L55.2066 47.6718ZM53.1822 51.9615L45.043 48.1205L44.6068 49.0449L44.3889 50.0437L53.1822 51.9615ZM52.1761 56.5747L43.3828 54.6568L43.0663 56.108L43.2328 57.5838L52.1761 56.5747ZM52.7223 61.4155L60.9423 65.0805L61.9404 62.8419L61.6656 60.4064L52.7223 61.4155ZM50.7401 65.8613L42.5201 62.1964L41.3467 64.8283L41.9201 67.6523L50.7401 65.8613ZM51.7165 70.6693L60.4841 72.7013L60.9258 70.7955L60.5365 68.8783L51.7165 70.6693ZM50.6507 75.2678L58.7356 79.2219L59.1866 78.2998L59.4184 77.2998L50.6507 75.2678ZM48.4348 79.7987L40.3499 75.8446L39.7277 77.1169L39.5263 78.5189L48.4348 79.7987ZM47.765 84.4613L38.8565 83.1815L38.363 86.6168L40.3037 89.4941L47.765 84.4613ZM51.047 89.3268L59.9311 90.7666L60.5012 87.2486L58.5083 84.294L51.047 89.3268ZM50.2943 93.9713L58.3914 97.9003L58.9673 96.7134L59.1784 95.4111L50.2943 93.9713ZM48.062 98.5719L39.9648 94.643L38.3026 98.0687L39.6037 101.647L48.062 98.5719ZM49.7818 103.302L58.6792 101.947L58.5449 101.065L58.2401 100.227L49.7818 103.302ZM50.497 107.999L59.4845 108.473L59.533 107.554L59.3944 106.644L50.497 107.999ZM50.2512 112.661L59.1625 113.921L59.2179 113.529L59.2387 113.135L50.2512 112.661ZM49.5906 117.331L58.1046 120.249L58.3821 119.439L58.5019 118.592L49.5906 117.331ZM47.9921 121.996L39.4782 119.078L38.366 122.324L39.6962 125.486L47.9921 121.996ZM49.9624 126.68L58.6102 129.173L59.4905 126.119L58.2583 123.19L49.9624 126.68ZM48.6128 131.361L39.965 128.868L39.7566 129.591L39.6711 130.338L48.6128 131.361ZM48.0766 136.048L39.1349 135.025L39.0592 135.686L39.0817 136.352L48.0766 136.048ZM48.2347 140.733L39.2399 141.037L39.2845 142.358L39.7073 143.611L48.2347 140.733ZM49.8027 145.379L58.6815 146.851L59.0493 144.632L58.3301 142.501L49.8027 145.379ZM49.0239 150.077L40.145 148.605L40.0372 149.256L40.0254 149.915L49.0239 150.077ZM48.9395 154.764L39.941 154.602L39.9182 155.869L40.2462 157.093L48.9395 154.764ZM50.1816 159.399L59.1711 158.965L59.1246 158.002L58.875 157.07L50.1816 159.399ZM50.4072 164.072L59.0709 166.51L59.4674 165.101L59.3968 163.638L50.4072 164.072ZM49.0707 168.823L40.4071 166.386L39.6872 168.944L40.4729 171.483L49.0707 168.823ZM50.4963 173.43L59.4051 172.152L59.3042 171.449L59.0941 170.77L50.4963 173.43ZM51.1623 178.074L42.2535 179.352L42.351 180.032L42.5505 180.689L51.1623 178.074ZM52.5556 182.663L61.554 182.835L61.5811 181.411L61.1674 180.048L52.5556 182.663ZM52.4663 187.354L43.4679 187.182L43.4501 188.12L43.626 189.042L52.4663 187.354ZM53.3477 191.969L62.2305 193.417L62.4867 191.845L62.1879 190.281L53.3477 191.969ZM52.5723 196.726L43.6895 195.278L43.5335 196.236L43.585 197.204L52.5723 196.726ZM52.8209 201.399L61.8205 201.312L61.8186 201.116L61.8082 200.921L52.8209 201.399ZM52.866 206.095L61.8644 206.264L61.8668 206.136L61.8656 206.009L52.866 206.095ZM52.7773 210.81L43.7789 210.641L43.7408 212.662L44.5708 214.506L52.7773 210.81ZM54.7976 215.297L63.6049 213.445L63.4042 212.491L63.0041 211.602L54.7976 215.297ZM55.7642 219.892L64.5322 221.922L64.9807 219.985L64.5714 218.039L55.7642 219.892ZM54.6431 224.734L45.875 222.704L45.4502 224.539L45.7967 226.39L54.6431 224.734ZM55.5059 229.343L46.6595 230.999L46.9199 232.39L47.5946 233.634L55.5059 229.343ZM57.8973 233.752L66.2639 237.069L67.8139 233.159L65.8085 229.461L57.8973 233.752ZM55.925 238.728L47.5583 235.412L45.8438 239.737L48.3813 243.636L55.925 238.728ZM58.7499 243.07L66.8881 246.913L69.0329 242.371L66.2936 238.161L58.7499 243.07ZM56.3616 248.127L48.2235 244.284L45.7715 249.476L49.4466 253.887L56.3616 248.127ZM59.8831 252.354L68.8019 253.561L69.3327 249.637L66.7982 246.594L59.8831 252.354ZM59.2309 257.176L67.9153 259.538L68.0705 258.968L68.1497 258.382L59.2309 257.176ZM57.8891 262.108L49.2048 259.745L47.9455 264.373L51.0856 267.999L57.8891 262.108ZM61.513 266.292L70.4424 267.417L70.9441 263.435L68.3166 260.401L61.513 266.292ZM60.904 271.127L51.9746 270.002L51.6132 272.871L52.9904 275.414L60.904 271.127ZM63.267 275.489L72.1802 274.243L71.9549 272.632L71.1806 271.203L63.267 275.489ZM63.9139 280.115L72.6743 282.178L73.0607 280.537L72.8272 278.868L63.9139 280.115ZM62.7498 285.057L53.9895 282.994L53.1478 286.568L55.046 289.711L62.7498 285.057ZM65.3519 289.366L74.3519 289.363L74.3511 286.857L73.0557 284.712L65.3519 289.366ZM65.3534 294.11L56.3534 294.112L56.3536 294.689L56.4273 295.261L65.3534 294.11ZM65.9528 298.758L74.9515 298.601L74.9428 298.102L74.8789 297.607L65.9528 298.758ZM66.0351 303.499L57.0365 303.655L57.0396 303.834L57.0498 304.013L66.0351 303.499ZM66.304 308.199L57.3187 308.713L57.3504 309.266L57.4495 309.811L66.304 308.199ZM67.1418 312.801L58.2872 314.413L58.3632 314.83L58.478 315.239L67.1418 312.801ZM68.4173 317.336L59.7536 319.773L59.9762 320.565L60.3386 321.303L68.4173 317.336ZM70.5605 321.701L79.5501 321.27L79.4609 319.408L78.6391 317.734L70.5605 321.701ZM70.7868 326.422L61.7971 326.853L61.8498 327.953L62.1661 329.008L70.7868 326.422ZM72.1344 330.916L81.133 331.078L81.1583 329.675L80.7551 328.331L72.1344 330.916ZM72.0475 335.742L63.049 335.58L63.0059 337.969L64.1537 340.065L72.0475 335.742ZM74.3627 339.969L83.1326 337.947L82.8534 336.736L82.2565 335.647L74.3627 339.969ZM65.996 343.74C67.1127 348.584 71.9444 351.605 76.7879 350.488C81.6314 349.371 84.6525 344.54 83.5358 339.696L74.7659 341.718L65.996 343.74ZM119.575 79.5625L125.196 72.534L125.118 72.4715L119.497 79.5001L113.875 86.5286L113.954 86.5911L119.575 79.5625ZM119.497 79.5001L127.669 75.729L125.743 71.5552L117.571 75.3263L109.399 79.0974L111.325 83.2712L119.497 79.5001ZM117.571 75.3263L125.547 71.157L123.364 66.9805L115.387 71.1498L107.411 75.3191L109.595 79.4956L117.571 75.3263ZM115.387 71.1498L119.745 63.2752L115.155 60.7349L110.797 68.6095L106.439 76.4841L111.03 79.0244L115.387 71.1498ZM110.797 68.6095L119.794 68.8477L119.949 62.9928L110.952 62.7547L101.955 62.5165L101.8 68.3713L110.797 68.6095ZM110.952 62.7547L115.665 55.0871L111.36 52.4412L106.647 60.1088L101.935 67.7764L106.24 70.4223L110.952 62.7547ZM106.647 60.1088L114.646 55.9833L112.456 51.7365L104.457 55.862L96.4581 59.9875L98.6484 64.2343L106.647 60.1088ZM104.457 55.862L112.526 51.8756L110.377 47.526L102.308 51.5125L94.239 55.4989L96.3879 59.8485L104.457 55.862ZM102.308 51.5125L104.119 42.6965L98.3695 41.5155L96.5586 50.3315L94.7476 59.1474L100.497 60.3284L102.308 51.5125ZM96.5586 50.3315L105.465 49.0367L104.644 43.3899L95.7377 44.6847L86.8313 45.9795L87.6522 51.6262L96.5586 50.3315ZM95.7377 44.6847L97.9994 35.9736L92.768 34.6152L90.5062 43.3264L88.2444 52.0376L93.4759 53.3959L95.7377 44.6847ZM90.5062 43.3264L96.9787 37.0729L93.7802 33.7624L87.3077 40.0159L80.8351 46.2693L84.0336 49.5799L90.5062 43.3264ZM87.3077 40.0159L92.4811 32.6514L88.3937 29.7801L83.2203 37.1446L78.0469 44.5091L82.1343 47.3804L87.3077 40.0159ZM83.2203 37.1446L80.4206 28.5911L75.3772 30.2419L78.1769 38.7954L80.9766 47.3488L86.02 45.698L83.2203 37.1446ZM78.1769 38.7954L81.6854 30.5074L77.1337 28.5806L73.6252 36.8685L70.1167 45.1565L74.6684 47.0833L78.1769 38.7954ZM73.6252 36.8685L70.7314 28.3464L66.0858 29.9239L68.9796 38.446L71.8734 46.9681L76.519 45.3906L73.6252 36.8685ZM68.9796 38.446L66.7293 29.7319L62.2362 30.8921L64.4865 39.6063L66.7368 48.3204L71.2299 47.1601L68.9796 38.446ZM64.4865 39.6063L61.9516 30.9706L58.3575 32.0256L60.8924 40.6613L63.4272 49.2969L67.0214 48.2419L64.4865 39.6063ZM60.8924 40.6613L54.1857 34.6596L51.3035 37.8803L58.0102 43.882L64.7168 49.8837L67.599 46.663L60.8924 40.6613ZM58.0102 43.882L50.7748 38.5295L47.9712 42.3193L55.2066 47.6718L62.442 53.0243L65.2456 49.2345L58.0102 43.882ZM55.2066 47.6718L47.0674 43.8308L45.043 48.1205L53.1822 51.9615L61.3214 55.8026L63.3458 51.5128L55.2066 47.6718ZM53.1822 51.9615L44.3889 50.0437L43.3828 54.6568L52.1761 56.5747L60.9694 58.4925L61.9755 53.8794L53.1822 51.9615ZM52.1761 56.5747L43.2328 57.5838L43.7791 62.4247L52.7223 61.4155L61.6656 60.4064L61.1193 55.5656L52.1761 56.5747ZM52.7223 61.4155L44.5023 57.7506L42.5201 62.1964L50.7401 65.8613L58.9601 69.5263L60.9423 65.0805L52.7223 61.4155ZM50.7401 65.8613L41.9201 67.6523L42.8965 72.4603L51.7165 70.6693L60.5365 68.8783L59.5601 64.0703L50.7401 65.8613ZM51.7165 70.6693L42.9488 68.6374L41.8831 73.2359L50.6507 75.2678L59.4184 77.2998L60.4841 72.7013L51.7165 70.6693ZM50.6507 75.2678L42.5659 71.3137L40.3499 75.8446L48.4348 79.7987L56.5197 83.7527L58.7356 79.2219L50.6507 75.2678ZM48.4348 79.7987L39.5263 78.5189L38.8565 83.1815L47.765 84.4613L56.6736 85.741L57.3434 81.0784L48.4348 79.7987ZM47.765 84.4613L40.3037 89.4941L43.5857 94.3596L51.047 89.3268L58.5083 84.294L55.2263 79.4284L47.765 84.4613ZM51.047 89.3268L42.1629 87.8871L41.4102 92.5316L50.2943 93.9713L59.1784 95.4111L59.9311 90.7666L51.047 89.3268ZM50.2943 93.9713L42.1971 90.0424L39.9648 94.643L48.062 98.5719L56.1591 102.501L58.3914 97.9003L50.2943 93.9713ZM48.062 98.5719L39.6037 101.647L41.3235 106.377L49.7818 103.302L58.2401 100.227L56.5203 95.4967L48.062 98.5719ZM49.7818 103.302L40.8843 104.657L41.5996 109.354L50.497 107.999L59.3944 106.644L58.6792 101.947L49.7818 103.302ZM50.497 107.999L41.5095 107.525L41.2637 112.187L50.2512 112.661L59.2387 113.135L59.4845 108.473L50.497 107.999ZM50.2512 112.661L41.3399 111.4L40.6793 116.071L49.5906 117.331L58.5019 118.592L59.1625 113.921L50.2512 112.661ZM49.5906 117.331L41.0767 114.414L39.4782 119.078L47.9921 121.996L56.506 124.914L58.1046 120.249L49.5906 117.331ZM47.9921 121.996L39.6962 125.486L41.6665 130.169L49.9624 126.68L58.2583 123.19L56.288 118.506L47.9921 121.996ZM49.9624 126.68L41.3145 124.187L39.965 128.868L48.6128 131.361L57.2606 133.854L58.6102 129.173L49.9624 126.68ZM48.6128 131.361L39.6711 130.338L39.1349 135.025L48.0766 136.048L57.0183 137.071L57.5545 132.384L48.6128 131.361ZM48.0766 136.048L39.0817 136.352L39.2399 141.037L48.2347 140.733L57.2296 140.43L57.0715 135.744L48.0766 136.048ZM48.2347 140.733L39.7073 143.611L41.2753 148.257L49.8027 145.379L58.3301 142.501L56.7621 137.855L48.2347 140.733ZM49.8027 145.379L40.9238 143.907L40.145 148.605L49.0239 150.077L57.9027 151.549L58.6815 146.851L49.8027 145.379ZM49.0239 150.077L40.0254 149.915L39.941 154.602L48.9395 154.764L57.9381 154.926L58.0224 150.239L49.0239 150.077ZM48.9395 154.764L40.2462 157.093L41.4882 161.729L50.1816 159.399L58.875 157.07L57.6329 152.434L48.9395 154.764ZM50.1816 159.399L41.1921 159.833L41.4177 164.506L50.4072 164.072L59.3968 163.638L59.1711 158.965L50.1816 159.399ZM50.4072 164.072L41.7436 161.635L40.4071 166.386L49.0707 168.823L57.7344 171.26L59.0709 166.51L50.4072 164.072ZM49.0707 168.823L40.4729 171.483L41.8985 176.09L50.4963 173.43L59.0941 170.77L57.6685 166.163L49.0707 168.823ZM50.4963 173.43L41.5874 174.708L42.2535 179.352L51.1623 178.074L60.0712 176.797L59.4051 172.152L50.4963 173.43ZM51.1623 178.074L42.5505 180.689L43.9438 185.278L52.5556 182.663L61.1674 180.048L59.7741 175.459L51.1623 178.074ZM52.5556 182.663L43.5573 182.492L43.4679 187.182L52.4663 187.354L61.4647 187.525L61.554 182.835L52.5556 182.663ZM52.4663 187.354L43.626 189.042L44.5075 193.657L53.3477 191.969L62.1879 190.281L61.3065 185.666L52.4663 187.354ZM53.3477 191.969L44.4649 190.521L43.6895 195.278L52.5723 196.726L61.455 198.174L62.2305 193.417L53.3477 191.969ZM52.5723 196.726L43.585 197.204L43.8336 201.877L52.8209 201.399L61.8082 200.921L61.5596 196.248L52.5723 196.726ZM52.8209 201.399L43.8213 201.485L43.8664 206.181L52.866 206.095L61.8656 206.009L61.8205 201.312L52.8209 201.399ZM52.866 206.095L43.8676 205.926L43.7789 210.641L52.7773 210.81L61.7757 210.98L61.8644 206.264L52.866 206.095ZM52.7773 210.81L44.5708 214.506L46.5912 218.992L54.7976 215.297L63.0041 211.602L60.9837 207.115L52.7773 210.81ZM54.7976 215.297L45.9904 217.15L46.9569 221.745L55.7642 219.892L64.5714 218.039L63.6049 213.445L54.7976 215.297ZM55.7642 219.892L46.9961 217.862L45.875 222.704L54.6431 224.734L63.4111 226.764L64.5322 221.922L55.7642 219.892ZM54.6431 224.734L45.7967 226.39L46.6595 230.999L55.5059 229.343L64.3522 227.687L63.4894 223.078L54.6431 224.734ZM55.5059 229.343L47.5946 233.634L49.986 238.043L57.8973 233.752L65.8085 229.461L63.4171 225.052L55.5059 229.343ZM57.8973 233.752L49.5306 230.436L47.5583 235.412L55.925 238.728L64.2916 242.044L66.2639 237.069L57.8973 233.752ZM55.925 238.728L48.3813 243.636L51.2062 247.978L58.7499 243.07L66.2936 238.161L63.4687 233.82L55.925 238.728ZM58.7499 243.07L50.6118 239.226L48.2235 244.284L56.3616 248.127L64.4997 251.97L66.8881 246.913L58.7499 243.07ZM56.3616 248.127L49.4466 253.887L52.968 258.115L59.8831 252.354L66.7982 246.594L63.2767 242.367L56.3616 248.127ZM59.8831 252.354L50.9643 251.148L50.3122 255.969L59.2309 257.176L68.1497 258.382L68.8019 253.561L59.8831 252.354ZM59.2309 257.176L50.5466 254.813L49.2048 259.745L57.8891 262.108L66.5734 264.47L67.9153 259.538L59.2309 257.176ZM57.8891 262.108L51.0856 267.999L54.7095 272.184L61.513 266.292L68.3166 260.401L64.6927 256.216L57.8891 262.108ZM61.513 266.292L52.5836 265.168L51.9746 270.002L60.904 271.127L69.8335 272.252L70.4424 267.417L61.513 266.292ZM60.904 271.127L52.9904 275.414L55.3534 279.776L63.267 275.489L71.1806 271.203L68.8176 266.84L60.904 271.127ZM63.267 275.489L54.3537 276.736L55.0007 281.361L63.9139 280.115L72.8272 278.868L72.1802 274.243L63.267 275.489ZM63.9139 280.115L55.1536 278.051L53.9895 282.994L62.7498 285.057L71.5101 287.121L72.6743 282.178L63.9139 280.115ZM62.7498 285.057L55.046 289.711L57.6481 294.019L65.3519 289.366L73.0557 284.712L70.4536 280.404L62.7498 285.057ZM65.3519 289.366L56.3519 289.368L56.3534 294.112L65.3534 294.11L74.3534 294.107L74.3519 289.363L65.3519 289.366ZM65.3534 294.11L56.4273 295.261L57.0267 299.909L65.9528 298.758L74.8789 297.607L74.2795 292.959L65.3534 294.11ZM65.9528 298.758L56.9542 298.914L57.0365 303.655L66.0351 303.499L75.0338 303.342L74.9515 298.601L65.9528 298.758ZM66.0351 303.499L57.0498 304.013L57.3187 308.713L66.304 308.199L75.2893 307.685L75.0204 302.985L66.0351 303.499ZM66.304 308.199L57.4495 309.811L58.2872 314.413L67.1418 312.801L75.9963 311.19L75.1585 306.588L66.304 308.199ZM67.1418 312.801L58.478 315.239L59.7536 319.773L68.4173 317.336L77.0811 314.899L75.8055 310.364L67.1418 312.801ZM68.4173 317.336L60.3386 321.303L62.4818 325.668L70.5605 321.701L78.6391 317.734L76.496 313.369L68.4173 317.336ZM70.5605 321.701L61.5708 322.132L61.7971 326.853L70.7868 326.422L79.7765 325.991L79.5501 321.27L70.5605 321.701ZM70.7868 326.422L62.1661 329.008L63.5138 333.501L72.1344 330.916L80.7551 328.331L79.4075 323.837L70.7868 326.422ZM72.1344 330.916L63.1359 330.754L63.049 335.58L72.0475 335.742L81.046 335.904L81.133 331.078L72.1344 330.916ZM72.0475 335.742L64.1537 340.065L66.4689 344.292L74.3627 339.969L82.2565 335.647L79.9413 331.419L72.0475 335.742ZM74.3627 339.969L65.5928 341.991L65.996 343.74L74.7659 341.718L83.5358 339.696L83.1326 337.947L74.3627 339.969Z" fill="black"/>
<path d="M9 255.878C4.02944 255.878 0 259.907 0 264.878C0 269.848 4.02944 273.878 9 273.878V264.878V255.878ZM9.1 264.878V273.878H10.4225L11.689 273.497L9.1 264.878ZM13.68 263.502L12.5883 254.569L11.8262 254.662L11.091 254.883L13.68 263.502ZM18.36 262.93L19.8054 254.047L18.5404 253.841L17.2683 253.997L18.36 262.93ZM23.04 263.692L21.5946 272.575L22.3378 272.696L23.0906 272.692L23.04 263.692ZM27.72 263.665L27.7706 272.665L28.2493 272.663L28.7251 272.609L27.72 263.665ZM32.4 263.14L35.3984 254.654L33.4493 253.965L31.3949 254.196L32.4 263.14ZM37.08 264.793L34.0816 273.279L34.7264 273.507L35.3984 273.635L37.08 264.793ZM41.76 265.683L40.0784 274.525L41.194 274.737L42.3273 274.665L41.76 265.683ZM46.44 265.388L47.0073 274.37L47.627 274.331L48.2355 274.207L46.44 265.388ZM51.12 264.435L51.2903 255.437L50.2975 255.418L49.3245 255.616L51.12 264.435ZM55.8 264.523L57.7203 255.731L56.8554 255.542L55.9703 255.525L55.8 264.523ZM60.48 265.546L58.5597 274.338L60.5505 274.773L62.5344 274.308L60.48 265.546ZM65.16 264.448L68.2008 255.978L65.6963 255.078L63.1056 255.686L65.16 264.448ZM69.84 266.128L66.7992 274.599L68.976 275.38L71.2599 275.016L69.84 266.128ZM74.52 265.381L75.7894 256.471L74.443 256.279L73.1001 256.493L74.52 265.381ZM79.2 266.047L77.9306 274.957L79.0073 275.111L80.0895 275.003L79.2 266.047ZM83.7737 265.593L84.6632 274.549L92.7737 273.744V265.593H83.7737ZM92.7737 264.878C92.7737 259.907 88.7443 255.878 83.7737 255.878C78.8031 255.878 74.7737 259.907 74.7737 264.878H83.7737H92.7737ZM9 264.878V273.878H9.1V264.878V255.878H9V264.878ZM9.1 264.878L11.689 273.497L16.269 272.122L13.68 263.502L11.091 254.883L6.51097 256.258L9.1 264.878ZM13.68 263.502L14.7717 272.436L19.4517 271.864L18.36 262.93L17.2683 253.997L12.5883 254.569L13.68 263.502ZM18.36 262.93L16.9146 271.814L21.5946 272.575L23.04 263.692L24.4854 254.809L19.8054 254.047L18.36 262.93ZM23.04 263.692L23.0906 272.692L27.7706 272.665L27.72 263.665L27.6694 254.666L22.9894 254.692L23.04 263.692ZM27.72 263.665L28.7251 272.609L33.4051 272.083L32.4 263.14L31.3949 254.196L26.7149 254.722L27.72 263.665ZM32.4 263.14L29.4016 271.625L34.0816 273.279L37.08 264.793L40.0784 256.307L35.3984 254.654L32.4 263.14ZM37.08 264.793L35.3984 273.635L40.0784 274.525L41.76 265.683L43.4416 256.842L38.7616 255.952L37.08 264.793ZM41.76 265.683L42.3273 274.665L47.0073 274.37L46.44 265.388L45.8727 256.406L41.1927 256.701L41.76 265.683ZM46.44 265.388L48.2355 274.207L52.9155 273.254L51.12 264.435L49.3245 255.616L44.6445 256.569L46.44 265.388ZM51.12 264.435L50.9497 273.433L55.6297 273.522L55.8 264.523L55.9703 255.525L51.2903 255.437L51.12 264.435ZM55.8 264.523L53.8797 273.316L58.5597 274.338L60.48 265.546L62.4003 256.753L57.7203 255.731L55.8 264.523ZM60.48 265.546L62.5344 274.308L67.2144 273.211L65.16 264.448L63.1056 255.686L58.4256 256.783L60.48 265.546ZM65.16 264.448L62.1192 272.919L66.7992 274.599L69.84 266.128L72.8808 257.658L68.2008 255.978L65.16 264.448ZM69.84 266.128L71.2599 275.016L75.9399 274.268L74.52 265.381L73.1001 256.493L68.4201 257.241L69.84 266.128ZM74.52 265.381L73.2506 274.291L77.9306 274.957L79.2 266.047L80.4694 257.137L75.7894 256.471L74.52 265.381ZM79.2 266.047L80.0895 275.003L84.6632 274.549L83.7737 265.593L82.8842 256.637L78.3105 257.091L79.2 266.047ZM83.7737 265.593H92.7737V264.878H83.7737H74.7737V265.593H83.7737Z" fill="black"/>
<path d="M127.372 247.504C126.341 252.367 129.448 257.144 134.31 258.175C139.173 259.205 143.95 256.099 144.981 251.236L136.176 249.37L127.372 247.504ZM136.197 249.272L135.685 240.287L128.819 240.678L127.393 247.406L136.197 249.272ZM140.912 249.004L141.423 257.989L144.657 257.805L147.032 255.602L140.912 249.004ZM144.673 245.515L141.596 237.057L139.886 237.679L138.552 238.916L144.673 245.515ZM148.872 243.987L151.949 252.445L153.488 251.885L154.732 250.818L148.872 243.987ZM152.038 241.271L157.898 248.102L158.276 247.778L158.615 247.414L152.038 241.271ZM154.995 238.106L161.572 244.249L162.12 243.663L162.555 242.988L154.995 238.106ZM157.554 234.143L165.115 239.025L167.074 235.992L166.393 232.446L157.554 234.143ZM156.634 229.349L149.063 224.483L147.117 227.511L147.795 231.046L156.634 229.349ZM159.564 224.791L167.135 229.657L168.914 226.888L168.488 223.625L159.564 224.791ZM158.946 220.06L149.998 219.09L149.882 220.16L150.022 221.226L158.946 220.06ZM159.467 215.251L168.415 216.221L168.894 211.803L165.677 208.736L159.467 215.251ZM155.101 211.089L146.101 211.159L146.131 214.973L148.892 217.604L155.101 211.089ZM155.065 206.359L146.414 203.875L146.055 205.126L146.065 206.429L155.065 206.359ZM156.495 201.377L165.146 203.861L167.005 197.386L161.316 193.777L156.495 201.377ZM152.326 198.733L144.978 203.929L146.005 205.381L147.506 206.333L152.326 198.733ZM149.602 194.88L156.95 189.684L155.161 187.154L152.195 186.262L149.602 194.88ZM144.899 193.466L147.492 184.847L144.043 183.81L140.831 185.438L144.899 193.466ZM140.502 195.694L136.433 187.667L135.931 187.921L135.465 188.236L140.502 195.694ZM136.746 198.23L139.017 206.939L140.507 206.551L141.783 205.689L136.746 198.23ZM131.569 199.58L129.298 190.872L126.107 191.704L124.209 194.401L131.569 199.58ZM128.72 203.63L121.359 198.451L121.297 198.539L121.237 198.63L128.72 203.63ZM125.982 207.727L118.499 202.727L116.151 206.241L117.355 210.292L125.982 207.727ZM127.683 213.449L135.102 218.544L137.535 215.002L136.31 210.883L127.683 213.449ZM124.944 217.437L117.525 212.342L117.159 212.876L116.873 213.456L124.944 217.437ZM122.803 221.779L114.731 217.798L113.628 220.034L113.833 222.519L122.803 221.779ZM123.201 226.606L132.184 226.061L132.178 225.964L132.17 225.867L123.201 226.606ZM123.487 231.333L131.248 235.891L132.637 233.526L132.471 230.788L123.487 231.333ZM120.865 235.799L113.104 231.241L110.901 234.993L112.473 239.05L120.865 235.799ZM122.729 240.611L131.656 239.469L131.517 238.382L131.121 237.36L122.729 240.611ZM123.328 245.293L132.318 245.715L132.355 244.931L132.255 244.151L123.328 245.293ZM123.109 249.94L132.098 250.386L132.099 250.374L132.099 250.362L123.109 249.94ZM122.878 254.601L130.088 259.987L131.731 257.788L131.867 255.047L122.878 254.601ZM119.383 259.279L112.173 253.892L108.496 258.814L111.741 264.032L119.383 259.279ZM122.244 263.878L131.23 263.378L131.102 261.08L129.886 259.126L122.244 263.878ZM122.502 268.522L131.48 269.157L131.52 268.589L131.489 268.021L122.502 268.522ZM122.142 273.618L113.164 272.983L112.811 277.971L116.86 280.905L122.142 273.618ZM126.553 276.816L135.524 276.093L135.191 271.962L131.835 269.529L126.553 276.816ZM126.969 281.983L117.998 282.706L118.326 286.781L121.611 289.215L126.969 281.983ZM130.963 284.943L139.207 281.332L138.246 279.138L136.321 277.711L130.963 284.943ZM132.938 289.454L124.694 293.064L126.638 297.504L131.415 298.324L132.938 289.454ZM138.193 290.356L144.814 284.26L142.738 282.005L139.716 281.486L138.193 290.356ZM141.389 293.828L134.768 299.924L135.476 300.693L136.342 301.279L141.389 293.828ZM145.296 296.474L140.249 303.926L140.811 304.306L141.424 304.598L145.296 296.474ZM149.548 298.501L145.676 306.625L147.43 307.461L149.372 307.499L149.548 298.501ZM154.466 298.597L161.293 292.733L158.669 289.678L154.642 289.599L154.466 298.597ZM158.07 302.793L151.243 308.657L155.681 313.824L161.859 310.957L158.07 302.793ZM163.5 300.273L166.863 291.925L163.247 290.468L159.711 292.109L163.5 300.273ZM167.846 302.024L164.483 310.372L165.09 310.617L165.726 310.771L167.846 302.024ZM172.481 303.147L170.362 311.894L171.975 312.285L173.621 312.075L172.481 303.147ZM177.158 302.55L178.297 311.478L179.98 311.263L181.468 310.451L177.158 302.55ZM181.358 300.259L177.819 291.984L177.424 292.152L177.048 292.358L181.358 300.259ZM185.493 298.49L185.632 289.491L183.716 289.461L181.954 290.215L185.493 298.49ZM191.149 298.577L191.01 307.575L198.161 307.685L199.884 300.744L191.149 298.577ZM192.49 293.171L183.956 290.313L183.842 290.654L183.755 291.003L192.49 293.171ZM193.966 288.764L202.5 291.622L202.514 291.579L202.528 291.536L193.966 288.764ZM195.392 284.359L203.954 287.131L204.331 285.966L204.383 284.742L195.392 284.359ZM195.591 279.678L188 274.844L186.701 276.882L186.599 279.296L195.591 279.678ZM198.327 275.382L205.918 280.216L207.901 277.103L207.127 273.495L198.327 275.382ZM197.297 270.577L189.511 266.062L187.769 269.068L188.497 272.464L197.297 270.577ZM198.878 267.85L206.664 272.365L213.899 259.889L199.512 258.873L198.878 267.85ZM198.895 258.829C193.937 258.479 189.634 262.214 189.284 267.172C188.933 272.131 192.669 276.434 197.627 276.784L198.261 267.807L198.895 258.829ZM136.176 249.37L144.981 251.236L145.001 251.139L136.197 249.272L127.393 247.406L127.372 247.504L136.176 249.37ZM136.197 249.272L136.709 258.258L141.423 257.989L140.912 249.004L140.4 240.018L135.685 240.287L136.197 249.272ZM140.912 249.004L147.032 255.602L150.794 252.113L144.673 245.515L138.552 238.916L134.791 242.406L140.912 249.004ZM144.673 245.515L147.75 253.972L151.949 252.445L148.872 243.987L145.795 235.529L141.596 237.057L144.673 245.515ZM148.872 243.987L154.732 250.818L157.898 248.102L152.038 241.271L146.178 234.44L143.012 237.156L148.872 243.987ZM152.038 241.271L158.615 247.414L161.572 244.249L154.995 238.106L148.417 231.963L145.461 235.128L152.038 241.271ZM154.995 238.106L162.555 242.988L165.115 239.025L157.554 234.143L149.994 229.26L147.434 233.223L154.995 238.106ZM157.554 234.143L166.393 232.446L165.472 227.652L156.634 229.349L147.795 231.046L148.716 235.839L157.554 234.143ZM156.634 229.349L164.205 234.215L167.135 229.657L159.564 224.791L151.993 219.924L149.063 224.483L156.634 229.349ZM159.564 224.791L168.488 223.625L167.87 218.894L158.946 220.06L150.022 221.226L150.64 225.957L159.564 224.791ZM158.946 220.06L167.893 221.031L168.415 216.221L159.467 215.251L150.52 214.281L149.998 219.09L158.946 220.06ZM159.467 215.251L165.677 208.736L161.311 204.575L155.101 211.089L148.892 217.604L153.258 221.766L159.467 215.251ZM155.101 211.089L164.101 211.02L164.064 206.289L155.065 206.359L146.065 206.429L146.101 211.159L155.101 211.089ZM155.065 206.359L163.715 208.843L165.146 203.861L156.495 201.377L147.845 198.893L146.414 203.875L155.065 206.359ZM156.495 201.377L161.316 193.777L157.147 191.133L152.326 198.733L147.506 206.333L151.674 208.977L156.495 201.377ZM152.326 198.733L159.675 193.536L156.95 189.684L149.602 194.88L142.254 200.077L144.978 203.929L152.326 198.733ZM149.602 194.88L152.195 186.262L147.492 184.847L144.899 193.466L142.307 202.084L147.009 203.499L149.602 194.88ZM144.899 193.466L140.831 185.438L136.433 187.667L140.502 195.694L144.57 203.722L148.968 201.493L144.899 193.466ZM140.502 195.694L135.465 188.236L131.709 190.772L136.746 198.23L141.783 205.689L145.538 203.153L140.502 195.694ZM136.746 198.23L134.475 189.522L129.298 190.872L131.569 199.58L133.84 208.289L139.017 206.939L136.746 198.23ZM131.569 199.58L124.209 194.401L121.359 198.451L128.72 203.63L136.08 208.809L138.93 204.76L131.569 199.58ZM128.72 203.63L121.237 198.63L118.499 202.727L125.982 207.727L133.465 212.728L136.203 208.63L128.72 203.63ZM125.982 207.727L117.355 210.292L119.057 216.014L127.683 213.449L136.31 210.883L134.609 205.162L125.982 207.727ZM127.683 213.449L120.264 208.354L117.525 212.342L124.944 217.437L132.363 222.532L135.102 218.544L127.683 213.449ZM124.944 217.437L116.873 213.456L114.731 217.798L122.803 221.779L130.874 225.76L133.016 221.419L124.944 217.437ZM122.803 221.779L113.833 222.519L114.231 227.346L123.201 226.606L132.17 225.867L131.772 221.04L122.803 221.779ZM123.201 226.606L114.217 227.151L114.504 231.878L123.487 231.333L132.471 230.788L132.184 226.061L123.201 226.606ZM123.487 231.333L115.727 226.776L113.104 231.241L120.865 235.799L128.626 240.356L131.248 235.891L123.487 231.333ZM120.865 235.799L112.473 239.05L114.337 243.862L122.729 240.611L131.121 237.36L129.257 232.548L120.865 235.799ZM122.729 240.611L113.802 241.753L114.401 246.434L123.328 245.293L132.255 244.151L131.656 239.469L122.729 240.611ZM123.328 245.293L114.338 244.87L114.119 249.517L123.109 249.94L132.099 250.362L132.318 245.715L123.328 245.293ZM123.109 249.94L114.12 249.494L113.889 254.155L122.878 254.601L131.867 255.047L132.098 250.386L123.109 249.94ZM122.878 254.601L115.668 249.214L112.173 253.892L119.383 259.279L126.593 264.665L130.088 259.987L122.878 254.601ZM119.383 259.279L111.741 264.032L114.601 268.631L122.244 263.878L129.886 259.126L127.026 254.526L119.383 259.279ZM122.244 263.878L113.258 264.379L113.516 269.022L122.502 268.522L131.489 268.021L131.23 263.378L122.244 263.878ZM122.502 268.522L113.525 267.886L113.164 272.983L122.142 273.618L131.119 274.254L131.48 269.157L122.502 268.522ZM122.142 273.618L116.86 280.905L121.271 284.103L126.553 276.816L131.835 269.529L127.424 266.331L122.142 273.618ZM126.553 276.816L117.582 277.538L117.998 282.706L126.969 281.983L135.94 281.261L135.524 276.093L126.553 276.816ZM126.969 281.983L121.611 289.215L125.605 292.174L130.963 284.943L136.321 277.711L132.326 274.752L126.969 281.983ZM130.963 284.943L122.719 288.553L124.694 293.064L132.938 289.454L141.183 285.844L139.207 281.332L130.963 284.943ZM132.938 289.454L131.415 298.324L136.669 299.226L138.193 290.356L139.716 281.486L134.462 280.584L132.938 289.454ZM138.193 290.356L131.572 296.452L134.768 299.924L141.389 293.828L148.01 287.732L144.814 284.26L138.193 290.356ZM141.389 293.828L136.342 301.279L140.249 303.926L145.296 296.474L150.343 289.022L146.436 286.376L141.389 293.828ZM145.296 296.474L141.424 304.598L145.676 306.625L149.548 298.501L153.421 290.377L149.169 288.35L145.296 296.474ZM149.548 298.501L149.372 307.499L154.29 307.596L154.466 298.597L154.642 289.599L149.725 289.503L149.548 298.501ZM154.466 298.597L147.639 304.462L151.243 308.657L158.07 302.793L164.897 296.928L161.293 292.733L154.466 298.597ZM158.07 302.793L161.859 310.957L167.288 308.437L163.5 300.273L159.711 292.109L154.281 294.629L158.07 302.793ZM163.5 300.273L160.137 308.621L164.483 310.372L167.846 302.024L171.209 293.676L166.863 291.925L163.5 300.273ZM167.846 302.024L165.726 310.771L170.362 311.894L172.481 303.147L174.601 294.4L169.965 293.277L167.846 302.024ZM172.481 303.147L173.621 312.075L178.297 311.478L177.158 302.55L176.018 293.623L171.342 294.22L172.481 303.147ZM177.158 302.55L181.468 310.451L185.668 308.159L181.358 300.259L177.048 292.358L172.848 294.649L177.158 302.55ZM181.358 300.259L184.898 308.533L189.033 306.764L185.493 298.49L181.954 290.215L177.819 291.984L181.358 300.259ZM185.493 298.49L185.355 307.489L191.01 307.575L191.149 298.577L191.287 289.578L185.632 289.491L185.493 298.49ZM191.149 298.577L199.884 300.744L201.225 295.338L192.49 293.171L183.755 291.003L182.413 296.409L191.149 298.577ZM192.49 293.171L201.024 296.028L202.5 291.622L193.966 288.764L185.431 285.906L183.956 290.313L192.49 293.171ZM193.966 288.764L202.528 291.536L203.954 287.131L195.392 284.359L186.829 281.587L185.403 285.992L193.966 288.764ZM195.392 284.359L204.383 284.742L204.583 280.061L195.591 279.678L186.599 279.296L186.4 283.977L195.392 284.359ZM195.591 279.678L203.182 284.513L205.918 280.216L198.327 275.382L190.736 270.547L188 274.844L195.591 279.678ZM198.327 275.382L207.127 273.495L206.097 268.69L197.297 270.577L188.497 272.464L189.527 277.269L198.327 275.382ZM197.297 270.577L205.083 275.092L206.664 272.365L198.878 267.85L191.093 263.335L189.511 266.062L197.297 270.577ZM198.878 267.85L199.512 258.873L198.895 258.829L198.261 267.807L197.627 276.784L198.244 276.828L198.878 267.85Z" fill="black"/>
<path d="M203.237 200.325C200.342 204.365 201.27 209.988 205.31 212.883C209.351 215.778 214.973 214.85 217.868 210.809L210.552 205.567L203.237 200.325ZM210.611 205.486L209.246 196.59L205.501 197.164L203.295 200.244L210.611 205.486ZM215.195 204.782L218.398 196.372L216.178 195.526L213.831 195.887L215.195 204.782ZM220.011 206.616L216.808 215.027L219.935 216.218L223.081 215.077L220.011 206.616ZM224.583 204.958L222.305 196.251L221.904 196.356L221.513 196.497L224.583 204.958ZM229.121 203.77L231.399 212.477L232.739 212.127L233.912 211.389L229.121 203.77ZM233.019 201.319L237.81 208.938L239.271 208.019L240.289 206.625L233.019 201.319ZM235.717 197.622L242.987 202.928L243.643 202.029L244.06 200.998L235.717 197.622ZM237.424 193.403L245.767 196.779L245.863 196.543L245.945 196.302L237.424 193.403ZM238.88 189.125L233.172 182.166L231.186 183.795L230.359 186.226L238.88 189.125ZM243.22 185.564L248.928 192.523L254.147 188.242L251.499 182.033L243.22 185.564ZM240.941 180.222L232.215 178.018L231.472 180.961L232.663 183.753L240.941 180.222ZM242.073 175.74L235.53 169.56L233.92 171.264L233.347 173.537L242.073 175.74ZM245.966 171.618L252.509 177.798L255.376 174.763L254.91 170.613L245.966 171.618ZM245.425 166.805L236.431 166.495L236.408 167.155L236.482 167.81L245.425 166.805ZM245.587 162.109L236.595 161.733L236.593 161.766L236.592 161.8L245.587 162.109ZM245.783 157.423L237.005 155.434L236.825 156.231L236.791 157.047L245.783 157.423ZM246.825 152.822L255.603 154.811L256.214 152.112L255.204 149.537L246.825 152.822ZM244.991 148.143L235.993 147.946L235.953 149.749L236.612 151.429L244.991 148.143ZM245.09 143.643L236.53 140.861L236.121 142.121L236.092 143.445L245.09 143.643ZM246.747 138.543L255.307 141.325L257.072 135.894L252.91 131.984L246.747 138.543ZM242.955 134.979L234.356 137.636L235.059 139.909L236.792 141.538L242.955 134.979ZM241.55 130.43L250.148 127.773L249.065 124.266L245.837 122.517L241.55 130.43ZM237.492 128.231L241.78 120.318L241.515 120.175L241.241 120.049L237.492 128.231ZM232.816 126.089L236.566 117.907L232.647 116.111L228.792 118.039L232.816 126.089ZM228.329 128.333L224.304 120.283L223.735 120.567L223.211 120.929L228.329 128.333ZM224.393 131.053L228.364 139.13L228.962 138.836L229.51 138.457L224.393 131.053ZM220.259 133.086L222.265 141.86L223.288 141.626L224.23 141.162L220.259 133.086ZM215.492 134.176L213.486 125.402L212.445 125.64L211.488 126.116L215.492 134.176ZM210.942 136.436L206.938 128.376L204.479 129.597L203.121 131.983L210.942 136.436ZM208.477 140.766L200.656 136.314L199.676 138.034L199.509 140.008L208.477 140.766ZM208.048 145.849L214.611 152.007L216.752 149.725L217.016 146.607L208.048 145.849ZM204.568 149.557L198.005 143.399L196.968 144.504L196.35 145.889L204.568 149.557ZM202.589 153.991L194.37 150.323L192.785 153.874L194.285 157.462L202.589 153.991ZM204.78 159.235L213.394 161.844L214.331 158.748L213.084 155.764L204.78 159.235ZM203.422 163.719L211.554 167.574L211.841 166.969L212.035 166.329L203.422 163.719ZM201.306 168.183L193.174 164.328L192.349 166.068L192.308 167.993L201.306 168.183ZM201.207 172.892L192.209 172.702L192.188 173.695L192.384 174.669L201.207 172.892ZM202.168 177.662L210.984 179.47L211.352 177.678L210.991 175.884L202.168 177.662ZM201.221 182.281L209.63 185.488L209.89 184.805L210.037 184.089L201.221 182.281ZM199.459 186.901L191.05 183.694L190.489 185.163L190.46 186.736L199.459 186.901ZM199.373 191.582L190.375 191.417L190.341 193.269L191.041 194.983L199.373 191.582ZM201.313 196.332L210.26 197.302L210.505 195.038L209.645 192.931L201.313 196.332ZM200.806 201.007L208.941 204.856L209.59 203.485L209.754 201.977L200.806 201.007ZM198.6 205.669L190.465 201.82L189.584 203.682L189.6 205.742L198.6 205.669ZM198.64 210.523L189.64 210.596L189.661 213.162L191.032 215.332L198.64 210.523ZM201.441 214.955L210.361 213.755L210.099 211.807L209.049 210.146L201.441 214.955ZM202.067 219.61L193.147 220.809L193.395 222.653L194.354 224.248L202.067 219.61ZM204.522 223.693L213.367 222.032L213.069 220.442L212.235 219.056L204.522 223.693ZM205.403 228.384L196.558 230.045L196.791 231.286L197.356 232.415L205.403 228.384ZM207.509 232.587L199.463 236.619L199.471 236.637L199.481 236.654L207.509 232.587ZM209.645 236.803L201.617 240.871L202.902 243.408L205.412 244.746L209.645 236.803ZM214.281 239.274L223.279 239.067L223.157 233.807L218.514 231.332L214.281 239.274ZM214.413 244.989L205.415 245.197L205.508 249.211L208.557 251.824L214.413 244.989ZM218.08 248.132L225.831 243.557L225.071 242.27L223.936 241.298L218.08 248.132ZM220.604 252.408L212.853 256.982L214.672 260.063L218.109 261.055L220.604 252.408ZM225.593 253.847L230.826 246.525L229.571 245.628L228.088 245.2L225.593 253.847ZM229.386 256.559L235.531 249.983L235.1 249.58L234.62 249.237L229.386 256.559ZM232.91 259.851L226.766 266.428L228.63 268.169L231.131 268.674L232.91 259.851ZM237.682 260.814L241.406 252.621L240.47 252.195L239.462 251.992L237.682 260.814ZM241.927 262.743L238.203 270.937L239.309 271.44L240.51 271.631L241.927 262.743ZM246.604 263.489L251.572 255.985L249.946 254.908L248.021 254.601L246.604 263.489ZM250.637 266.159L245.669 273.664L246.048 273.915L246.452 274.127L250.637 266.159ZM254.908 268.403L250.723 276.37L252.955 277.543L255.471 277.385L254.908 268.403ZM259.797 268.097L260.36 277.079L263.428 276.887L265.738 274.857L259.797 268.097ZM263.291 265.026L269.232 271.787L269.539 271.518L269.82 271.221L263.291 265.026ZM266.337 261.816L272.866 268.011L273.852 266.972L274.467 265.678L266.337 261.816ZM268.26 257.768L276.39 261.63L276.463 261.477L276.529 261.321L268.26 257.768ZM270.166 253.334L278.435 256.887L278.717 256.229L278.892 255.535L270.166 253.334ZM271.334 248.699L280.061 250.9L281.13 246.663L278.462 243.203L271.334 248.699ZM277.079 241.41C274.043 237.473 268.392 236.743 264.456 239.778C260.519 242.813 259.789 248.465 262.824 252.401L269.951 246.905L277.079 241.41ZM210.552 205.567L217.868 210.809L217.926 210.728L210.611 205.486L203.295 200.244L203.237 200.325L210.552 205.567ZM210.611 205.486L211.975 214.382L216.56 213.678L215.195 204.782L213.831 195.887L209.246 196.59L210.611 205.486ZM215.195 204.782L211.993 213.193L216.808 215.027L220.011 206.616L223.214 198.205L218.398 196.372L215.195 204.782ZM220.011 206.616L223.081 215.077L227.652 213.418L224.583 204.958L221.513 196.497L216.942 198.156L220.011 206.616ZM224.583 204.958L226.861 213.665L231.399 212.477L229.121 203.77L226.843 195.063L222.305 196.251L224.583 204.958ZM229.121 203.77L233.912 211.389L237.81 208.938L233.019 201.319L228.228 193.7L224.33 196.152L229.121 203.77ZM233.019 201.319L240.289 206.625L242.987 202.928L235.717 197.622L228.447 192.317L225.749 196.014L233.019 201.319ZM235.717 197.622L244.06 200.998L245.767 196.779L237.424 193.403L229.081 190.028L227.374 194.247L235.717 197.622ZM237.424 193.403L245.945 196.302L247.4 192.023L238.88 189.125L230.359 186.226L228.904 190.505L237.424 193.403ZM238.88 189.125L244.587 196.083L248.928 192.523L243.22 185.564L237.513 178.606L233.172 182.166L238.88 189.125ZM243.22 185.564L251.499 182.033L249.219 176.69L240.941 180.222L232.663 183.753L234.942 189.096L243.22 185.564ZM240.941 180.222L249.667 182.425L250.799 177.944L242.073 175.74L233.347 173.537L232.215 178.018L240.941 180.222ZM242.073 175.74L248.615 181.92L252.509 177.798L245.966 171.618L239.424 165.438L235.53 169.56L242.073 175.74ZM245.966 171.618L254.91 170.613L254.369 165.8L245.425 166.805L236.482 167.81L237.023 172.624L245.966 171.618ZM245.425 166.805L254.42 167.114L254.582 162.418L245.587 162.109L236.592 161.8L236.431 166.495L245.425 166.805ZM245.587 162.109L254.579 162.485L254.775 157.799L245.783 157.423L236.791 157.047L236.595 161.733L245.587 162.109ZM245.783 157.423L254.56 159.412L255.603 154.811L246.825 152.822L238.048 150.834L237.005 155.434L245.783 157.423ZM246.825 152.822L255.204 149.537L253.369 144.858L244.991 148.143L236.612 151.429L238.447 156.108L246.825 152.822ZM244.991 148.143L253.988 148.341L254.087 143.841L245.09 143.643L236.092 143.445L235.993 147.946L244.991 148.143ZM245.09 143.643L253.649 146.425L255.307 141.325L246.747 138.543L238.188 135.76L236.53 140.861L245.09 143.643ZM246.747 138.543L252.91 131.984L249.118 128.42L242.955 134.979L236.792 141.538L240.585 145.102L246.747 138.543ZM242.955 134.979L251.554 132.323L250.148 127.773L241.55 130.43L232.951 133.086L234.356 137.636L242.955 134.979ZM241.55 130.43L245.837 122.517L241.78 120.318L237.492 128.231L233.204 136.144L237.262 138.343L241.55 130.43ZM237.492 128.231L241.241 120.049L236.566 117.907L232.816 126.089L229.067 134.271L233.743 136.413L237.492 128.231ZM232.816 126.089L228.792 118.039L224.304 120.283L228.329 128.333L232.354 136.382L236.841 134.139L232.816 126.089ZM228.329 128.333L223.211 120.929L219.275 123.65L224.393 131.053L229.51 138.457L233.446 135.736L228.329 128.333ZM224.393 131.053L220.422 122.977L216.288 125.009L220.259 133.086L224.23 141.162L228.364 139.13L224.393 131.053ZM220.259 133.086L218.253 124.312L213.486 125.402L215.492 134.176L217.498 142.949L222.265 141.86L220.259 133.086ZM215.492 134.176L211.488 126.116L206.938 128.376L210.942 136.436L214.946 144.496L219.496 142.236L215.492 134.176ZM210.942 136.436L203.121 131.983L200.656 136.314L208.477 140.766L216.299 145.218L218.764 140.888L210.942 136.436ZM208.477 140.766L199.509 140.008L199.08 145.091L208.048 145.849L217.016 146.607L217.445 141.524L208.477 140.766ZM208.048 145.849L201.484 139.691L198.005 143.399L204.568 149.557L211.131 155.716L214.611 152.007L208.048 145.849ZM204.568 149.557L196.35 145.889L194.37 150.323L202.589 153.991L210.807 157.66L212.786 153.226L204.568 149.557ZM202.589 153.991L194.285 157.462L196.476 162.705L204.78 159.235L213.084 155.764L210.893 150.521L202.589 153.991ZM204.78 159.235L196.167 156.626L194.808 161.11L203.422 163.719L212.035 166.329L213.394 161.844L204.78 159.235ZM203.422 163.719L195.289 159.865L193.174 164.328L201.306 168.183L209.439 172.037L211.554 167.574L203.422 163.719ZM201.306 168.183L192.308 167.993L192.209 172.702L201.207 172.892L210.205 173.081L210.304 168.372L201.306 168.183ZM201.207 172.892L192.384 174.669L193.345 179.439L202.168 177.662L210.991 175.884L210.03 171.114L201.207 172.892ZM202.168 177.662L193.352 175.853L192.404 180.473L201.221 182.281L210.037 184.089L210.984 179.47L202.168 177.662ZM201.221 182.281L192.811 179.074L191.05 183.694L199.459 186.901L207.868 190.108L209.63 185.488L201.221 182.281ZM199.459 186.901L190.46 186.736L190.375 191.417L199.373 191.582L208.372 191.746L208.457 187.065L199.459 186.901ZM199.373 191.582L191.041 194.983L192.98 199.734L201.313 196.332L209.645 192.931L207.706 188.18L199.373 191.582ZM201.313 196.332L192.365 195.363L191.858 200.037L200.806 201.007L209.754 201.977L210.26 197.302L201.313 196.332ZM200.806 201.007L192.67 197.158L190.465 201.82L198.6 205.669L206.736 209.518L208.941 204.856L200.806 201.007ZM198.6 205.669L189.6 205.742L189.64 210.596L198.64 210.523L207.639 210.45L207.6 205.596L198.6 205.669ZM198.64 210.523L191.032 215.332L193.834 219.764L201.441 214.955L209.049 210.146L206.247 205.714L198.64 210.523ZM201.441 214.955L192.522 216.154L193.147 220.809L202.067 219.61L210.987 218.411L210.361 213.755L201.441 214.955ZM202.067 219.61L194.354 224.248L196.809 228.33L204.522 223.693L212.235 219.056L209.781 214.973L202.067 219.61ZM204.522 223.693L195.677 225.354L196.558 230.045L205.403 228.384L214.248 226.722L213.367 222.032L204.522 223.693ZM205.403 228.384L197.356 232.415L199.463 236.619L207.509 232.587L215.556 228.556L213.449 224.352L205.403 228.384ZM207.509 232.587L199.481 236.654L201.617 240.871L209.645 236.803L217.674 232.736L215.538 228.52L207.509 232.587ZM209.645 236.803L205.412 244.746L210.048 247.217L214.281 239.274L218.514 231.332L213.878 228.861L209.645 236.803ZM214.281 239.274L205.283 239.482L205.415 245.197L214.413 244.989L223.41 244.782L223.279 239.067L214.281 239.274ZM214.413 244.989L208.557 251.824L212.224 254.966L218.08 248.132L223.936 241.298L220.269 238.155L214.413 244.989ZM218.08 248.132L210.33 252.707L212.853 256.982L220.604 252.408L228.355 247.833L225.831 243.557L218.08 248.132ZM220.604 252.408L218.109 261.055L223.098 262.494L225.593 253.847L228.088 245.2L223.099 243.76L220.604 252.408ZM225.593 253.847L220.359 261.169L224.153 263.881L229.386 256.559L234.62 249.237L230.826 246.525L225.593 253.847ZM229.386 256.559L223.242 263.135L226.766 266.428L232.91 259.851L239.055 253.275L235.531 249.983L229.386 256.559ZM232.91 259.851L231.131 268.674L235.902 269.636L237.682 260.814L239.462 251.992L234.69 251.029L232.91 259.851ZM237.682 260.814L233.958 269.007L238.203 270.937L241.927 262.743L245.651 254.55L241.406 252.621L237.682 260.814ZM241.927 262.743L240.51 271.631L245.187 272.377L246.604 263.489L248.021 254.601L243.344 253.856L241.927 262.743ZM246.604 263.489L241.636 270.994L245.669 273.664L250.637 266.159L255.605 258.654L251.572 255.985L246.604 263.489ZM250.637 266.159L246.452 274.127L250.723 276.37L254.908 268.403L259.094 260.435L254.822 258.191L250.637 266.159ZM254.908 268.403L255.471 277.385L260.36 277.079L259.797 268.097L259.235 259.114L254.346 259.42L254.908 268.403ZM259.797 268.097L265.738 274.857L269.232 271.787L263.291 265.026L257.351 258.266L253.857 261.336L259.797 268.097ZM263.291 265.026L269.82 271.221L272.866 268.011L266.337 261.816L259.808 255.621L256.763 258.832L263.291 265.026ZM266.337 261.816L274.467 265.678L276.39 261.63L268.26 257.768L260.131 253.906L258.208 257.954L266.337 261.816ZM268.26 257.768L276.529 261.321L278.435 256.887L270.166 253.334L261.897 249.781L259.992 254.215L268.26 257.768ZM270.166 253.334L278.892 255.535L280.061 250.9L271.334 248.699L262.608 246.499L261.439 251.134L270.166 253.334ZM271.334 248.699L278.462 243.203L277.079 241.41L269.951 246.905L262.824 252.401L264.207 254.195L271.334 248.699Z" fill="black"/>
<path d="M317.538 8.98084C317.527 4.01028 313.489 -0.0105639 308.519 2.00272e-05C303.548 0.0106049 299.527 4.04861 299.538 9.01916L308.538 9L317.538 8.98084ZM308.538 9.1L299.538 9.11916L299.539 9.68044L299.61 10.2372L308.538 9.1ZM309.12 13.6715L317.39 17.224L318.358 14.969L318.048 12.5343L309.12 13.6715ZM307.108 18.3549L298.839 14.8024L296.895 19.3267L299.658 23.4032L307.108 18.3549ZM310.268 23.0176L319.221 23.9306L319.553 20.6769L317.718 17.9692L310.268 23.0176ZM309.789 27.7098L318.405 30.3108L318.655 29.483L318.743 28.6228L309.789 27.7098ZM308.378 32.3832L299.762 29.7821L299.218 31.585L299.442 33.4548L308.378 32.3832ZM308.938 37.0524L317.914 36.3946L317.899 36.1872L317.874 35.9808L308.938 37.0524ZM309.282 41.7478L300.306 42.4056L300.35 43.0007L300.472 43.5848L309.282 41.7478ZM310.256 46.4154L318.812 49.2067L319.556 46.9264L319.066 44.5784L310.256 46.4154ZM308.731 51.0886L300.175 48.2973L299.162 51.4011L300.375 54.4322L308.731 51.0886ZM310.603 55.7656L319.48 57.244L319.894 54.76L318.958 52.422L310.603 55.7656ZM309.822 60.4509L317.604 64.9729L318.43 63.5512L318.7 61.9292L309.822 60.4509ZM307.098 65.1389L299.317 60.617L297.201 64.2573L298.64 68.2142L307.098 65.1389ZM308.799 69.8159L317.792 70.1585L317.859 68.3972L317.257 66.7407L308.799 69.8159ZM308.62 74.4969L317.322 76.7943L317.576 75.833L317.614 74.8394L308.62 74.4969ZM307.384 79.1817L298.682 76.8843L297.84 80.0729L299.257 83.0505L307.384 79.1817ZM309.611 83.86L317.84 87.5036L319.514 83.7237L317.737 79.9913L309.611 83.86ZM307.533 88.5524L299.304 84.9088L298.244 87.3029L298.634 89.892L307.533 88.5524ZM308.239 93.2401L299.339 94.5798L299.419 95.1102L299.561 95.6273L308.239 93.2401ZM309.523 97.9087L318.522 98.0861L318.547 96.7805L318.201 95.5215L309.523 97.9087ZM309.431 102.585L300.433 102.407L300.415 103.311L300.577 104.199L309.431 102.585ZM310.284 107.263L319.102 109.067L319.45 107.361L319.138 105.648L310.284 107.263ZM309.325 111.951L300.508 110.147L300.283 111.247L300.335 112.369L309.325 111.951ZM309.543 116.636L300.553 117.054L300.585 117.757L300.727 118.447L309.543 116.636ZM310.502 121.307L319.176 123.707L319.754 121.619L319.318 119.496L310.502 121.307ZM309.206 125.992L317.514 129.453L317.73 128.934L317.88 128.392L309.206 125.992ZM307.251 130.683L298.943 127.222L296.937 132.037L300.118 136.171L307.251 130.683ZM310.842 135.35L318.426 140.197L321.829 134.871L317.975 129.862L310.842 135.35ZM307.843 140.043L300.259 135.197L297.666 139.255L299.604 143.664L307.843 140.043ZM309.896 144.714L318.869 145.415L319.045 143.162L318.135 141.093L309.896 144.714ZM309.53 149.397L317.684 153.206L318.376 151.726L318.503 150.098L309.53 149.397ZM307.338 154.089L299.184 150.28L297.897 153.035L298.545 156.007L307.338 154.089ZM308.359 158.766L317.341 159.325L317.419 158.073L317.152 156.847L308.359 158.766ZM308.067 163.45L299.084 162.891L298.913 165.641L300.311 168.016L308.067 163.45ZM310.811 168.112L318.831 172.197L321.07 167.8L318.567 163.547L310.811 168.112ZM308.421 172.804L300.402 168.72L299.486 170.517L299.425 172.533L308.421 172.804ZM308.28 177.491L299.284 177.219L299.275 177.504L299.285 177.789L308.28 177.491ZM308.435 182.175L317.326 183.574L317.458 182.73L317.43 181.877L308.435 182.175ZM307.698 186.863L298.807 185.465L298.325 188.528L299.833 191.238L307.698 186.863ZM310.286 191.516L319.282 191.269L319.222 189.066L318.151 187.141L310.286 191.516ZM310.414 196.19L319.216 198.067L319.44 197.017L319.41 195.944L310.414 196.19ZM309.412 200.889L317.725 204.338L318.042 203.574L318.214 202.766L309.412 200.889ZM307.459 205.597L299.146 202.148L297.376 206.413L299.809 210.338L307.459 205.597ZM310.341 210.247L319.333 209.88L319.237 207.516L317.99 205.505L310.341 210.247ZM310.531 214.923L301.539 215.29L301.565 215.941L301.686 216.582L310.531 214.923ZM311.406 219.588L320.394 220.05L320.449 218.982L320.252 217.93L311.406 219.588ZM311.165 224.268L319.897 226.448L320.109 225.601L320.154 224.73L311.165 224.268ZM309.993 228.965L301.261 226.786L300.968 227.959L300.995 229.167L309.993 228.965ZM310.098 233.647L318.272 237.412L319.142 235.524L319.096 233.445L310.098 233.647ZM307.919 238.377L299.744 234.612L298.241 237.875L299.399 241.276L307.919 238.377ZM309.503 243.032L318.484 243.604L318.598 241.822L318.023 240.133L309.503 243.032ZM309.204 247.719L300.222 247.147L300.14 248.436L300.424 249.696L309.204 247.719ZM310.247 252.351L301.466 254.327L301.505 254.502L301.552 254.675L310.247 252.351ZM311.493 257.016L320.186 259.347L320.81 257.02L320.188 254.692L311.493 257.016ZM310.232 261.72L301.539 259.389L301.134 260.902L301.263 262.463L310.232 261.72ZM310.62 266.395L301.65 267.138L301.757 268.423L302.22 269.627L310.62 266.395ZM312.388 270.991L321.332 271.998L321.578 269.812L320.788 267.759L312.388 270.991ZM311.856 275.711L302.913 274.703L302.895 274.864L302.883 275.026L311.856 275.711ZM311.498 280.41L302.524 279.725L302.414 281.162L302.759 282.562L311.498 280.41ZM312.634 285.022L321.18 287.843L321.992 285.384L321.372 282.87L312.634 285.022ZM311.193 289.386L309.976 298.303L317.393 299.316L319.74 292.207L311.193 289.386ZM306.786 288.784L298.133 291.262L299.75 296.907L305.568 297.701L306.786 288.784ZM315.046 284.937C313.677 280.158 308.694 277.394 303.916 278.762C299.137 280.131 296.373 285.114 297.741 289.892L306.394 287.415L315.046 284.937ZM308.538 9L299.538 9.01916L299.538 9.11916L308.538 9.1L317.538 9.08084L317.538 8.98084L308.538 9ZM308.538 9.1L299.61 10.2372L300.192 14.8087L309.12 13.6715L318.048 12.5343L317.466 7.96279L308.538 9.1ZM309.12 13.6715L300.851 10.119L298.839 14.8024L307.108 18.3549L315.378 21.9074L317.39 17.224L309.12 13.6715ZM307.108 18.3549L299.658 23.4032L302.817 28.066L310.268 23.0176L317.718 17.9692L314.559 13.3065L307.108 18.3549ZM310.268 23.0176L301.314 22.1046L300.836 26.7967L309.789 27.7098L318.743 28.6228L319.221 23.9306L310.268 23.0176ZM309.789 27.7098L301.173 25.1087L299.762 29.7821L308.378 32.3832L316.994 34.9842L318.405 30.3108L309.789 27.7098ZM308.378 32.3832L299.442 33.4548L300.002 38.124L308.938 37.0524L317.874 35.9808L317.314 31.3116L308.378 32.3832ZM308.938 37.0524L299.962 37.7102L300.306 42.4056L309.282 41.7478L318.258 41.09L317.914 36.3946L308.938 37.0524ZM309.282 41.7478L300.472 43.5848L301.445 48.2524L310.256 46.4154L319.066 44.5784L318.093 39.9107L309.282 41.7478ZM310.256 46.4154L301.699 43.6241L300.175 48.2973L308.731 51.0886L317.287 53.8799L318.812 49.2067L310.256 46.4154ZM308.731 51.0886L300.375 54.4322L302.247 59.1093L310.603 55.7656L318.958 52.422L317.087 47.745L308.731 51.0886ZM310.603 55.7656L301.725 54.2873L300.945 58.9726L309.822 60.4509L318.7 61.9292L319.48 57.244L310.603 55.7656ZM309.822 60.4509L302.041 55.929L299.317 60.617L307.098 65.1389L314.88 69.6609L317.604 64.9729L309.822 60.4509ZM307.098 65.1389L298.64 68.2142L300.34 72.8912L308.799 69.8159L317.257 66.7407L315.556 62.0637L307.098 65.1389ZM308.799 69.8159L299.805 69.4734L299.627 74.1544L308.62 74.4969L317.614 74.8394L317.792 70.1585L308.799 69.8159ZM308.62 74.4969L299.919 72.1995L298.682 76.8843L307.384 79.1817L316.085 81.4791L317.322 76.7943L308.62 74.4969ZM307.384 79.1817L299.257 83.0505L301.485 87.7288L309.611 83.86L317.737 79.9913L315.51 75.313L307.384 79.1817ZM309.611 83.86L301.381 80.2164L299.304 84.9088L307.533 88.5524L315.763 92.1959L317.84 87.5036L309.611 83.86ZM307.533 88.5524L298.634 89.892L299.339 94.5798L308.239 93.2401L317.139 91.9005L316.433 87.2127L307.533 88.5524ZM308.239 93.2401L299.561 95.6273L300.846 100.296L309.523 97.9087L318.201 95.5215L316.917 90.8529L308.239 93.2401ZM309.523 97.9087L300.525 97.7313L300.433 102.407L309.431 102.585L318.429 102.762L318.522 98.0861L309.523 97.9087ZM309.431 102.585L300.577 104.199L301.43 108.877L310.284 107.263L319.138 105.648L318.285 100.97L309.431 102.585ZM310.284 107.263L301.467 105.459L300.508 110.147L309.325 111.951L318.142 113.755L319.102 109.067L310.284 107.263ZM309.325 111.951L300.335 112.369L300.553 117.054L309.543 116.636L318.533 116.218L318.315 111.533L309.325 111.951ZM309.543 116.636L300.727 118.447L301.686 123.118L310.502 121.307L319.318 119.496L318.359 114.826L309.543 116.636ZM310.502 121.307L301.828 118.906L300.532 123.591L309.206 125.992L317.88 128.392L319.176 123.707L310.502 121.307ZM309.206 125.992L300.898 122.531L298.943 127.222L307.251 130.683L315.559 134.144L317.514 129.453L309.206 125.992ZM307.251 130.683L300.118 136.171L303.709 140.838L310.842 135.35L317.975 129.862L314.384 125.195L307.251 130.683ZM310.842 135.35L303.258 130.504L300.259 135.197L307.843 140.043L315.427 144.889L318.426 140.197L310.842 135.35ZM307.843 140.043L299.604 143.664L301.656 148.335L309.896 144.714L318.135 141.093L316.083 136.422L307.843 140.043ZM309.896 144.714L300.923 144.013L300.557 148.696L309.53 149.397L318.503 150.098L318.869 145.415L309.896 144.714ZM309.53 149.397L301.376 145.588L299.184 150.28L307.338 154.089L315.493 157.898L317.684 153.206L309.53 149.397ZM307.338 154.089L298.545 156.007L299.566 160.684L308.359 158.766L317.152 156.847L316.132 152.17L307.338 154.089ZM308.359 158.766L299.376 158.206L299.084 162.891L308.067 163.45L317.049 164.01L317.341 159.325L308.359 158.766ZM308.067 163.45L300.311 168.016L303.055 172.678L310.811 168.112L318.567 163.547L315.823 158.885L308.067 163.45ZM310.811 168.112L302.791 164.028L300.402 168.72L308.421 172.804L316.441 176.889L318.831 172.197L310.811 168.112ZM308.421 172.804L299.425 172.533L299.284 177.219L308.28 177.491L317.276 177.763L317.417 173.076L308.421 172.804ZM308.28 177.491L299.285 177.789L299.44 182.473L308.435 182.175L317.43 181.877L317.275 177.193L308.28 177.491ZM308.435 182.175L299.544 180.777L298.807 185.465L307.698 186.863L316.588 188.261L317.326 183.574L308.435 182.175ZM307.698 186.863L299.833 191.238L302.421 195.891L310.286 191.516L318.151 187.141L315.563 182.488L307.698 186.863ZM310.286 191.516L301.289 191.762L301.417 196.436L310.414 196.19L319.41 195.944L319.282 191.269L310.286 191.516ZM310.414 196.19L301.612 194.313L300.61 199.012L309.412 200.889L318.214 202.766L319.216 198.067L310.414 196.19ZM309.412 200.889L301.099 197.44L299.146 202.148L307.459 205.597L315.771 209.046L317.725 204.338L309.412 200.889ZM307.459 205.597L299.809 210.338L302.691 214.988L310.341 210.247L317.99 205.505L315.108 200.855L307.459 205.597ZM310.341 210.247L301.348 210.613L301.539 215.29L310.531 214.923L319.524 214.557L319.333 209.88L310.341 210.247ZM310.531 214.923L301.686 216.582L302.56 221.247L311.406 219.588L320.252 217.93L319.377 213.265L310.531 214.923ZM311.406 219.588L302.418 219.126L302.177 223.806L311.165 224.268L320.154 224.73L320.394 220.05L311.406 219.588ZM311.165 224.268L302.433 222.088L301.261 226.786L309.993 228.965L318.725 231.145L319.897 226.448L311.165 224.268ZM309.993 228.965L300.995 229.167L301.1 233.849L310.098 233.647L319.096 233.445L318.991 228.763L309.993 228.965ZM310.098 233.647L301.923 229.882L299.744 234.612L307.919 238.377L316.093 242.143L318.272 237.412L310.098 233.647ZM307.919 238.377L299.399 241.276L300.982 245.931L309.503 243.032L318.023 240.133L316.439 235.478L307.919 238.377ZM309.503 243.032L300.521 242.46L300.222 247.147L309.204 247.719L318.186 248.291L318.484 243.604L309.503 243.032ZM309.204 247.719L300.424 249.696L301.466 254.327L310.247 252.351L319.027 250.375L317.984 245.743L309.204 247.719ZM310.247 252.351L301.552 254.675L302.798 259.34L311.493 257.016L320.188 254.692L318.941 250.027L310.247 252.351ZM311.493 257.016L302.8 254.686L301.539 259.389L310.232 261.72L318.925 264.05L320.186 259.347L311.493 257.016ZM310.232 261.72L301.263 262.463L301.65 267.138L310.62 266.395L319.589 265.652L319.202 260.977L310.232 261.72ZM310.62 266.395L302.22 269.627L303.988 274.223L312.388 270.991L320.788 267.759L319.019 263.163L310.62 266.395ZM312.388 270.991L303.445 269.983L302.913 274.703L311.856 275.711L320.8 276.718L321.332 271.998L312.388 270.991ZM311.856 275.711L302.883 275.026L302.524 279.725L311.498 280.41L320.472 281.095L320.83 276.396L311.856 275.711ZM311.498 280.41L302.759 282.562L303.895 287.174L312.634 285.022L321.372 282.87L320.237 278.258L311.498 280.41ZM312.634 285.022L304.087 282.201L302.647 286.565L311.193 289.386L319.74 292.207L321.18 287.843L312.634 285.022ZM311.193 289.386L312.411 280.469L308.003 279.867L306.786 288.784L305.568 297.701L309.976 298.303L311.193 289.386ZM306.786 288.784L315.438 286.306L315.046 284.937L306.394 287.415L297.741 289.892L298.133 291.262L306.786 288.784Z" fill="black"/>
</svg>
