<svg width="160" height="120" viewBox="0 0 160 120" fill="none" xmlns="http://www.w3.org/2000/svg">
<g filter="url(#filter0_in_58_685)" data-figma-bg-blur-radius="37.5193">
<path d="M0.00577166 12.2815C-0.204704 5.5617 5.18553 0 11.9086 0H50.0267H147.175C153.898 0 159.289 5.56171 159.078 12.2815L156.074 108.195C155.873 114.624 150.603 119.731 144.171 119.731H14.9128C8.48096 119.731 3.21131 114.624 3.00995 108.195L0.00577166 12.2815Z" fill="url(#paint0_linear_58_685)" fill-opacity="0.96"/>
</g>
<defs>
<filter id="filter0_in_58_685" x="-37.5193" y="-37.5193" width="234.123" height="194.769" filterUnits="userSpaceOnUse" color-interpolation-filters="sRGB">
<feFlood flood-opacity="0" result="BackgroundImageFix"/>
<feBlend mode="normal" in="SourceGraphic" in2="BackgroundImageFix" result="shape"/>
<feColorMatrix in="SourceAlpha" type="matrix" values="0 0 0 0 0 0 0 0 0 0 0 0 0 0 0 0 0 0 127 0" result="hardAlpha"/>
<feOffset dy="0.750385"/>
<feGaussianBlur stdDeviation="1.50077"/>
<feComposite in2="hardAlpha" operator="arithmetic" k2="-1" k3="1"/>
<feColorMatrix type="matrix" values="0 0 0 0 1 0 0 0 0 1 0 0 0 0 1 0 0 0 0.25 0"/>
<feBlend mode="normal" in2="shape" result="effect1_innerShadow_58_685"/>
<feTurbulence type="fractalNoise" baseFrequency="1.6658105850219727 1.6658105850219727" stitchTiles="stitch" numOctaves="3" result="noise" seed="4517" />
<feColorMatrix in="noise" type="luminanceToAlpha" result="alphaNoise" />
<feComponentTransfer in="alphaNoise" result="coloredNoise1">
<feFuncA type="discrete" tableValues="0 0 0 0 0 0 0 1 1 1 1 1 1 1 1 1 1 1 1 1 1 1 1 1 1 1 1 1 1 1 1 1 1 1 1 1 1 1 1 1 1 1 0 0 0 0 0 0 0 0 0 0 0 0 0 0 0 0 0 0 0 0 0 0 0 0 0 0 0 0 0 0 0 0 0 0 0 0 0 0 0 0 0 0 0 0 0 0 0 0 0 0 0 0 0 0 0 0 0 0 "/>
</feComponentTransfer>
<feComposite operator="in" in2="effect1_innerShadow_58_685" in="coloredNoise1" result="noise1Clipped" />
<feFlood flood-color="rgba(108, 108, 108, 0.1)" result="color1Flood" />
<feComposite operator="in" in2="noise1Clipped" in="color1Flood" result="color1" />
<feMerge result="effect2_noise_58_685">
<feMergeNode in="effect1_innerShadow_58_685" />
<feMergeNode in="color1" />
</feMerge>
</filter>
<clipPath id="bgblur_0_58_685_clip_path" transform="translate(37.5193 37.5193)"><path d="M0.00577166 12.2815C-0.204704 5.5617 5.18553 0 11.9086 0H50.0267H147.175C153.898 0 159.289 5.56171 159.078 12.2815L156.074 108.195C155.873 114.624 150.603 119.731 144.171 119.731H14.9128C8.48096 119.731 3.21131 114.624 3.00995 108.195L0.00577166 12.2815Z"/>
</clipPath><linearGradient id="paint0_linear_58_685" x1="79.5419" y1="-17.2746" x2="79.5419" y2="139.388" gradientUnits="userSpaceOnUse">
<stop stop-color="#ED9600"/>
<stop offset="0.658352" stop-color="#FF7C01"/>
</linearGradient>
</defs>
</svg>
