<svg width="268" height="320" viewBox="0 0 268 320" fill="none" xmlns="http://www.w3.org/2000/svg">
<rect x="5.63965" width="256" height="320" rx="12" fill="black" fill-opacity="0.01"/>
<rect x="12.041" y="6.39941" width="243.2" height="307.2" rx="19.2" fill="#F0F0F0" fill-opacity="0.9"/>
<path d="M103.989 278.832C103.989 277.723 104.229 276.736 104.709 275.872C105.2 274.997 105.877 274.32 106.741 273.84C107.605 273.349 108.592 273.104 109.701 273.104C111.045 273.104 112.176 273.429 113.093 274.08C114.021 274.731 114.634 275.632 114.933 276.784H111.909C111.706 276.411 111.413 276.128 111.029 275.936C110.656 275.733 110.213 275.632 109.701 275.632C108.816 275.632 108.106 275.925 107.573 276.512C107.04 277.088 106.773 277.861 106.773 278.832C106.773 279.867 107.05 280.677 107.605 281.264C108.17 281.84 108.944 282.128 109.925 282.128C110.597 282.128 111.168 281.957 111.637 281.616C112.106 281.264 112.442 280.768 112.645 280.128H109.173V278.128H115.125V280.672C114.922 281.355 114.576 281.989 114.085 282.576C113.605 283.163 112.992 283.637 112.245 284C111.498 284.363 110.656 284.544 109.717 284.544C108.608 284.544 107.616 284.304 106.741 283.824C105.877 283.333 105.2 282.656 104.709 281.792C104.229 280.928 103.989 279.941 103.989 278.832ZM119.376 277.136C119.696 276.613 120.096 276.203 120.576 275.904C121.067 275.595 121.6 275.44 122.176 275.44V278.336H121.424C120.742 278.336 120.23 278.485 119.888 278.784C119.547 279.072 119.376 279.584 119.376 280.32V284.464H116.64V275.536H119.376V277.136ZM127.548 284.592C126.674 284.592 125.884 284.405 125.18 284.032C124.487 283.659 123.938 283.125 123.532 282.432C123.138 281.739 122.94 280.928 122.94 280C122.94 279.083 123.143 278.277 123.548 277.584C123.954 276.88 124.508 276.341 125.212 275.968C125.916 275.595 126.706 275.408 127.58 275.408C128.455 275.408 129.244 275.595 129.948 275.968C130.652 276.341 131.207 276.88 131.612 277.584C132.018 278.277 132.22 279.083 132.22 280C132.22 280.917 132.012 281.728 131.596 282.432C131.191 283.125 130.631 283.659 129.916 284.032C129.212 284.405 128.423 284.592 127.548 284.592ZM127.548 282.24C128.071 282.24 128.514 282.048 128.876 281.664C129.25 281.269 129.436 280.715 129.436 280C129.436 279.285 129.255 278.736 128.892 278.352C128.54 277.957 128.103 277.76 127.58 277.76C127.047 277.76 126.604 277.952 126.252 278.336C125.9 278.72 125.724 279.275 125.724 280C125.724 280.715 125.895 281.269 126.236 281.664C126.588 282.048 127.026 282.24 127.548 282.24ZM146.488 275.536L144.072 284.464H141.048L139.64 278.672L138.184 284.464H135.176L132.744 275.536H135.48L136.744 281.92L138.248 275.536H141.144L142.664 281.888L143.912 275.536H146.488ZM152.507 282.144V284.464H151.115C150.123 284.464 149.35 284.224 148.795 283.744C148.24 283.253 147.963 282.459 147.963 281.36V277.808H146.875V275.536H147.963V273.36H150.699V275.536H152.491V277.808H150.699V281.392C150.699 281.659 150.763 281.851 150.891 281.968C151.019 282.085 151.232 282.144 151.531 282.144H152.507ZM159.519 275.44C160.543 275.44 161.364 275.781 161.983 276.464C162.602 277.136 162.911 278.064 162.911 279.248V284.464H160.191V279.616C160.191 279.019 160.036 278.555 159.727 278.224C159.418 277.893 159.002 277.728 158.479 277.728C157.956 277.728 157.54 277.893 157.231 278.224C156.922 278.555 156.767 279.019 156.767 279.616V284.464H154.031V272.624H156.767V276.736C157.044 276.341 157.423 276.027 157.903 275.792C158.383 275.557 158.922 275.44 159.519 275.44Z" fill="black"/>
<g filter="url(#filter2_f_86_942)">
<circle cx="133.639" cy="140.539" r="88.8391" fill="url(#paint0_linear_86_942)"/>
</g>
<defs>
<filter id="filter2_f_86_942" x="-0.00019455" y="6.9002" width="267.278" height="267.278" filterUnits="userSpaceOnUse" color-interpolation-filters="sRGB">
<feFlood flood-opacity="0" result="BackgroundImageFix"/>
<feBlend mode="normal" in="SourceGraphic" in2="BackgroundImageFix" result="shape"/>
<feGaussianBlur stdDeviation="22.4" result="effect1_foregroundBlur_86_942"/>
</filter>
<linearGradient id="paint0_linear_86_942" x1="133.639" y1="51.7002" x2="133.639" y2="229.378" gradientUnits="userSpaceOnUse">
<stop stop-color="#29FE53"/>
<stop offset="1" stop-color="#7F8726"/>
</linearGradient>
</defs>
</svg>
