<svg width="470" height="334" viewBox="0 0 470 334" fill="none" xmlns="http://www.w3.org/2000/svg">
<path d="M105.271 80.9458C105.271 80.9911 105.271 81.0363 108.607 99.658C111.942 118.28 118.613 155.476 124.451 182.062C130.289 208.647 135.093 223.495 138.543 233.237C141.993 242.98 143.944 247.167 145.955 251.482" stroke="black" stroke-width="22" stroke-linecap="round"/>
<path d="M178.057 32.8962C177.949 33.0002 177.981 35.8753 187.957 73.8105C197.845 108.924 217.533 176.244 229.794 215.619C242.055 254.995 246.293 264.385 250.853 274.786" stroke="black" stroke-width="22" stroke-linecap="round"/>
<path d="M74.2705 218.303C74.5354 218.303 77.5873 218.113 91.6228 214.983C102.849 212.479 121.979 206.355 145.063 197.677C168.148 188.999 194.498 177.501 209.135 171.379C223.772 165.258 225.897 164.861 229.149 164.451" stroke="black" stroke-width="22" stroke-linecap="round"/>
<path d="M256.208 120.628C256.208 120.521 256.649 122.756 259.973 135.168C262.857 145.29 268.17 163.175 271.191 173.998C274.212 184.821 274.78 188.04 275.366 191.357" stroke="black" stroke-width="22" stroke-linecap="round"/>
<path d="M252.337 86.2955C252.337 86.2452 252.337 86.1949 252.213 85.4272C252.089 84.6594 251.841 83.1757 252.165 83.0476C252.49 82.9195 253.396 84.1919 254.328 87.1338" stroke="black" stroke-width="22" stroke-linecap="round"/>
<path d="M328.812 45.9678C328.812 46.0566 328.812 46.1455 328.849 48.5124C328.886 50.8793 328.96 55.5215 332.133 74.4031C335.306 93.2847 341.576 126.265 348.036 160.245" stroke="black" stroke-width="22" stroke-linecap="round"/>
<path d="M365.097 218.013C365.097 217.688 366.106 216.412 368.224 215.17C369.188 214.605 370.512 215.909 371.491 217.051C373.479 219.371 374.032 222.6 373.69 225.541C373.293 226.883 372.441 227.919 371.423 228.756C370.404 229.592 369.244 230.197 368.048 230.821" stroke="black" stroke-width="22" stroke-linecap="round"/>
</svg>
