<svg width="226" height="147" viewBox="0 0 226 147" fill="none" xmlns="http://www.w3.org/2000/svg">
<path d="M6.87158 39.9565C6.87158 39.9904 6.87158 40.0242 6.87158 45.6073C6.87158 51.1904 6.87158 62.3216 7.00671 67.7753C7.14183 73.2291 7.41208 72.668 7.81523 72.2833C8.74627 71.7075 11.2735 71.4746 14.6899 71.2994C16.123 71.1601 16.9457 70.9184 18.3849 70.2146" stroke="black" stroke-width="2" stroke-linecap="round"/>
<path d="M21.2224 58.1601C21.9421 57.5864 23.9914 55.3844 25.1582 53.1592C25.8831 51.7767 25.909 50.1401 25.774 48.861C25.7106 48.261 25.2618 47.8362 24.8159 47.5824C24.37 47.3287 23.8395 47.2782 23.3577 47.5301C20.7885 48.8733 20.8649 53.1513 20.8149 57.0268C20.7877 59.1385 21.9002 60.6433 22.7812 61.5719C24.3945 63.2724 26.8385 63.59 29.2392 63.3986C30.4513 62.8149 31.476 61.7286 32.202 60.3697C32.5196 59.712 32.7341 59.1191 32.955 58.5082" stroke="black" stroke-width="2" stroke-linecap="round"/>
<path d="M34.3252 28.7068C34.3252 28.8993 34.3823 33.0204 34.9031 42.0067C35.3667 46.9713 36.2353 52.7567 36.943 56.7357C37.6507 60.7147 38.1712 62.712 38.7076 64.7699" stroke="black" stroke-width="2" stroke-linecap="round"/>
<path d="M30.2588 40.6406C31.0735 40.6346 34.0058 40.4857 38.4923 39.2613C39.9282 38.7593 41.5331 38.0913 42.6421 37.7047C43.751 37.3181 44.3154 37.2331 44.8969 37.1456" stroke="black" stroke-width="2" stroke-linecap="round"/>
<path d="M44.8965 29.7249C44.9144 29.7249 44.9323 29.7249 45.245 29.7584C45.5577 29.792 46.1646 29.859 46.7146 30.0124C47.2646 30.1658 47.7394 30.4035 48.4418 30.906" stroke="black" stroke-width="2" stroke-linecap="round"/>
<path d="M58.5831 43.4032C57.8349 43.2824 55.1938 42.6307 51.315 42.6002C50.4858 42.5937 50.1879 43.3282 49.9263 44.0707C49.6646 44.8133 49.4827 45.7887 49.5815 46.5604C49.9964 49.8002 55.8535 50.6757 57.8603 52.3897C60.0069 54.2231 60.3834 57.9667 60.513 62.0653C60.5376 62.8449 59.8697 63.1889 59.1944 63.4322C57.6793 63.9781 56.1785 63.7969 55.1285 63.4841C53.0121 61.9151 51.3796 59.4396 50.4166 57.3933C50.0373 56.5203 49.8799 55.9831 49.7178 55.156" stroke="black" stroke-width="2" stroke-linecap="round"/>
<path d="M87.5034 34.2059C87.5034 34.2776 87.5034 36.1306 87.357 38.2264C87.1367 41.3803 83.9754 31.8422 81.7601 29.9109C79.4808 27.9238 78.4308 36.7435 78.8495 44.38C79.377 54.0012 82.986 56.7661 84.084 57.5298C85.2118 58.3142 86.6799 57.6623 87.6406 57.0462C88.4247 56.2468 88.9836 55.1982 89.3154 53.9532C89.4426 53.2998 89.4864 52.6026 89.5316 51.8843" stroke="black" stroke-width="2" stroke-linecap="round"/>
<path d="M91.7066 13.628C91.7066 13.701 91.6894 15.9929 92.1735 23.9423C92.521 29.6488 93.6954 38.7049 94.2212 44.0068C94.8709 50.5593 94.978 52.677 95.2009 53.4674C95.1928 53.4511 94.9385 52.5872 94.7574 51.191C94.5762 49.7948 94.476 47.8925 94.3727 45.9325" stroke="black" stroke-width="2" stroke-linecap="round"/>
<path d="M94.3726 40.5702V42.2563" stroke="black" stroke-width="2" stroke-linecap="round"/>
<path d="M94.3726 40.5702C94.3971 38.2477 94.8587 32.1662 96.2943 30.1146C96.6415 29.6184 97.5843 29.8307 98.2141 30.0378C101.122 30.9944 102.224 39.9827 103.744 44.9888C104.54 46.1974 105.547 47.0508 106.688 47.3828C107.263 47.4093 107.83 47.1477 108.665 46.4355" stroke="black" stroke-width="2" stroke-linecap="round"/>
<path d="M117.262 29.2863C116.796 28.9875 114.25 28.4544 111.604 28.704C110.521 28.8062 110.113 29.6508 109.804 30.3711C107.927 34.7433 109.383 41.5173 110.938 44.9081C111.277 45.6454 111.793 45.9513 112.263 46.1752C113.192 46.6185 114.433 46.3602 115.601 45.887C117.897 44.9578 118.87 41.8056 119.332 37.9409C119.527 36.3187 119.379 33.9267 119.307 33.0068C119.077 30.056 121.654 42.8899 123.372 45.2516C123.85 45.6957 124.353 46.0264 125.222 46.2024C126.09 46.3784 127.309 46.3897 129.365 45.5944" stroke="black" stroke-width="2" stroke-linecap="round"/>
<path d="M124.661 7.09669C124.661 7.11197 124.661 7.12724 124.669 7.39971C124.678 7.67218 124.695 8.20139 125.509 14.2438C126.323 20.2862 127.933 31.8258 129.558 43.7352" stroke="black" stroke-width="2" stroke-linecap="round"/>
<path d="M121.18 15.9761C121.199 15.9761 121.218 15.9761 121.997 15.9642C122.775 15.9522 124.312 15.9283 126.342 15.6637C128.371 15.3991 130.846 14.8944 133.733 14.3745" stroke="black" stroke-width="2" stroke-linecap="round"/>
<path d="M145.528 1C145.528 1.01793 145.528 1.03586 145.557 6.42313C145.585 11.8104 145.643 22.5665 145.701 33.6485" stroke="black" stroke-width="2" stroke-linecap="round"/>
<path d="M142.333 45.8741C143.008 46.6189 145.248 48.646 148.485 49.7528C152.648 49.8716 155.105 48.9205 157.096 47.3593C157.559 46.8885 158.012 46.3314 158.722 44.701" stroke="black" stroke-width="2" stroke-linecap="round"/>
<path d="M147.83 38.9927V39.051" stroke="black" stroke-width="2" stroke-linecap="round"/>
<path d="M154.372 39.4233L154.128 39.039" stroke="black" stroke-width="2" stroke-linecap="round"/>
<path d="M154.539 33.3286C154.539 33.2722 154.539 33.2157 154.582 29.5536C154.625 25.8914 154.711 18.6253 154.894 13.5226C155.078 8.41996 155.355 5.70089 155.641 1.36821" stroke="black" stroke-width="2" stroke-linecap="round"/>
<path d="M168.897 22.0008C168.981 21.0082 169.738 18.1338 172.776 13.5353C175.085 10.0402 180.331 7.26037 186.315 4.55536C188.134 3.73326 190.539 3.91266 193.579 4.29163C196.798 4.69274 198.757 7.24036 199.995 8.97111C203.685 14.1309 204.514 26.2475 203.294 31.9051C202.875 33.8529 199.729 33.7499 197.706 33.8071C196.737 33.8344 195.9 33.3956 195.238 32.8012C193.875 31.5773 193.543 29.6529 193.568 28.0391C193.594 26.4166 195.028 25.2022 196.427 24.3204C198.028 23.3114 200.229 23.6882 202.254 24.3761C204.798 25.2408 211.163 34.7024 218.23 45.8326C220.213 48.9568 217.07 47.9665 215.16 47.2203C213.25 46.4741 212.189 46.26 211.957 46.5802C209.965 49.3236 216.536 51.0518 218.152 51.5312C219.012 51.786 220.025 51.7609 221.055 50.5001C222.084 49.2393 223.118 46.6661 223.652 44.5976C224.187 42.5292 224.192 41.0434 224.042 38.3061" stroke="black" stroke-width="2" stroke-linecap="round"/>
<path d="M7.10355 95.9166C5.5571 99.1096 1.93722 106.874 1.38463 112.594C-0.144182 128.42 3.21003 132.194 5.73259 135.345C8.41868 138.701 13.624 139.22 18.4682 139.54C22.7652 139.824 26.0833 136.555 28.4374 133.657C29.5148 132.33 29.673 130.005 29.715 127.432C29.7541 125.028 27.9102 123.176 26.1966 121.862C24.776 120.773 23.0962 120.664 21.6688 120.974C18.0156 121.765 18.1119 129.363 18.2162 134.804C18.3124 139.825 22.4737 141.624 26.1102 143.618C29.093 145.254 32.3265 145.287 34.4848 145.284C36.7047 145.151 39.0535 144.401 42.6162 141.363C44.9815 138.972 48.4783 134.86 52.2155 130.14" stroke="black" stroke-width="2" stroke-linecap="round"/>
<path d="M52.2158 130.14C52.3199 130.14 56.9155 130.14 63.5621 129.833C65.6866 129.735 65.1961 128.912 63.7529 127.49C62.3098 126.068 59.9081 123.857 58.8855 123.041C57.8628 122.224 58.2918 122.868 58.8768 123.519C61.3014 126.216 63.5206 127.317 64.1866 128.568C64.2934 129.305 63.9309 130.248 63.2934 131.288C62.6559 132.328 61.7545 133.434 59.8119 136.147" stroke="black" stroke-width="2" stroke-linecap="round"/>
</svg>
