<svg width="130" height="139" viewBox="0 0 130 139" fill="none" xmlns="http://www.w3.org/2000/svg">
<g clip-path="url(#clip0_58_684)">
<rect width="92.1412" height="126.944" rx="5.18918" transform="matrix(0.991047 -0.133515 0.0817241 0.996655 0 12.3022)" fill="white"/>
<rect width="28.9535" height="6.9189" rx="3.45945" transform="matrix(0.991047 -0.133515 0.0817241 0.996655 5.70215 23.719)" fill="#EDEDED"/>
<rect width="45.8719" height="6.9189" rx="3.45945" transform="matrix(0.991047 -0.133515 0.0817241 0.996655 37.3965 19.4491)" fill="#EDEDED"/>
<rect width="77.8524" height="6.9189" rx="3.45945" transform="matrix(0.991047 -0.133515 0.0817241 0.996655 6.5498 34.0626)" fill="#EDEDED"/>
<rect width="77.8524" height="6.9189" rx="3.45945" transform="matrix(0.991047 -0.133515 0.0817241 0.996655 7.39844 44.4062)" fill="#EDEDED"/>
<rect width="77.8524" height="6.9189" rx="3.45945" transform="matrix(0.991047 -0.133515 0.0817241 0.996655 8.3877 56.4739)" fill="#EDEDED"/>
<rect width="77.8524" height="6.9189" rx="3.45945" transform="matrix(0.991047 -0.133515 0.0817241 0.996655 9.2002 66.3865)" fill="#EDEDED"/>
<rect width="77.8524" height="6.9189" rx="3.45945" transform="matrix(0.991047 -0.133515 0.0817241 0.996655 10.0137 76.2992)" fill="#EDEDED"/>
<circle cx="5.70438" cy="5.70438" r="5.70438" transform="matrix(0.991047 -0.133515 0.0817241 0.996655 11.0029 88.3667)" fill="#EA3E83"/>
<rect width="24.3327" height="6.32512" rx="3.16256" transform="matrix(0.991047 -0.133515 0.0817241 0.996655 25.5176 88.9727)" fill="#EDEDED"/>
</g>
<rect x="0.23195" y="0.186624" width="91.7088" height="126.511" rx="4.97296" transform="matrix(0.991047 -0.133515 0.0817241 0.996655 -0.013175 12.3338)" stroke="#EDEDED" stroke-width="0.432431"/>
<rect x="0.224562" y="0.201543" width="91.4676" height="126.715" rx="4.97296" transform="matrix(0.997751 -0.0670244 0.0408525 0.999165 18.8028 9.0516)" fill="white"/>
<rect x="0.224562" y="0.201543" width="91.4676" height="126.715" rx="4.97296" transform="matrix(0.997751 -0.0670244 0.0408525 0.999165 18.8028 9.0516)" stroke="#EDEDED" stroke-width="0.432431"/>
<rect width="28.9535" height="6.9189" rx="3.45945" transform="matrix(0.997751 -0.0670244 0.0408525 0.999165 24.0508 20.7997)" fill="#EDEDED"/>
<rect width="45.8719" height="6.9189" rx="3.45945" transform="matrix(0.997751 -0.0670244 0.0408525 0.999165 55.959 18.6562)" fill="#EDEDED"/>
<rect width="77.8524" height="6.9189" rx="3.45945" transform="matrix(0.997751 -0.0670244 0.0408525 0.999165 24.4746 31.1693)" fill="#EDEDED"/>
<rect width="77.8524" height="6.9189" rx="3.45945" transform="matrix(0.997751 -0.0670244 0.0408525 0.999165 24.8984 41.5391)" fill="#EDEDED"/>
<rect width="77.8524" height="6.9189" rx="3.45945" transform="matrix(0.997751 -0.0670244 0.0408525 0.999165 25.3936 53.637)" fill="#EDEDED"/>
<rect width="77.8524" height="6.9189" rx="3.45945" transform="matrix(0.997751 -0.0670244 0.0408525 0.999165 25.7998 63.5746)" fill="#EDEDED"/>
<rect width="77.8524" height="6.9189" rx="3.45945" transform="matrix(0.997751 -0.0670244 0.0408525 0.999165 26.2061 73.5122)" fill="#EDEDED"/>
<circle cx="5.70438" cy="5.70438" r="5.70438" transform="matrix(0.997751 -0.0670244 0.0408525 0.999165 26.7002 85.6102)" fill="#BF7AF0"/>
<rect width="24.3327" height="6.32512" rx="3.16256" transform="matrix(0.997751 -0.0670244 0.0408525 0.999165 41.207 87.1824)" fill="#EDEDED"/>
<rect x="37.9584" y="6.22549" width="91.1923" height="126.54" rx="4.97296" fill="white"/>
<rect x="37.9584" y="6.22549" width="91.1923" height="126.54" rx="4.97296" stroke="#EDEDED" stroke-width="0.432431"/>
<rect x="42.499" y="18.1016" width="28.9535" height="6.9189" rx="3.45945" fill="#EDEDED"/>
<rect x="74.4795" y="18.1016" width="45.8719" height="6.9189" rx="3.45945" fill="#EDEDED"/>
<rect x="42.499" y="28.4799" width="77.8524" height="6.9189" rx="3.45945" fill="#EDEDED"/>
<rect x="42.499" y="38.8583" width="77.8524" height="6.9189" rx="3.45945" fill="#EDEDED"/>
<rect x="42.499" y="50.9663" width="77.8524" height="6.9189" rx="3.45945" fill="#EDEDED"/>
<rect x="42.499" y="60.9122" width="77.8524" height="6.9189" rx="3.45945" fill="#EDEDED"/>
<rect x="42.499" y="70.8582" width="77.8524" height="6.9189" rx="3.45945" fill="#EDEDED"/>
<circle cx="48.2034" cy="88.6707" r="5.70438" fill="#3291FF"/>
<rect x="56.9346" y="85.5082" width="24.3327" height="6.32512" rx="3.16256" fill="#EDEDED"/>
<defs>
<clipPath id="clip0_58_684">
<rect width="92.1412" height="126.944" rx="5.18918" transform="matrix(0.991047 -0.133515 0.0817241 0.996655 0 12.3022)" fill="white"/>
</clipPath>
</defs>
</svg>
