<svg width="850" height="701" viewBox="0 0 850 701" fill="none" xmlns="http://www.w3.org/2000/svg">
<path d="M176.481 586.268C177.593 592.24 183.336 596.181 189.308 595.069C195.281 593.957 199.221 588.215 198.11 582.242L187.296 584.255L176.481 586.268ZM187.277 584.157L198.092 582.144L198.029 581.81L197.947 581.481L187.277 584.157ZM185.899 578.659L196.569 575.984L196.529 575.824L196.484 575.666L185.899 578.659ZM184.344 573.16L194.928 570.167L194.523 568.734L193.752 567.461L184.344 573.16ZM181.312 568.156L190.721 562.457L190.698 562.419L190.675 562.382L181.312 568.156ZM178.223 563.146L167.503 565.613L167.909 567.379L168.86 568.921L178.223 563.146ZM176.93 557.529L166.254 554.879L165.62 557.432L166.21 559.995L176.93 557.529ZM178.517 551.137L189.193 553.787L190.705 547.697L186.233 543.296L178.517 551.137ZM173.767 546.462L162.797 545.652L162.422 550.731L166.052 554.302L173.767 546.462ZM174.207 540.505L185.177 541.315L185.19 541.136L185.198 540.957L174.207 540.505ZM174.446 534.707L185.436 535.16L185.572 531.86L183.868 529.031L174.446 534.707ZM171.228 529.367L161.159 524.939L158.864 530.158L161.806 535.043L171.228 529.367ZM173.845 523.417L183.914 527.845L186.588 521.765L182.451 516.568L173.845 523.417ZM169.489 517.945L158.868 515.082L157.422 520.447L160.882 524.795L169.489 517.945ZM171.05 512.153L181.671 515.015L182.169 513.169L182.014 511.264L171.05 512.153ZM170.587 506.435L160.933 501.162L159.357 504.046L159.623 507.323L170.587 506.435ZM173.678 500.775L183.332 506.048L185.962 501.233L183.699 496.236L173.678 500.775ZM171.059 494.992L160.151 493.574L159.748 496.679L161.039 499.531L171.059 494.992ZM171.799 489.303L182.707 490.721L182.95 488.854L182.558 487.013L171.799 489.303ZM170.561 483.485L160.185 479.831L159.158 482.749L159.802 485.775L170.561 483.485ZM172.536 477.876L182.911 481.529L183.457 479.98L183.526 478.338L172.536 477.876ZM172.776 472.154L161.787 471.663L161.787 471.677L161.786 471.691L172.776 472.154ZM173.033 466.416L184.022 466.908L184.045 466.395L184.02 465.882L173.033 466.416ZM172.752 460.647L162.049 458.112L161.69 459.627L161.765 461.181L172.752 460.647ZM174.084 455.024L163.827 451.051L163.554 451.755L163.38 452.489L174.084 455.024ZM176.229 449.486L186.487 453.459L186.648 453.042L186.775 452.614L176.229 449.486ZM177.883 443.909L188.429 447.037L189.871 442.175L187.11 437.921L177.883 443.909ZM173.874 437.732L163.249 434.884L161.982 439.613L164.647 443.72L173.874 437.732ZM175.375 432.131L165.997 426.382L165.163 427.742L164.75 429.284L175.375 432.131ZM178.674 426.75L188.052 432.5L189.323 430.428L189.602 428.013L178.674 426.75ZM179.33 421.074L190.258 422.337L190.444 420.724L190.157 419.126L179.33 421.074ZM178.27 415.183L167.558 412.686L167.042 414.897L167.444 417.131L178.27 415.183ZM179.574 409.59L190.287 412.087L190.672 410.434L190.542 408.742L179.574 409.59ZM179.123 403.747L169.794 397.917L167.877 400.986L168.155 404.594L179.123 403.747ZM182.444 398.432L191.772 404.261L192.492 403.109L192.91 401.817L182.444 398.432ZM184.226 392.924L194.692 396.31L195.455 393.949L195.132 391.49L184.226 392.924ZM183.451 387.033L172.515 385.853L172.373 387.162L172.545 388.467L183.451 387.033ZM184.066 381.337L173.214 379.536L173.163 379.845L173.129 380.156L184.066 381.337ZM185 375.705L195.852 377.506L195.989 376.681L195.999 375.846L185 375.705ZM185.074 369.907L175.785 364.016L174.115 366.649L174.075 369.767L185.074 369.907ZM188.381 364.694L197.67 370.585L199.125 368.292L199.345 365.585L188.381 364.694ZM188.846 358.965L178.275 355.925L177.971 356.98L177.882 358.075L188.846 358.965ZM190.43 353.459L201.001 356.499L201.942 353.228L200.871 349.997L190.43 353.459ZM188.365 347.231L177.437 345.973L177.159 348.387L177.924 350.693L188.365 347.231ZM189.024 341.507L181.765 333.243L178.581 336.039L178.096 340.249L189.024 341.507ZM194.365 336.816L201.624 345.081L204.871 342.229L205.308 337.929L194.365 336.816ZM194.945 331.107L205.889 332.219L205.894 332.166L205.899 332.112L194.945 331.107ZM195.472 325.365L185.103 321.693L184.644 322.99L184.518 324.36L195.472 325.365ZM197.377 319.987L187.143 315.953L187.072 316.133L187.008 316.315L197.377 319.987ZM199.463 314.694L209.697 318.728L210.608 316.416L210.437 313.937L199.463 314.694ZM199.034 308.476L191.975 300.04L187.675 303.639L188.06 309.233L199.034 308.476ZM203.972 304.345L211.031 312.781L214.268 310.073L214.863 305.895L203.972 304.345ZM204.809 298.47L194.003 296.413L193.955 296.665L193.919 296.919L204.809 298.47ZM205.956 292.444L200.145 283.104L196.051 285.651L195.15 290.388L205.956 292.444ZM211.287 289.127L217.098 298.467L217.234 298.382L217.368 298.293L211.287 289.127ZM216.115 285.925L222.195 295.092L223.864 293.984L225.036 292.36L216.115 285.925ZM219.419 281.343L211.682 273.524L211.032 274.167L210.498 274.908L219.419 281.343ZM223.479 277.326L217.661 267.99L216.616 268.641L215.741 269.507L223.479 277.326ZM228.351 274.29L223.117 264.614L222.82 264.775L222.534 264.954L228.351 274.29ZM233.474 271.518L230.9 260.824L229.504 261.16L228.24 261.843L233.474 271.518ZM239.11 270.162L239.117 259.162L237.808 259.161L236.536 259.467L239.11 270.162ZM244.965 270.165L244.959 281.165L245.346 281.165L245.732 281.138L244.965 270.165ZM250.655 269.767L251.423 280.741L252.912 280.636L254.32 280.139L250.655 269.767ZM256.184 267.814L259.144 257.219L255.796 256.284L252.519 257.442L256.184 267.814ZM261.759 269.371L258.799 279.966L261.262 280.654L263.776 280.185L261.759 269.371ZM268.003 268.207L271.986 257.953L269.066 256.819L265.986 257.393L268.003 268.207ZM273.682 270.413L281.277 262.455L279.699 260.949L277.666 260.159L273.682 270.413ZM278.027 274.559L270.433 282.517L270.591 282.668L270.755 282.812L278.027 274.559ZM282.605 278.593L293.571 279.459L294.004 273.976L289.878 270.34L282.605 278.593ZM282.049 285.637L271.083 284.771L270.628 290.525L275.106 294.169L282.049 285.637ZM287.048 289.705L297.119 285.28L296.051 282.849L293.991 281.172L287.048 289.705ZM289.443 295.155L300.039 298.108L301.093 294.325L299.513 290.731L289.443 295.155ZM287.736 301.281L277.14 298.329L276.726 299.812L276.736 301.352L287.736 301.281ZM287.773 306.978L276.773 307.049L276.794 310.351L278.63 313.095L287.773 306.978ZM291.449 312.473L301.78 316.249L303.698 311.001L300.591 306.357L291.449 312.473ZM289.315 318.312L278.983 314.536L278.194 316.696L278.336 318.99L289.315 318.312ZM289.667 324.021L278.688 324.699L278.77 326.023L279.164 327.29L289.667 324.021ZM291.437 329.709L301.668 333.752L303.093 330.144L301.941 326.44L291.437 329.709ZM289.164 335.463L278.933 331.42L278.46 332.62L278.276 333.896L289.164 335.463ZM288.337 341.204L277.449 339.637L276.843 343.849L279.23 347.373L288.337 341.204ZM292.171 346.864L302.063 351.675L304.843 345.958L301.278 340.695L292.171 346.864ZM289.389 352.583L279.497 347.772L278.559 349.7L278.414 351.839L289.389 352.583ZM289.005 358.245L278.03 357.501L277.928 359.013L278.238 360.497L289.005 358.245ZM290.289 364.386L297.622 372.585L302.357 368.351L301.056 362.134L290.289 364.386ZM285.205 368.932L277.873 360.733L274.64 363.623L274.25 367.942L285.205 368.932ZM284.68 374.742L295.42 377.119L295.572 376.432L295.635 375.733L284.68 374.742ZM283.42 380.437L292.868 386.071L293.777 384.546L294.16 382.813L283.42 380.437ZM280.465 385.393L271.017 379.759L270.7 380.29L270.445 380.853L280.465 385.393ZM278.084 390.648L283.849 400.016L286.714 398.252L288.103 395.188L278.084 390.648ZM272.678 393.974L266.913 384.606L263.304 386.827L262.118 390.894L272.678 393.974ZM271.001 399.724L280.103 405.9L281.076 404.466L281.561 402.803L271.001 399.724ZM267.779 404.472L272.706 414.307L275.271 413.022L276.882 410.648L267.779 404.472ZM262.313 407.21L257.386 397.375L253.409 399.367L251.935 403.565L262.313 407.21ZM260.221 413.167L260.71 424.156L268.137 423.826L270.6 416.812L260.221 413.167ZM254.15 413.437L253.66 402.448L248.225 402.69L245.118 407.157L254.15 413.437ZM250.053 419.329L246.74 429.818L254.461 432.256L259.084 425.609L250.053 419.329ZM243.558 417.277L246.87 406.788L241.917 405.224L237.562 408.055L243.558 417.277ZM238.491 420.572L242.894 430.652L243.726 430.288L244.487 429.794L238.491 420.572ZM233.149 422.905L233.586 433.897L235.655 433.814L237.552 432.985L233.149 422.905ZM227.333 423.137L225.832 434.034L226.797 434.167L227.77 434.128L227.333 423.137ZM221.32 422.309L222.821 411.412L217.563 410.688L213.724 414.353L221.32 422.309ZM216.431 426.977L213.488 437.576L219.508 439.247L224.027 434.933L216.431 426.977ZM210.26 425.263L213.203 414.664L211.204 414.109L209.139 414.32L210.26 425.263ZM204.553 425.848L203.433 414.905L201.748 415.077L200.192 415.749L204.553 425.848ZM199.17 428.172L202.388 438.691L202.972 438.513L203.531 438.271L199.17 428.172ZM193.658 429.859L190.44 419.34L189.953 419.489L189.482 419.682L193.658 429.859ZM188.241 432.082L184.364 442.376L188.414 443.901L192.417 442.258L188.241 432.082ZM182.066 429.756L185.943 419.462L183.785 418.649L181.482 418.772L182.066 429.756ZM176.45 430.055L175.866 419.07L174.516 419.142L173.223 419.539L176.45 430.055ZM170.884 431.763L166.309 441.766L170.113 443.506L174.111 442.279L170.884 431.763ZM165.721 429.402L170.296 419.398L167.717 418.219L164.89 418.433L165.721 429.402ZM161.875 418.662C155.817 419.121 151.278 424.404 151.738 430.462C152.197 436.519 157.48 441.058 163.537 440.599L162.706 429.63L161.875 418.662ZM187.296 584.255L198.11 582.242L198.092 582.144L187.277 584.157L176.463 586.169L176.481 586.268L187.296 584.255ZM187.277 584.157L197.947 581.481L196.569 575.984L185.899 578.659L175.229 581.335L176.608 586.832L187.277 584.157ZM185.899 578.659L196.484 575.666L194.928 570.167L184.344 573.16L173.759 576.154L175.314 581.653L185.899 578.659ZM184.344 573.16L193.752 567.461L190.721 562.457L181.312 568.156L171.904 573.855L174.935 578.86L184.344 573.16ZM181.312 568.156L190.675 562.382L187.585 557.372L178.223 563.146L168.86 568.921L171.95 573.931L181.312 568.156ZM178.223 563.146L188.942 560.68L187.65 555.063L176.93 557.529L166.21 559.995L167.503 565.613L178.223 563.146ZM176.93 557.529L187.606 560.18L189.193 553.787L178.517 551.137L167.842 548.486L166.254 554.879L176.93 557.529ZM178.517 551.137L186.233 543.296L181.482 538.621L173.767 546.462L166.052 554.302L170.802 558.977L178.517 551.137ZM173.767 546.462L184.737 547.272L185.177 541.315L174.207 540.505L163.237 539.694L162.797 545.652L173.767 546.462ZM174.207 540.505L185.198 540.957L185.436 535.16L174.446 534.707L163.455 534.255L163.216 540.052L174.207 540.505ZM174.446 534.707L183.868 529.031L180.651 523.691L171.228 529.367L161.806 535.043L165.023 540.383L174.446 534.707ZM171.228 529.367L181.298 533.794L183.914 527.845L173.845 523.417L163.775 518.99L161.159 524.939L171.228 529.367ZM173.845 523.417L182.451 516.568L178.096 511.095L169.489 517.945L160.882 524.795L165.238 530.267L173.845 523.417ZM169.489 517.945L180.11 520.807L181.671 515.015L171.05 512.153L160.429 509.29L158.868 515.082L169.489 517.945ZM171.05 512.153L182.014 511.264L181.551 505.546L170.587 506.435L159.623 507.323L160.086 513.041L171.05 512.153ZM170.587 506.435L180.241 511.707L183.332 506.048L173.678 500.775L164.025 495.502L160.933 501.162L170.587 506.435ZM173.678 500.775L183.699 496.236L181.08 490.454L171.059 494.992L161.039 499.531L163.658 505.313L173.678 500.775ZM171.059 494.992L181.968 496.41L182.707 490.721L171.799 489.303L160.891 487.885L160.151 493.574L171.059 494.992ZM171.799 489.303L182.558 487.013L181.32 481.195L170.561 483.485L159.802 485.775L161.04 491.593L171.799 489.303ZM170.561 483.485L180.936 487.138L182.911 481.529L172.536 477.876L162.16 474.222L160.185 479.831L170.561 483.485ZM172.536 477.876L183.526 478.338L183.767 472.616L172.776 472.154L161.786 471.691L161.545 477.414L172.536 477.876ZM172.776 472.154L183.765 472.645L184.022 466.908L173.033 466.416L162.044 465.925L161.787 471.663L172.776 472.154ZM173.033 466.416L184.02 465.882L183.739 460.113L172.752 460.647L161.765 461.181L162.046 466.951L173.033 466.416ZM172.752 460.647L183.456 463.182L184.788 457.559L174.084 455.024L163.38 452.489L162.049 458.112L172.752 460.647ZM174.084 455.024L184.342 458.997L186.487 453.459L176.229 449.486L165.971 445.513L163.827 451.051L174.084 455.024ZM176.229 449.486L186.775 452.614L188.429 447.037L177.883 443.909L167.337 440.781L165.683 446.358L176.229 449.486ZM177.883 443.909L187.11 437.921L183.102 431.744L173.874 437.732L164.647 443.72L168.656 449.897L177.883 443.909ZM173.874 437.732L184.499 440.579L186 434.979L175.375 432.131L164.75 429.284L163.249 434.884L173.874 437.732ZM175.375 432.131L184.753 437.881L188.052 432.5L178.674 426.75L169.297 421.001L165.997 426.382L175.375 432.131ZM178.674 426.75L189.602 428.013L190.258 422.337L179.33 421.074L168.403 419.811L167.747 425.488L178.674 426.75ZM179.33 421.074L190.157 419.126L189.097 413.235L178.27 415.183L167.444 417.131L168.504 423.022L179.33 421.074ZM178.27 415.183L188.983 417.68L190.287 412.087L179.574 409.59L168.861 407.093L167.558 412.686L178.27 415.183ZM179.574 409.59L190.542 408.742L190.09 402.899L179.123 403.747L168.155 404.594L168.607 410.437L179.574 409.59ZM179.123 403.747L188.451 409.576L191.772 404.261L182.444 398.432L173.116 392.602L169.794 397.917L179.123 403.747ZM182.444 398.432L192.91 401.817L194.692 396.31L184.226 392.924L173.76 389.538L171.978 395.046L182.444 398.432ZM184.226 392.924L195.132 391.49L194.357 385.599L183.451 387.033L172.545 388.467L173.32 394.358L184.226 392.924ZM183.451 387.033L194.388 388.213L195.002 382.517L184.066 381.337L173.129 380.156L172.515 385.853L183.451 387.033ZM184.066 381.337L194.918 383.137L195.852 377.506L185 375.705L174.149 373.905L173.214 379.536L184.066 381.337ZM185 375.705L195.999 375.846L196.073 370.048L185.074 369.907L174.075 369.767L174.001 375.565L185 375.705ZM185.074 369.907L194.364 375.799L197.67 370.585L188.381 364.694L179.091 358.802L175.785 364.016L185.074 369.907ZM188.381 364.694L199.345 365.585L199.81 359.856L188.846 358.965L177.882 358.075L177.417 363.803L188.381 364.694ZM188.846 358.965L199.418 362.006L201.001 356.499L190.43 353.459L179.858 350.418L178.275 355.925L188.846 358.965ZM190.43 353.459L200.871 349.997L198.806 343.769L188.365 347.231L177.924 350.693L179.989 356.921L190.43 353.459ZM188.365 347.231L199.292 348.489L199.952 342.766L189.024 341.507L178.096 340.249L177.437 345.973L188.365 347.231ZM189.024 341.507L196.283 349.772L201.624 345.081L194.365 336.816L187.106 328.551L181.765 333.243L189.024 341.507ZM194.365 336.816L205.308 337.929L205.889 332.219L194.945 331.107L184.001 329.995L183.421 335.704L194.365 336.816ZM194.945 331.107L205.899 332.112L206.426 326.37L195.472 325.365L184.518 324.36L183.991 330.102L194.945 331.107ZM195.472 325.365L205.841 329.037L207.745 323.659L197.377 319.987L187.008 316.315L185.103 321.693L195.472 325.365ZM197.377 319.987L207.61 324.021L209.697 318.728L199.463 314.694L189.229 310.66L187.143 315.953L197.377 319.987ZM199.463 314.694L210.437 313.937L210.008 307.72L199.034 308.476L188.06 309.233L188.489 315.451L199.463 314.694ZM199.034 308.476L206.093 316.913L211.031 312.781L203.972 304.345L196.913 295.908L191.975 300.04L199.034 308.476ZM203.972 304.345L214.863 305.895L215.699 300.02L204.809 298.47L193.919 296.919L193.082 302.794L203.972 304.345ZM204.809 298.47L215.615 300.526L216.762 294.501L205.956 292.444L195.15 290.388L194.003 296.413L204.809 298.47ZM205.956 292.444L211.767 301.784L217.098 298.467L211.287 289.127L205.476 279.787L200.145 283.104L205.956 292.444ZM211.287 289.127L217.368 298.293L222.195 295.092L216.115 285.925L210.034 276.758L205.207 279.96L211.287 289.127ZM216.115 285.925L225.036 292.36L228.341 287.778L219.419 281.343L210.498 274.908L207.193 279.49L216.115 285.925ZM219.419 281.343L227.157 289.162L231.216 285.144L223.479 277.326L215.741 269.507L211.682 273.524L219.419 281.343ZM223.479 277.326L229.296 286.662L234.169 283.625L228.351 274.29L222.534 264.954L217.661 267.99L223.479 277.326ZM228.351 274.29L233.585 283.965L238.708 281.193L233.474 271.518L228.24 261.843L223.117 264.614L228.351 274.29ZM233.474 271.518L236.048 282.213L241.684 280.856L239.11 270.162L236.536 259.467L230.9 260.824L233.474 271.518ZM239.11 270.162L239.104 281.162L244.959 281.165L244.965 270.165L244.971 259.165L239.117 259.162L239.11 270.162ZM244.965 270.165L245.732 281.138L251.423 280.741L250.655 269.767L249.888 258.794L244.198 259.192L244.965 270.165ZM250.655 269.767L254.32 280.139L259.849 278.185L256.184 267.814L252.519 257.442L246.99 259.396L250.655 269.767ZM256.184 267.814L253.224 278.408L258.799 279.966L261.759 269.371L264.719 258.777L259.144 257.219L256.184 267.814ZM261.759 269.371L263.776 280.185L270.02 279.02L268.003 268.207L265.986 257.393L259.742 258.558L261.759 269.371ZM268.003 268.207L264.02 278.46L269.699 280.667L273.682 270.413L277.666 260.159L271.986 257.953L268.003 268.207ZM273.682 270.413L266.088 278.371L270.433 282.517L278.027 274.559L285.621 266.601L281.277 262.455L273.682 270.413ZM278.027 274.559L270.755 282.812L275.333 286.846L282.605 278.593L289.878 270.34L285.3 266.306L278.027 274.559ZM282.605 278.593L271.64 277.727L271.083 284.771L282.049 285.637L293.015 286.503L293.571 279.459L282.605 278.593ZM282.049 285.637L275.106 294.169L280.105 298.237L287.048 289.705L293.991 281.172L288.992 277.105L282.049 285.637ZM287.048 289.705L276.977 294.129L279.372 299.58L289.443 295.155L299.513 290.731L297.119 285.28L287.048 289.705ZM289.443 295.155L278.846 292.203L277.14 298.329L287.736 301.281L298.332 304.233L300.039 298.108L289.443 295.155ZM287.736 301.281L276.736 301.352L276.773 307.049L287.773 306.978L298.772 306.908L298.736 301.21L287.736 301.281ZM287.773 306.978L278.63 313.095L282.306 318.59L291.449 312.473L300.591 306.357L296.915 300.862L287.773 306.978ZM291.449 312.473L281.117 308.697L278.983 314.536L289.315 318.312L299.646 322.088L301.78 316.249L291.449 312.473ZM289.315 318.312L278.336 318.99L278.688 324.699L289.667 324.021L300.646 323.343L300.294 317.635L289.315 318.312ZM289.667 324.021L279.164 327.29L280.934 332.978L291.437 329.709L301.941 326.44L300.17 320.752L289.667 324.021ZM291.437 329.709L281.207 325.666L278.933 331.42L289.164 335.463L299.394 339.506L301.668 333.752L291.437 329.709ZM289.164 335.463L278.276 333.896L277.449 339.637L288.337 341.204L299.225 342.771L300.051 337.03L289.164 335.463ZM288.337 341.204L279.23 347.373L283.063 353.032L292.171 346.864L301.278 340.695L297.445 335.035L288.337 341.204ZM292.171 346.864L282.279 342.052L279.497 347.772L289.389 352.583L299.281 357.395L302.063 351.675L292.171 346.864ZM289.389 352.583L278.414 351.839L278.03 357.501L289.005 358.245L299.98 358.989L300.364 353.328L289.389 352.583ZM289.005 358.245L278.238 360.497L279.522 366.638L290.289 364.386L301.056 362.134L299.772 355.993L289.005 358.245ZM290.289 364.386L282.957 356.186L277.873 360.733L285.205 368.932L292.538 377.132L297.622 372.585L290.289 364.386ZM285.205 368.932L274.25 367.942L273.725 373.752L284.68 374.742L295.635 375.733L296.161 369.923L285.205 368.932ZM284.68 374.742L273.94 372.366L272.68 378.061L283.42 380.437L294.16 382.813L295.42 377.119L284.68 374.742ZM283.42 380.437L273.972 374.803L271.017 379.759L280.465 385.393L289.912 391.027L292.868 386.071L283.42 380.437ZM280.465 385.393L270.445 380.853L268.064 386.107L278.084 390.648L288.103 395.188L290.484 389.933L280.465 385.393ZM278.084 390.648L272.319 381.279L266.913 384.606L272.678 393.974L278.443 403.343L283.849 400.016L278.084 390.648ZM272.678 393.974L262.118 390.894L260.441 396.644L271.001 399.724L281.561 402.803L283.238 397.054L272.678 393.974ZM271.001 399.724L261.899 393.547L258.677 398.295L267.779 404.472L276.882 410.648L280.103 405.9L271.001 399.724ZM267.779 404.472L262.852 394.637L257.386 397.375L262.313 407.21L267.24 417.045L272.706 414.307L267.779 404.472ZM262.313 407.21L251.935 403.565L249.842 409.522L260.221 413.167L270.6 416.812L272.692 410.854L262.313 407.21ZM260.221 413.167L259.732 402.178L253.66 402.448L254.15 413.437L254.639 424.427L260.71 424.156L260.221 413.167ZM254.15 413.437L245.118 407.157L241.022 413.048L250.053 419.329L259.084 425.609L263.181 419.718L254.15 413.437ZM250.053 419.329L253.365 408.839L246.87 406.788L243.558 417.277L240.245 427.767L246.74 429.818L250.053 419.329ZM243.558 417.277L237.562 408.055L232.495 411.349L238.491 420.572L244.487 429.794L249.554 426.499L243.558 417.277ZM238.491 420.572L234.087 410.491L228.745 412.825L233.149 422.905L237.552 432.985L242.894 430.652L238.491 420.572ZM233.149 422.905L232.711 411.914L226.895 412.146L227.333 423.137L227.77 434.128L233.586 433.897L233.149 422.905ZM227.333 423.137L228.833 412.24L222.821 411.412L221.32 422.309L219.82 433.206L225.832 434.034L227.333 423.137ZM221.32 422.309L213.724 414.353L208.835 419.021L216.431 426.977L224.027 434.933L228.916 430.265L221.32 422.309ZM216.431 426.977L219.374 416.378L213.203 414.664L210.26 425.263L207.317 435.862L213.488 437.576L216.431 426.977ZM210.26 425.263L209.139 414.32L203.433 414.905L204.553 425.848L205.674 436.79L211.381 436.206L210.26 425.263ZM204.553 425.848L200.192 415.749L194.809 418.074L199.17 428.172L203.531 438.271L208.915 435.946L204.553 425.848ZM199.17 428.172L195.952 417.654L190.44 419.34L193.658 429.859L196.876 440.378L202.388 438.691L199.17 428.172ZM193.658 429.859L189.482 419.682L184.065 421.905L188.241 432.082L192.417 442.258L197.834 440.035L193.658 429.859ZM188.241 432.082L192.118 421.788L185.943 419.462L182.066 429.756L178.189 440.05L184.364 442.376L188.241 432.082ZM182.066 429.756L181.482 418.772L175.866 419.07L176.45 430.055L177.034 441.039L182.651 440.741L182.066 429.756ZM176.45 430.055L173.223 419.539L167.657 421.247L170.884 431.763L174.111 442.279L179.677 440.571L176.45 430.055ZM170.884 431.763L175.458 421.759L170.296 419.398L165.721 429.402L161.147 439.406L166.309 441.766L170.884 431.763ZM165.721 429.402L164.89 418.433L161.875 418.662L162.706 429.63L163.537 440.599L166.553 440.37L165.721 429.402Z" fill="black"/>
<path d="M367.652 121.283C367.586 115.208 362.608 110.337 356.533 110.403C350.458 110.469 345.587 115.447 345.653 121.521L356.652 121.402L367.652 121.283ZM356.653 121.502L345.654 121.621L345.662 122.322L345.758 123.015L356.653 121.502ZM357.425 127.059L368.388 127.961L368.488 126.75L368.321 125.545L357.425 127.059ZM356.953 132.788L345.99 131.885L345.904 132.93L346.017 133.971L356.953 132.788ZM357.571 138.495L368.559 137.985L368.543 137.647L368.507 137.312L357.571 138.495ZM357.837 144.229L368.369 147.402L368.912 145.6L368.825 143.719L357.837 144.229ZM356.111 149.958L345.579 146.785L344.172 151.455L346.689 155.634L356.111 149.958ZM359.531 155.635L368.773 161.6L372.494 155.836L368.954 149.959L359.531 155.635ZM355.808 161.404L346.566 155.439L344.414 158.772L344.886 162.711L355.808 161.404ZM356.489 167.094L345.566 168.401L345.681 169.355L345.959 170.275L356.489 167.094ZM358.215 172.809L369.144 174.056L369.402 171.801L368.745 169.628L358.215 172.809ZM357.56 178.549L346.631 177.302L346.522 178.257L346.581 179.216L357.56 178.549ZM357.908 184.278L346.929 184.945L346.933 185.013L346.938 185.081L357.908 184.278ZM358.326 189.991L347.356 190.793L347.404 191.456L347.532 192.109L358.326 189.991ZM359.447 195.704L370.282 197.607L370.635 195.592L370.242 193.585L359.447 195.704ZM358.441 201.431L369.034 204.395L369.181 203.871L369.275 203.334L358.441 201.431ZM356.837 207.163L346.244 204.198L345.979 205.145L345.886 206.123L356.837 207.163ZM356.293 212.886L345.343 211.846L345.292 212.384L345.293 212.924L356.293 212.886ZM356.313 218.601L345.313 218.64L345.317 219.809L345.567 220.951L356.313 218.601ZM357.562 224.311L368.36 222.213L368.336 222.087L368.308 221.961L357.562 224.311ZM358.673 230.024L369.619 231.113L369.778 229.508L369.47 227.925L358.673 230.024ZM358.103 235.748L347.157 234.659L347.068 235.56L347.126 236.462L358.103 235.748ZM358.475 241.469L369.19 243.957L369.557 242.375L369.452 240.755L358.475 241.469ZM357.144 247.2L367.74 250.157L367.805 249.924L367.859 249.688L357.144 247.2ZM355.544 252.932L344.949 249.975L343.815 254.04L345.69 257.82L355.544 252.932ZM358.374 258.637L369.301 259.895L369.673 256.663L368.228 253.749L358.374 258.637ZM357.715 264.36L346.787 263.102L346.603 264.702L346.885 266.287L357.715 264.36ZM358.732 270.075L369.644 271.461L369.855 269.798L369.562 268.148L358.732 270.075ZM358.005 275.802L368.642 278.603L368.826 277.904L368.917 277.187L358.005 275.802ZM356.495 281.533L345.858 278.731L345.451 280.278L345.501 281.878L356.495 281.533ZM356.675 287.251L367.578 288.708L367.698 287.811L367.669 286.906L356.675 287.251ZM355.91 292.976L345.007 291.519L344.835 292.805L344.967 294.096L355.91 292.976ZM356.495 298.696L345.553 299.816L345.829 302.519L347.332 304.781L356.495 298.696ZM360.279 304.394L369.368 310.589L373.536 304.474L369.442 298.309L360.279 304.394ZM356.358 310.145L347.269 303.95L344.353 308.227L345.79 313.199L356.358 310.145ZM358.008 315.855L347.44 318.908L347.469 319.008L347.499 319.106L358.008 315.855ZM359.773 321.56L370.421 324.322L371.206 321.295L370.282 318.309L359.773 321.56ZM358.287 327.291L347.639 324.529L346.995 327.013L347.516 329.525L358.287 327.291ZM359.471 332.998L370.456 332.431L370.413 331.589L370.242 330.763L359.471 332.998ZM359.766 338.711L370.288 341.916L370.85 340.071L370.751 338.145L359.766 338.711ZM358.019 344.446L347.496 341.242L347.388 341.596L347.305 341.957L358.019 344.446ZM356.686 350.182L345.972 347.692L345.328 350.465L346.109 353.201L356.686 350.182ZM358.316 355.89L369.032 353.406L368.969 353.137L368.893 352.87L358.316 355.89ZM359.64 361.603L369.597 366.279L371.216 362.831L370.356 359.12L359.64 361.603ZM356.932 367.371L346.975 362.696L344.417 368.143L347.624 373.234L356.932 367.371ZM360.505 373.043L371.406 371.573L371.087 369.204L369.812 367.18L360.505 373.043ZM361.272 378.73L371.687 382.268L372.518 379.821L372.173 377.26L361.272 378.73ZM359.314 384.494L348.898 380.956L347.782 384.24L348.753 387.57L359.314 384.494ZM360.966 390.165L370.723 395.243L372.761 391.327L371.527 387.088L360.966 390.165ZM357.943 395.972L348.186 390.894L345.359 396.323L348.484 401.587L357.943 395.972ZM361.278 401.591L372.276 401.359L372.215 398.465L370.737 395.976L361.278 401.591ZM361.398 407.284L372.186 409.434L372.421 408.255L372.396 407.053L361.398 407.284ZM360.247 413.059L349.459 410.909L349.453 410.942L349.446 410.976L360.247 413.059ZM359.125 418.879L348.324 416.796L347.572 420.692L349.481 424.171L359.125 418.879ZM362.106 424.312L372.966 426.064L373.568 422.333L371.75 419.02L362.106 424.312ZM361.15 430.238L350.291 428.486L349.879 431.037L350.646 433.504L361.15 430.238ZM362.745 435.369L352.241 438.635L355.267 448.366L365.201 446.091L362.745 435.369ZM365.434 446.038C371.356 444.682 375.057 438.781 373.701 432.86C372.345 426.938 366.445 423.237 360.523 424.593L362.978 435.315L365.434 446.038ZM356.652 121.402L345.653 121.521L345.654 121.621L356.653 121.502L367.653 121.383L367.652 121.283L356.652 121.402ZM356.653 121.502L345.758 123.015L346.53 128.572L357.425 127.059L368.321 125.545L367.549 119.989L356.653 121.502ZM357.425 127.059L346.462 126.156L345.99 131.885L356.953 132.788L367.916 133.691L368.388 127.961L357.425 127.059ZM356.953 132.788L346.017 133.971L346.635 139.679L357.571 138.495L368.507 137.312L367.889 131.604L356.953 132.788ZM357.571 138.495L346.583 139.005L346.849 144.739L357.837 144.229L368.825 143.719L368.559 137.985L357.571 138.495ZM357.837 144.229L347.305 141.056L345.579 146.785L356.111 149.958L366.644 153.131L368.369 147.402L357.837 144.229ZM356.111 149.958L346.689 155.634L350.109 161.311L359.531 155.635L368.954 149.959L365.533 144.281L356.111 149.958ZM359.531 155.635L350.289 149.67L346.566 155.439L355.808 161.404L365.05 167.369L368.773 161.6L359.531 155.635ZM355.808 161.404L344.886 162.711L345.566 168.401L356.489 167.094L367.411 165.787L366.73 160.097L355.808 161.404ZM356.489 167.094L345.959 170.275L347.685 175.991L358.215 172.809L368.745 169.628L367.018 163.912L356.489 167.094ZM358.215 172.809L347.286 171.562L346.631 177.302L357.56 178.549L368.489 179.796L369.144 174.056L358.215 172.809ZM357.56 178.549L346.581 179.216L346.929 184.945L357.908 184.278L368.888 183.612L368.54 177.882L357.56 178.549ZM357.908 184.278L346.938 185.081L347.356 190.793L358.326 189.991L369.297 189.188L368.879 183.476L357.908 184.278ZM358.326 189.991L347.532 192.109L348.653 197.822L359.447 195.704L370.242 193.585L369.121 187.872L358.326 189.991ZM359.447 195.704L348.613 193.8L347.607 199.528L358.441 201.431L369.275 203.334L370.282 197.607L359.447 195.704ZM358.441 201.431L347.848 198.466L346.244 204.198L356.837 207.163L367.43 210.128L369.034 204.395L358.441 201.431ZM356.837 207.163L345.886 206.123L345.343 211.846L356.293 212.886L367.244 213.926L367.788 208.203L356.837 207.163ZM356.293 212.886L345.293 212.924L345.313 218.64L356.313 218.601L367.313 218.563L367.293 212.848L356.293 212.886ZM356.313 218.601L345.567 220.951L346.816 226.662L357.562 224.311L368.308 221.961L367.059 216.251L356.313 218.601ZM357.562 224.311L346.764 226.41L347.875 232.123L358.673 230.024L369.47 227.925L368.36 222.213L357.562 224.311ZM358.673 230.024L347.727 228.936L347.157 234.659L358.103 235.748L369.049 236.837L369.619 231.113L358.673 230.024ZM358.103 235.748L347.126 236.462L347.498 242.182L358.475 241.469L369.452 240.755L369.08 235.034L358.103 235.748ZM358.475 241.469L347.76 238.98L346.43 244.711L357.144 247.2L367.859 249.688L369.19 243.957L358.475 241.469ZM357.144 247.2L346.549 244.243L344.949 249.975L355.544 252.932L366.14 255.889L367.74 250.157L357.144 247.2ZM355.544 252.932L345.69 257.82L348.519 263.524L358.374 258.637L368.228 253.749L365.399 248.045L355.544 252.932ZM358.374 258.637L347.446 257.379L346.787 263.102L357.715 264.36L368.643 265.618L369.301 259.895L358.374 258.637ZM357.715 264.36L346.885 266.287L347.902 272.002L358.732 270.075L369.562 268.148L368.545 262.433L357.715 264.36ZM358.732 270.075L347.819 268.69L347.092 274.416L358.005 275.802L368.917 277.187L369.644 271.461L358.732 270.075ZM358.005 275.802L347.367 273L345.858 278.731L356.495 281.533L367.133 284.334L368.642 278.603L358.005 275.802ZM356.495 281.533L345.501 281.878L345.68 287.596L356.675 287.251L367.669 286.906L367.49 281.188L356.495 281.533ZM356.675 287.251L345.772 285.794L345.007 291.519L355.91 292.976L366.813 294.433L367.578 288.708L356.675 287.251ZM355.91 292.976L344.967 294.096L345.553 299.816L356.495 298.696L367.438 297.576L366.853 291.856L355.91 292.976ZM356.495 298.696L347.332 304.781L351.115 310.479L360.279 304.394L369.442 298.309L365.659 292.611L356.495 298.696ZM360.279 304.394L351.189 298.198L347.269 303.95L356.358 310.145L365.447 316.341L369.368 310.589L360.279 304.394ZM356.358 310.145L345.79 313.199L347.44 318.908L358.008 315.855L368.575 312.801L366.925 307.092L356.358 310.145ZM358.008 315.855L347.499 319.106L349.265 324.812L359.773 321.56L370.282 318.309L368.516 312.603L358.008 315.855ZM359.773 321.56L349.125 318.799L347.639 324.529L358.287 327.291L368.935 330.052L370.421 324.322L359.773 321.56ZM358.287 327.291L347.516 329.525L348.7 335.232L359.471 332.998L370.242 330.763L369.058 325.056L358.287 327.291ZM359.471 332.998L348.485 333.564L348.78 339.278L359.766 338.711L370.751 338.145L370.456 332.431L359.471 332.998ZM359.766 338.711L349.243 335.507L347.496 341.242L358.019 344.446L368.542 347.651L370.288 341.916L359.766 338.711ZM358.019 344.446L347.305 341.957L345.972 347.692L356.686 350.182L367.401 352.671L368.734 346.936L358.019 344.446ZM356.686 350.182L346.109 353.201L347.738 358.909L358.316 355.89L368.893 352.87L367.264 347.162L356.686 350.182ZM358.316 355.89L347.6 358.373L348.924 364.087L359.64 361.603L370.356 359.12L369.032 353.406L358.316 355.89ZM359.64 361.603L349.683 356.928L346.975 362.696L356.932 367.371L366.889 372.046L369.597 366.279L359.64 361.603ZM356.932 367.371L347.624 373.234L351.197 378.906L360.505 373.043L369.812 367.18L366.239 361.508L356.932 367.371ZM360.505 373.043L349.603 374.513L350.37 380.2L361.272 378.73L372.173 377.26L371.406 371.573L360.505 373.043ZM361.272 378.73L350.856 375.192L348.898 380.956L359.314 384.494L369.729 388.032L371.687 382.268L361.272 378.73ZM359.314 384.494L348.753 387.57L350.405 393.241L360.966 390.165L371.527 387.088L369.875 381.417L359.314 384.494ZM360.966 390.165L351.208 385.086L348.186 390.894L357.943 395.972L367.7 401.051L370.723 395.243L360.966 390.165ZM357.943 395.972L348.484 401.587L351.819 407.206L361.278 401.591L370.737 395.976L367.402 390.357L357.943 395.972ZM361.278 401.591L350.281 401.823L350.4 407.516L361.398 407.284L372.396 407.053L372.276 401.359L361.278 401.591ZM361.398 407.284L350.61 405.134L349.459 410.909L360.247 413.059L371.035 415.208L372.186 409.434L361.398 407.284ZM360.247 413.059L349.446 410.976L348.324 416.796L359.125 418.879L369.926 420.962L371.048 415.142L360.247 413.059ZM359.125 418.879L349.481 424.171L352.463 429.604L362.106 424.312L371.75 419.02L368.768 413.587L359.125 418.879ZM362.106 424.312L351.247 422.56L350.291 428.486L361.15 430.238L372.01 431.99L372.966 426.064L362.106 424.312ZM361.15 430.238L350.646 433.504L352.241 438.635L362.745 435.369L373.249 432.103L371.654 426.972L361.15 430.238ZM362.745 435.369L365.201 446.091L365.434 446.038L362.978 435.315L360.523 424.593L360.29 424.646L362.745 435.369Z" fill="black"/>
<path d="M533.295 254.438C539.138 252.775 542.526 246.689 540.862 240.846C539.198 235.004 533.113 231.616 527.27 233.279L530.283 243.859L533.295 254.438ZM530.186 243.886L530.965 254.858L532.102 254.778L533.199 254.466L530.186 243.886ZM524.409 244.296L521.624 254.938L523.379 255.397L525.188 255.269L524.409 244.296ZM518.883 242.85L521.669 232.208L519.907 231.747L518.09 231.878L518.883 242.85ZM513.093 243.268L508.516 253.271L511.077 254.443L513.886 254.24L513.093 243.268ZM507.64 240.773L512.218 230.771L510.783 230.114L509.221 229.887L507.64 240.773ZM501.97 239.95L503.551 229.064L501.107 228.709L498.746 229.433L501.97 239.95ZM496.195 241.72L492.106 251.932L495.709 253.375L499.419 252.237L496.195 241.72ZM490.524 239.45L494.612 229.238L490.536 227.606L486.456 229.229L490.524 239.45ZM484.943 241.671L482.196 252.322L485.673 253.219L489.01 251.891L484.943 241.671ZM479.054 240.152L481.801 229.5L476.738 228.195L472.528 231.297L479.054 240.152ZM474.319 243.641L474.933 254.624L478.206 254.441L480.845 252.497L474.319 243.641ZM467.683 244.012L467.07 233.029L460.199 233.413L457.538 239.76L467.683 244.012ZM465.233 249.858L472.787 257.854L474.479 256.256L475.378 254.11L465.233 249.858ZM461.039 253.82L453.485 245.823L451.464 247.732L450.593 250.373L461.039 253.82ZM459.187 259.433L465.533 268.417L468.496 266.325L469.633 262.88L459.187 259.433ZM454.094 263.03L447.748 254.045L445.908 255.345L444.727 257.263L454.094 263.03ZM451.075 267.934L441.708 262.167L440.459 264.196L440.161 266.56L451.075 267.934ZM450.307 274.031L457.735 282.145L460.716 279.416L461.221 275.405L450.307 274.031ZM445.821 278.138L438.394 270.024L436.125 272.101L435.262 275.054L445.821 278.138ZM444.186 283.736L454.279 288.111L454.552 287.48L454.745 286.82L444.186 283.736ZM441.907 288.993L431.815 284.618L431.651 284.996L431.515 285.386L441.907 288.993ZM440.027 294.41L448.857 300.971L449.865 299.614L450.419 298.017L440.027 294.41ZM436.493 299.167L427.664 292.606L426.702 293.9L426.153 295.415L436.493 299.167ZM434.499 304.663L424.158 300.911L423.503 302.718L423.499 304.64L434.499 304.663ZM434.487 310.521L423.487 310.498L423.483 312.346L424.083 314.094L434.487 310.521ZM436.497 316.374L447.471 317.141L447.626 314.913L446.901 312.8L436.497 316.374ZM436.105 321.991L425.132 321.224L425.123 321.353L425.117 321.481L436.105 321.991ZM435.841 327.661L445.176 333.481L446.696 331.042L446.829 328.172L435.841 327.661ZM432.193 333.514L422.858 327.695L421.033 330.622L421.206 334.067L432.193 333.514ZM432.48 339.228L421.494 339.78L421.507 340.048L421.534 340.315L432.48 339.228ZM433.078 345.253L422.132 346.341L422.396 348.999L423.851 351.241L433.078 345.253ZM436.483 350.5L427.255 356.488L428.028 357.678L429.077 358.633L436.483 350.5ZM440.84 354.468L449.99 348.363L449.243 347.242L448.247 346.335L440.84 354.468ZM443.974 359.165L434.824 365.27L436.475 367.744L439.148 369.05L443.974 359.165ZM449.011 361.624L454.044 351.843L453.941 351.79L453.837 351.739L449.011 361.624ZM454.037 364.21L449.004 373.991L450.314 374.666L451.757 374.972L454.037 364.21ZM459.646 365.399L457.366 376.16L458.75 376.453L460.162 376.387L459.646 365.399ZM465.403 365.129L465.919 376.117L467.91 376.023L469.741 375.237L465.403 365.129ZM470.496 362.943L472.224 352.08L469.082 351.58L466.158 352.835L470.496 362.943ZM476.925 363.966L475.196 374.83L481.236 375.791L485.24 371.168L476.925 363.966ZM480.858 359.426L473.499 351.25L472.991 351.707L472.543 352.224L480.858 359.426ZM485.079 355.627L492.437 363.803L494.342 362.088L495.293 359.708L485.079 355.627ZM487.166 350.402L481.718 340.846L478.378 342.75L476.952 346.32L487.166 350.402ZM493.102 347.018L498.551 356.574L505.778 352.453L503.781 344.377L493.102 347.018ZM491.388 340.086L484.67 331.376L478.987 335.76L480.71 342.727L491.388 340.086ZM496.677 336.007L503.395 344.717L507.942 341.209L507.664 335.473L496.677 336.007ZM496.375 329.796L487.507 323.288L485.199 326.433L485.388 330.33L496.375 329.796ZM499.905 324.986L508.773 331.493L510.241 329.493L510.708 327.056L499.905 324.986ZM500.992 319.317L511.795 321.388L511.949 320.584L511.982 319.766L500.992 319.317ZM501.235 313.369L494.261 304.862L490.445 307.99L490.244 312.919L501.235 313.369ZM506.468 309.078L513.442 317.585L519.044 312.993L517.038 306.032L506.468 309.078ZM504.552 302.427L496.678 294.746L492.21 299.325L493.982 305.472L504.552 302.427ZM509.002 297.864L516.876 305.545L518.574 303.805L519.38 301.511L509.002 297.864ZM510.897 292.472L501.181 287.313L500.793 288.044L500.519 288.825L510.897 292.472ZM513.624 287.335L523.339 292.493L523.853 291.526L524.166 290.476L513.624 287.335ZM515.255 281.858L525.798 284.999L525.996 284.334L526.109 283.649L515.255 281.858ZM516.198 276.148L505.45 273.805L505.39 274.08L505.344 274.357L516.198 276.148ZM517.424 270.523L506.892 267.348L506.768 267.76L506.676 268.181L517.424 270.523ZM519.083 265.02L508.573 261.773L508.562 261.809L508.551 261.845L519.083 265.02ZM520.822 259.392L518.503 248.639L512.211 249.996L510.312 256.145L520.822 259.392ZM526.863 258.089L537.24 254.44L534.023 245.292L524.544 247.336L526.863 258.089ZM528.846 263.727L518.469 267.376L519.034 268.982L520.058 270.343L528.846 263.727ZM532.481 268.555L543.291 270.59L544.189 265.818L541.269 261.939L532.481 268.555ZM531.276 274.955L520.465 272.92L519.849 276.194L521.153 279.259L531.276 274.955ZM533.522 280.239L523.4 284.543L523.461 284.688L523.527 284.831L533.522 280.239ZM535.933 285.486L546.663 283.061L546.409 281.939L545.929 280.894L535.933 285.486ZM537.198 291.08L526.469 293.505L526.482 293.564L526.496 293.622L537.198 291.08ZM538.521 296.652L527.819 299.194L528.369 301.509L529.826 303.39L538.521 296.652ZM542.29 301.515L553.2 302.92L553.783 298.389L550.985 294.778L542.29 301.515ZM541.492 307.713L530.582 306.309L530.123 309.871L531.855 313.017L541.492 307.713ZM544.315 312.842L555.232 314.188L555.668 310.656L553.952 307.538L544.315 312.842ZM543.554 319.016L532.636 317.67L532.392 319.654L532.861 321.597L543.554 319.016ZM544.895 324.574L534.202 327.155L534.903 330.058L536.975 332.208L544.895 324.574ZM549.402 329.249L560.224 331.215L561.231 325.672L557.321 321.615L549.402 329.249ZM548.265 335.505L537.442 333.539L536.982 336.077L537.696 338.554L548.265 335.505ZM549.852 341.003L539.283 344.053L540.047 346.703L541.972 348.678L549.852 341.003ZM554.399 345.672L565.396 345.4L565.289 341.088L562.279 337.997L554.399 345.672ZM554.545 351.567L543.548 351.839L543.592 353.604L544.186 355.267L554.545 351.567ZM556.476 356.971L567.26 354.802L567.102 354.02L566.834 353.27L556.476 356.971ZM557.607 362.596L546.823 364.765L546.958 365.439L547.177 366.091L557.607 362.596ZM559.426 368.024L548.996 371.52L549.12 371.889L549.269 372.248L559.426 368.024ZM561.641 373.35L572.377 375.745L573.136 372.344L571.798 369.126L561.641 373.35ZM560.233 379.66L549.497 377.265L548.093 383.557L552.896 387.856L560.233 379.66ZM565.32 384.215L575.845 381.015L574.95 378.071L572.657 376.019L565.32 384.215ZM566.985 389.691L577.934 390.756L578.145 388.581L577.51 386.491L566.985 389.691ZM566.394 395.77L555.446 394.705L555.272 396.491L555.675 398.24L566.394 395.77ZM567.113 398.891L556.394 401.361L558.949 412.447L569.942 409.521L567.113 398.891ZM570.144 409.467C576.015 407.904 579.508 401.878 577.945 396.008C576.383 390.137 570.357 386.645 564.486 388.207L567.315 398.837L570.144 409.467ZM530.283 243.859L527.27 233.279L527.174 233.307L530.186 243.886L533.199 254.466L533.295 254.438L530.283 243.859ZM530.186 243.886L529.407 232.914L523.63 233.324L524.409 244.296L525.188 255.269L530.965 254.858L530.186 243.886ZM524.409 244.296L527.195 233.655L521.669 232.208L518.883 242.85L516.098 253.491L521.624 254.938L524.409 244.296ZM518.883 242.85L518.09 231.878L512.3 232.297L513.093 243.268L513.886 254.24L519.677 253.821L518.883 242.85ZM513.093 243.268L517.67 233.266L512.218 230.771L507.64 240.773L503.063 250.775L508.516 253.271L513.093 243.268ZM507.64 240.773L509.221 229.887L503.551 229.064L501.97 239.95L500.389 250.835L506.059 251.659L507.64 240.773ZM501.97 239.95L498.746 229.433L492.971 231.203L496.195 241.72L499.419 252.237L505.194 250.466L501.97 239.95ZM496.195 241.72L500.284 231.508L494.612 229.238L490.524 239.45L486.435 249.661L492.106 251.932L496.195 241.72ZM490.524 239.45L486.456 229.229L480.875 231.45L484.943 241.671L489.01 251.891L494.591 249.67L490.524 239.45ZM484.943 241.671L487.69 231.019L481.801 229.5L479.054 240.152L476.307 250.804L482.196 252.322L484.943 241.671ZM479.054 240.152L472.528 231.297L467.793 234.786L474.319 243.641L480.845 252.497L485.58 249.007L479.054 240.152ZM474.319 243.641L473.706 232.659L467.07 233.029L467.683 244.012L468.297 254.995L474.933 254.624L474.319 243.641ZM467.683 244.012L457.538 239.76L455.088 245.606L465.233 249.858L475.378 254.11L477.828 248.264L467.683 244.012ZM465.233 249.858L457.68 241.861L453.485 245.823L461.039 253.82L468.592 261.816L472.787 257.854L465.233 249.858ZM461.039 253.82L450.593 250.373L448.74 255.986L459.187 259.433L469.633 262.88L471.485 257.267L461.039 253.82ZM459.187 259.433L452.84 250.448L447.748 254.045L454.094 263.03L460.44 272.014L465.533 268.417L459.187 259.433ZM454.094 263.03L444.727 257.263L441.708 262.167L451.075 267.934L460.442 273.7L463.461 268.796L454.094 263.03ZM451.075 267.934L440.161 266.56L439.394 272.658L450.307 274.031L461.221 275.405L461.989 269.307L451.075 267.934ZM450.307 274.031L442.88 265.917L438.394 270.024L445.821 278.138L453.248 286.252L457.735 282.145L450.307 274.031ZM445.821 278.138L435.262 275.054L433.627 280.652L444.186 283.736L454.745 286.82L456.38 281.222L445.821 278.138ZM444.186 283.736L434.094 279.361L431.815 284.618L441.907 288.993L452 293.368L454.279 288.111L444.186 283.736ZM441.907 288.993L431.515 285.386L429.635 290.804L440.027 294.41L450.419 298.017L452.299 292.6L441.907 288.993ZM440.027 294.41L431.198 287.85L427.664 292.606L436.493 299.167L445.322 305.727L448.857 300.971L440.027 294.41ZM436.493 299.167L426.153 295.415L424.158 300.911L434.499 304.663L444.839 308.415L446.833 302.918L436.493 299.167ZM434.499 304.663L423.499 304.64L423.487 310.498L434.487 310.521L445.487 310.543L445.499 304.686L434.499 304.663ZM434.487 310.521L424.083 314.094L426.094 319.948L436.497 316.374L446.901 312.8L444.89 306.947L434.487 310.521ZM436.497 316.374L425.524 315.607L425.132 321.224L436.105 321.991L447.078 322.759L447.471 317.141L436.497 316.374ZM436.105 321.991L425.117 321.481L424.853 327.151L435.841 327.661L446.829 328.172L447.093 322.502L436.105 321.991ZM435.841 327.661L426.507 321.842L422.858 327.695L432.193 333.514L441.527 339.334L445.176 333.481L435.841 327.661ZM432.193 333.514L421.206 334.067L421.494 339.78L432.48 339.228L443.466 338.675L443.179 332.962L432.193 333.514ZM432.48 339.228L421.534 340.315L422.132 346.341L433.078 345.253L444.025 344.166L443.426 338.14L432.48 339.228ZM433.078 345.253L423.851 351.241L427.255 356.488L436.483 350.5L445.711 344.513L442.306 339.266L433.078 345.253ZM436.483 350.5L429.077 358.633L433.434 362.601L440.84 354.468L448.247 346.335L443.889 342.367L436.483 350.5ZM440.84 354.468L431.69 360.574L434.824 365.27L443.974 359.165L453.124 353.06L449.99 348.363L440.84 354.468ZM443.974 359.165L439.148 369.05L444.185 371.509L449.011 361.624L453.837 351.739L448.8 349.28L443.974 359.165ZM449.011 361.624L443.977 371.405L449.004 373.991L454.037 364.21L459.07 354.43L454.044 351.843L449.011 361.624ZM454.037 364.21L451.757 374.972L457.366 376.16L459.646 365.399L461.926 354.638L456.317 353.449L454.037 364.21ZM459.646 365.399L460.162 376.387L465.919 376.117L465.403 365.129L464.887 354.141L459.13 354.411L459.646 365.399ZM465.403 365.129L469.741 375.237L474.834 373.052L470.496 362.943L466.158 352.835L461.065 355.02L465.403 365.129ZM470.496 362.943L468.767 373.807L475.196 374.83L476.925 363.966L478.654 353.103L472.224 352.08L470.496 362.943ZM476.925 363.966L485.24 371.168L489.173 366.627L480.858 359.426L472.543 352.224L468.61 356.765L476.925 363.966ZM480.858 359.426L488.216 367.602L492.437 363.803L485.079 355.627L477.72 347.451L473.499 351.25L480.858 359.426ZM485.079 355.627L495.293 359.708L497.381 354.484L487.166 350.402L476.952 346.32L474.864 351.545L485.079 355.627ZM487.166 350.402L492.615 359.958L498.551 356.574L493.102 347.018L487.654 337.462L481.718 340.846L487.166 350.402ZM493.102 347.018L503.781 344.377L502.067 337.446L491.388 340.086L480.71 342.727L482.424 349.658L493.102 347.018ZM491.388 340.086L498.107 348.796L503.395 344.717L496.677 336.007L489.958 327.297L484.67 331.376L491.388 340.086ZM496.677 336.007L507.664 335.473L507.362 329.263L496.375 329.796L485.388 330.33L485.69 336.541L496.677 336.007ZM496.375 329.796L505.244 336.304L508.773 331.493L499.905 324.986L491.037 318.478L487.507 323.288L496.375 329.796ZM499.905 324.986L510.708 327.056L511.795 321.388L500.992 319.317L490.188 317.246L489.102 322.915L499.905 324.986ZM500.992 319.317L511.982 319.766L512.226 313.818L501.235 313.369L490.244 312.919L490.001 318.868L500.992 319.317ZM501.235 313.369L508.209 321.875L513.442 317.585L506.468 309.078L499.494 300.571L494.261 304.862L501.235 313.369ZM506.468 309.078L517.038 306.032L515.122 299.381L504.552 302.427L493.982 305.472L495.898 312.124L506.468 309.078ZM504.552 302.427L512.426 310.108L516.876 305.545L509.002 297.864L501.128 290.183L496.678 294.746L504.552 302.427ZM509.002 297.864L519.38 301.511L521.275 296.118L510.897 292.472L500.519 288.825L498.624 294.218L509.002 297.864ZM510.897 292.472L520.612 297.63L523.339 292.493L513.624 287.335L503.908 282.177L501.181 287.313L510.897 292.472ZM513.624 287.335L524.166 290.476L525.798 284.999L515.255 281.858L504.713 278.717L503.082 284.194L513.624 287.335ZM515.255 281.858L526.109 283.649L527.051 277.939L516.198 276.148L505.344 274.357L504.402 280.068L515.255 281.858ZM516.198 276.148L526.945 278.491L528.171 272.866L517.424 270.523L506.676 268.181L505.45 273.805L516.198 276.148ZM517.424 270.523L527.955 273.699L529.615 268.196L519.083 265.02L508.551 261.845L506.892 267.348L517.424 270.523ZM519.083 265.02L529.593 268.267L531.332 262.639L520.822 259.392L510.312 256.145L508.573 261.773L519.083 265.02ZM520.822 259.392L523.141 270.145L529.182 268.842L526.863 258.089L524.544 247.336L518.503 248.639L520.822 259.392ZM526.863 258.089L516.486 261.738L518.469 267.376L528.846 263.727L539.223 260.077L537.24 254.44L526.863 258.089ZM528.846 263.727L520.058 270.343L523.692 275.171L532.481 268.555L541.269 261.939L537.634 257.111L528.846 263.727ZM532.481 268.555L521.67 266.52L520.465 272.92L531.276 274.955L542.086 276.99L543.291 270.59L532.481 268.555ZM531.276 274.955L521.153 279.259L523.4 284.543L533.522 280.239L543.645 275.934L541.398 270.65L531.276 274.955ZM533.522 280.239L523.527 284.831L525.938 290.079L535.933 285.486L545.929 280.894L543.518 275.647L533.522 280.239ZM535.933 285.486L525.204 287.912L526.469 293.505L537.198 291.08L547.927 288.654L546.663 283.061L535.933 285.486ZM537.198 291.08L526.496 293.622L527.819 299.194L538.521 296.652L549.224 294.11L547.9 288.537L537.198 291.08ZM538.521 296.652L529.826 303.39L533.595 308.253L542.29 301.515L550.985 294.778L547.217 289.915L538.521 296.652ZM542.29 301.515L531.38 300.111L530.582 306.309L541.492 307.713L552.402 309.118L553.2 302.92L542.29 301.515ZM541.492 307.713L531.855 313.017L534.678 318.146L544.315 312.842L553.952 307.538L551.129 302.409L541.492 307.713ZM544.315 312.842L533.398 311.496L532.636 317.67L543.554 319.016L554.471 320.363L555.232 314.188L544.315 312.842ZM543.554 319.016L532.861 321.597L534.202 327.155L544.895 324.574L555.588 321.993L554.246 316.436L543.554 319.016ZM544.895 324.574L536.975 332.208L541.482 336.883L549.402 329.249L557.321 321.615L552.815 316.94L544.895 324.574ZM549.402 329.249L538.579 327.284L537.442 333.539L548.265 335.505L559.088 337.471L560.224 331.215L549.402 329.249ZM548.265 335.505L537.696 338.554L539.283 344.053L549.852 341.003L560.421 337.954L558.834 332.456L548.265 335.505ZM549.852 341.003L541.972 348.678L546.519 353.347L554.399 345.672L562.279 337.997L557.732 333.328L549.852 341.003ZM554.399 345.672L543.402 345.945L543.548 351.839L554.545 351.567L565.542 351.294L565.396 345.4L554.399 345.672ZM554.545 351.567L544.186 355.267L546.117 360.671L556.476 356.971L566.834 353.27L564.904 347.866L554.545 351.567ZM556.476 356.971L545.691 359.139L546.823 364.765L557.607 362.596L568.391 360.427L567.26 354.802L556.476 356.971ZM557.607 362.596L547.177 366.091L548.996 371.52L559.426 368.024L569.856 364.529L568.037 359.1L557.607 362.596ZM559.426 368.024L549.269 372.248L551.484 377.573L561.641 373.35L571.798 369.126L569.583 363.801L559.426 368.024ZM561.641 373.35L550.905 370.955L549.497 377.265L560.233 379.66L570.969 382.056L572.377 375.745L561.641 373.35ZM560.233 379.66L552.896 387.856L557.984 392.41L565.32 384.215L572.657 376.019L567.57 371.465L560.233 379.66ZM565.32 384.215L554.796 387.414L556.461 392.891L566.985 389.691L577.51 386.491L575.845 381.015L565.32 384.215ZM566.985 389.691L556.037 388.626L555.446 394.705L566.394 395.77L577.343 396.835L577.934 390.756L566.985 389.691ZM566.394 395.77L555.675 398.24L556.394 401.361L567.113 398.891L577.832 396.421L577.113 393.3L566.394 395.77ZM567.113 398.891L569.942 409.521L570.144 409.467L567.315 398.837L564.486 388.207L564.284 388.261L567.113 398.891Z" fill="black"/>
<path d="M617.667 276.961C615.863 271.16 609.698 267.92 603.896 269.724C598.095 271.528 594.855 277.694 596.659 283.495L607.163 280.228L617.667 276.961ZM607.193 280.324L618.174 280.972L618.292 278.971L617.697 277.057L607.193 280.324ZM606.858 285.997L595.877 285.348L595.66 289.021L597.697 292.086L606.858 285.997ZM610.419 291.355L621.417 291.58L621.487 288.135L619.58 285.266L610.419 291.355ZM610.301 297.113L620.422 301.422L621.255 299.465L621.299 297.338L610.301 297.113ZM607.692 303.241L597.571 298.931L594.973 305.034L599.157 310.18L607.692 303.241ZM611.89 308.404L622.824 309.606L623.327 305.034L620.425 301.465L611.89 308.404ZM611.235 314.356L600.301 313.154L600.126 314.747L600.413 316.324L611.235 314.356ZM612.273 320.063L601.451 322.031L602.19 326.094L605.42 328.667L612.273 320.063ZM617.515 324.237L628.102 327.221L630.085 320.187L624.368 315.633L617.515 324.237ZM615.585 331.085L604.997 328.101L603.403 333.756L607.217 338.225L615.585 331.085ZM619.517 335.694L628.811 329.811L628.393 329.149L627.884 328.553L619.517 335.694ZM622.617 340.591L633.264 337.827L632.831 336.162L631.911 334.709L622.617 340.591ZM624.071 346.191L634.898 344.252L634.824 343.836L634.718 343.427L624.071 346.191ZM625.118 352.041L614.29 353.98L614.742 356.504L616.264 358.568L625.118 352.041ZM628.58 356.737L619.726 363.264L620.124 363.804L620.586 364.293L628.58 356.737ZM632.624 361.015L642.532 356.237L641.791 354.7L640.618 353.459L632.624 361.015ZM635.11 366.17L625.202 370.948L625.44 371.441L625.726 371.909L635.11 366.17ZM638.133 371.113L628.749 376.852L629.87 378.684L631.597 379.961L638.133 371.113ZM642.812 374.569L653.812 374.483L653.769 368.987L649.348 365.721L642.812 374.569ZM631.816 375.032C631.863 381.107 636.827 385.993 642.902 385.945C648.977 385.897 653.863 380.934 653.815 374.859L642.815 374.945L631.816 375.032ZM607.163 280.228L596.659 283.495L596.689 283.59L607.193 280.324L617.697 277.057L617.667 276.961L607.163 280.228ZM607.193 280.324L596.212 279.675L595.877 285.348L606.858 285.997L617.839 286.645L618.174 280.972L607.193 280.324ZM606.858 285.997L597.697 292.086L601.258 297.444L610.419 291.355L619.58 285.266L616.019 279.908L606.858 285.997ZM610.419 291.355L599.421 291.13L599.303 296.888L610.301 297.113L621.299 297.338L621.417 291.58L610.419 291.355ZM610.301 297.113L600.18 292.804L597.571 298.931L607.692 303.241L617.813 307.55L620.422 301.422L610.301 297.113ZM607.692 303.241L599.157 310.18L603.355 315.343L611.89 308.404L620.425 301.465L616.227 296.301L607.692 303.241ZM611.89 308.404L600.956 307.202L600.301 313.154L611.235 314.356L622.169 315.558L622.824 309.606L611.89 308.404ZM611.235 314.356L600.413 316.324L601.451 322.031L612.273 320.063L623.096 318.095L622.058 312.388L611.235 314.356ZM612.273 320.063L605.42 328.667L610.662 332.842L617.515 324.237L624.368 315.633L619.126 311.458L612.273 320.063ZM617.515 324.237L606.927 321.253L604.997 328.101L615.585 331.085L626.172 334.069L628.102 327.221L617.515 324.237ZM615.585 331.085L607.217 338.225L611.149 342.834L619.517 335.694L627.884 328.553L623.952 323.945L615.585 331.085ZM619.517 335.694L610.222 341.576L613.322 346.474L622.617 340.591L631.911 334.709L628.811 329.811L619.517 335.694ZM622.617 340.591L611.97 343.356L613.423 348.955L624.071 346.191L634.718 343.427L633.264 337.827L622.617 340.591ZM624.071 346.191L613.243 348.13L614.29 353.98L625.118 352.041L635.946 350.102L634.898 344.252L624.071 346.191ZM625.118 352.041L616.264 358.568L619.726 363.264L628.58 356.737L637.434 350.209L633.972 345.513L625.118 352.041ZM628.58 356.737L620.586 364.293L624.63 368.571L632.624 361.015L640.618 353.459L636.574 349.181L628.58 356.737ZM632.624 361.015L622.716 365.794L625.202 370.948L635.11 366.17L645.018 361.392L642.532 356.237L632.624 361.015ZM635.11 366.17L625.726 371.909L628.749 376.852L638.133 371.113L647.517 365.373L644.494 360.43L635.11 366.17ZM638.133 371.113L631.597 379.961L636.277 383.417L642.812 374.569L649.348 365.721L644.669 362.265L638.133 371.113ZM642.812 374.569L631.813 374.656L631.816 375.032L642.815 374.945L653.815 374.859L653.812 374.483L642.812 374.569Z" fill="black"/>
<path d="M706.05 248.957C707.887 243.166 704.682 236.983 698.891 235.145C693.101 233.308 686.917 236.513 685.08 242.304L695.565 245.63L706.05 248.957ZM695.535 245.726L685.05 242.399L684.322 244.692L684.618 247.08L695.535 245.726ZM696.279 251.724L706.621 255.47L707.52 252.989L707.195 250.37L696.279 251.724ZM694.307 257.167L704.307 261.749L704.496 261.338L704.65 260.913L694.307 257.167ZM691.901 262.419L681.9 257.837L681.165 259.443L680.969 261.199L691.901 262.419ZM691.253 268.223L698.419 276.568L701.704 273.747L702.185 269.444L691.253 268.223ZM686.158 272.598L678.992 264.253L676.752 266.177L675.776 268.964L686.158 272.598ZM684.261 278.018L673.879 274.384L673.1 276.608L673.301 278.956L684.261 278.018ZM684.788 284.173L695.367 287.187L695.92 285.246L695.748 283.235L684.788 284.173ZM683.22 289.677L672.641 286.663L672.573 286.901L672.516 287.142L683.22 289.677ZM681.895 295.272L689.152 303.539L691.79 301.223L692.599 297.807L681.895 295.272ZM676.9 299.657L669.643 291.39L667.473 293.295L666.518 296.021L676.9 299.657ZM675.008 305.059L664.626 301.423L664.081 302.981L664.017 304.629L675.008 305.059ZM674.775 311.011L663.784 310.58L663.77 310.927L663.778 311.274L674.775 311.011ZM674.921 317.095L685.101 321.263L685.973 319.133L685.918 316.832L674.921 317.095ZM672.748 322.403L662.568 318.236L662.53 318.328L662.494 318.421L672.748 322.403ZM670.677 327.737L679.531 334.264L680.4 333.085L680.931 331.719L670.677 327.737ZM667.121 332.56L658.267 326.034L657.899 326.532L657.59 327.069L667.121 332.56ZM664.216 337.603L654.685 332.112L653.842 333.575L653.477 335.224L664.216 337.603ZM662.972 343.218L652.233 340.839L652.012 341.834L651.978 342.853L662.972 343.218ZM662.773 349.202L673.524 351.53L673.734 350.56L673.767 349.568L662.773 349.202ZM661.553 354.84L670.626 361.059L671.847 359.278L672.304 357.167L661.553 354.84ZM658.197 359.735L649.124 353.516L648.703 354.131L648.368 354.797L658.197 359.735ZM655.607 364.891L645.778 359.953L644.437 362.621L644.63 365.602L655.607 364.891ZM656.009 371.087L666.751 373.454L667.086 371.932L666.986 370.376L656.009 371.087ZM654.761 376.748L662.806 384.251L664.857 382.052L665.504 379.115L654.761 376.748ZM650.518 381.297L642.474 373.795L639.198 377.307L639.547 382.098L650.518 381.297ZM650.975 387.565L658.905 395.189L662.303 391.654L661.946 386.764L650.975 387.565ZM646.645 392.069L638.715 384.445L636.568 386.679L635.902 389.705L646.645 392.069ZM645.404 397.705L634.661 395.341L634.601 395.618L634.554 395.897L645.404 397.705ZM644.444 403.469L653.581 409.594L654.904 407.62L655.295 405.276L644.444 403.469ZM641.179 408.34L632.042 402.215L631.309 403.309L630.854 404.546L641.179 408.34ZM639.203 413.719L646.695 421.773L648.621 419.981L649.528 417.512L639.203 413.719ZM634.556 418.04L627.065 409.986L622.459 414.269L623.815 420.411L634.556 418.04ZM636.04 424.763L644.32 432.005L647.98 427.821L646.782 422.392L636.04 424.763ZM632.041 429.335L623.762 422.093L622.972 422.997L622.395 424.049L632.041 429.335ZM629.273 434.387L619.626 429.101L618.088 431.909L618.296 435.104L629.273 434.387ZM629.686 440.722L636.876 449.047L641.019 445.469L640.663 440.006L629.686 440.722ZM624.825 444.92L617.636 436.595L615.48 438.457L614.499 441.131L624.825 444.92ZM622.852 450.299L632.732 455.134L632.983 454.623L633.179 454.088L622.852 450.299ZM620.328 455.456L610.448 450.622L609.734 452.08L609.472 453.683L620.328 455.456ZM619.383 461.241L630.092 463.757L630.178 463.388L630.239 463.015L619.383 461.241ZM618.061 466.868L625.852 474.633L628.055 472.423L628.769 469.384L618.061 466.868ZM613.959 470.984L606.168 463.218L605.713 463.675L605.314 464.182L613.959 470.984ZM610.43 475.468L617.65 483.768L618.433 483.086L619.075 482.27L610.43 475.468ZM606.114 479.223L598.895 470.923L598.256 471.479L597.71 472.125L606.114 479.223ZM602.307 483.732L602.44 494.731L607.467 494.67L610.711 490.829L602.307 483.732ZM595.435 483.815L595.302 472.816L591.795 472.858L588.959 474.924L595.435 483.815ZM590.845 487.159L584.368 478.267L582.238 479.819L581.042 482.167L590.845 487.159ZM587.82 493.098L590.425 503.785L595.331 502.589L597.623 498.089L587.82 493.098ZM581.984 494.52L579.379 483.833L579.358 483.838L579.338 483.843L581.984 494.52ZM576.192 495.955L573.546 485.278L568.63 486.497L566.359 491.023L576.192 495.955ZM573.133 502.053L572.261 513.019L579.644 513.606L582.965 506.986L573.133 502.053ZM566.224 501.504L567.096 490.539L562.171 490.147L558.606 493.569L566.224 501.504ZM561.973 505.585L568.174 514.671L568.93 514.155L569.591 513.521L561.973 505.585ZM557.228 508.823L551.028 499.737L550.221 500.288L549.524 500.972L557.228 508.823ZM552.999 512.974L558.607 522.436L559.753 521.757L560.703 520.825L552.999 512.974ZM548.068 515.896L552.477 525.974L553.095 525.703L553.676 525.359L548.068 515.896ZM542.592 518.292L545.531 528.892L546.284 528.683L547 528.37L542.592 518.292ZM537.055 519.827L534.116 509.227L533.562 509.38L533.027 509.591L537.055 519.827ZM531.692 521.937L530.303 532.849L533.098 533.205L535.72 532.173L531.692 521.937ZM525.478 521.146L526.867 510.234L524.982 509.995L523.126 510.401L525.478 521.146ZM519.901 522.367L517.549 511.621L514.971 512.185L512.929 513.858L519.901 522.367ZM515.017 526.368L517.164 537.156L519.862 536.62L521.989 534.877L515.017 526.368ZM509.372 527.492L508.842 538.479L510.193 538.544L511.519 538.28L509.372 527.492ZM503.457 527.207L503.987 516.219L501.683 516.108L499.528 516.932L503.457 527.207ZM497.978 529.302L494.381 539.697L498.166 541.007L501.907 539.576L497.978 529.302ZM492.036 527.246L495.633 516.851L494.223 516.363L492.733 516.268L492.036 527.246ZM486.473 526.893L487.17 515.915L484.431 515.741L481.932 516.874L486.473 526.893ZM480.489 529.605L472.932 537.598L478.3 542.674L485.03 539.624L480.489 529.605ZM475.852 525.221L483.409 517.228L481.629 515.545L479.304 514.777L475.852 525.221ZM470.4 523.42L464.773 532.872L465.807 533.487L466.949 533.864L470.4 523.42ZM465.359 520.419L470.986 510.967L465.811 507.886L460.427 510.587L465.359 520.419ZM457.839 511.885C452.409 514.609 450.215 521.22 452.939 526.65C455.663 532.08 462.274 534.274 467.704 531.549L462.771 521.717L457.839 511.885ZM695.565 245.63L685.08 242.304L685.05 242.399L695.535 245.726L706.02 249.052L706.05 248.957L695.565 245.63ZM695.535 245.726L684.618 247.08L685.363 253.078L696.279 251.724L707.195 250.37L706.451 244.371L695.535 245.726ZM696.279 251.724L685.936 247.978L683.965 253.421L694.307 257.167L704.65 260.913L706.621 255.47L696.279 251.724ZM694.307 257.167L684.307 252.585L681.9 257.837L691.901 262.419L701.901 267.002L704.307 261.749L694.307 257.167ZM691.901 262.419L680.969 261.199L680.321 267.003L691.253 268.223L702.185 269.444L702.833 263.64L691.901 262.419ZM691.253 268.223L684.086 259.878L678.992 264.253L686.158 272.598L693.325 280.943L698.419 276.568L691.253 268.223ZM686.158 272.598L675.776 268.964L673.879 274.384L684.261 278.018L694.644 281.652L696.541 276.232L686.158 272.598ZM684.261 278.018L673.301 278.956L673.828 285.11L684.788 284.173L695.748 283.235L695.221 277.081L684.261 278.018ZM684.788 284.173L674.209 281.159L672.641 286.663L683.22 289.677L693.799 292.691L695.367 287.187L684.788 284.173ZM683.22 289.677L672.516 287.142L671.191 292.738L681.895 295.272L692.599 297.807L693.924 292.211L683.22 289.677ZM681.895 295.272L674.638 287.005L669.643 291.39L676.9 299.657L684.157 307.923L689.152 303.539L681.895 295.272ZM676.9 299.657L666.518 296.021L664.626 301.423L675.008 305.059L685.39 308.695L687.282 303.292L676.9 299.657ZM675.008 305.059L664.017 304.629L663.784 310.58L674.775 311.011L685.767 311.441L686 305.489L675.008 305.059ZM674.775 311.011L663.778 311.274L663.924 317.358L674.921 317.095L685.918 316.832L685.772 310.747L674.775 311.011ZM674.921 317.095L664.741 312.928L662.568 318.236L672.748 322.403L682.928 326.571L685.101 321.263L674.921 317.095ZM672.748 322.403L662.494 318.421L660.423 323.755L670.677 327.737L680.931 331.719L683.002 326.385L672.748 322.403ZM670.677 327.737L661.822 321.21L658.267 326.034L667.121 332.56L675.976 339.087L679.531 334.264L670.677 327.737ZM667.121 332.56L657.59 327.069L654.685 332.112L664.216 337.603L673.748 343.094L676.653 338.052L667.121 332.56ZM664.216 337.603L653.477 335.224L652.233 340.839L662.972 343.218L673.712 345.597L674.956 339.982L664.216 337.603ZM662.972 343.218L651.978 342.853L651.779 348.837L662.773 349.202L673.767 349.568L673.966 343.584L662.972 343.218ZM662.773 349.202L652.022 346.875L650.802 352.512L661.553 354.84L672.304 357.167L673.524 351.53L662.773 349.202ZM661.553 354.84L652.48 348.62L649.124 353.516L658.197 359.735L667.27 365.955L670.626 361.059L661.553 354.84ZM658.197 359.735L648.368 354.797L645.778 359.953L655.607 364.891L665.437 369.829L668.027 364.673L658.197 359.735ZM655.607 364.891L644.63 365.602L645.032 371.798L656.009 371.087L666.986 370.376L666.584 364.18L655.607 364.891ZM656.009 371.087L645.266 368.72L644.019 374.381L654.761 376.748L665.504 379.115L666.751 373.454L656.009 371.087ZM654.761 376.748L646.717 369.245L642.474 373.795L650.518 381.297L658.562 388.8L662.806 384.251L654.761 376.748ZM650.518 381.297L639.547 382.098L640.005 388.365L650.975 387.565L661.946 386.764L661.489 380.497L650.518 381.297ZM650.975 387.565L643.046 379.941L638.715 384.445L646.645 392.069L654.574 399.693L658.905 395.189L650.975 387.565ZM646.645 392.069L635.902 389.705L634.661 395.341L645.404 397.705L656.147 400.069L657.388 394.433L646.645 392.069ZM645.404 397.705L634.554 395.897L633.594 401.661L644.444 403.469L655.295 405.276L656.255 399.512L645.404 397.705ZM644.444 403.469L635.307 397.344L632.042 402.215L641.179 408.34L650.316 414.464L653.581 409.594L644.444 403.469ZM641.179 408.34L630.854 404.546L628.878 409.925L639.203 413.719L649.528 417.512L651.504 412.133L641.179 408.34ZM639.203 413.719L631.711 405.664L627.065 409.986L634.556 418.04L642.048 426.095L646.695 421.773L639.203 413.719ZM634.556 418.04L623.815 420.411L625.299 427.134L636.04 424.763L646.782 422.392L645.298 415.669L634.556 418.04ZM636.04 424.763L627.761 417.521L623.762 422.093L632.041 429.335L640.321 436.577L644.32 432.005L636.04 424.763ZM632.041 429.335L622.395 424.049L619.626 429.101L629.273 434.387L638.919 439.674L641.688 434.622L632.041 429.335ZM629.273 434.387L618.296 435.104L618.71 441.439L629.686 440.722L640.663 440.006L640.249 433.671L629.273 434.387ZM629.686 440.722L622.496 432.397L617.636 436.595L624.825 444.92L632.015 453.245L636.876 449.047L629.686 440.722ZM624.825 444.92L614.499 441.131L612.525 446.511L622.852 450.299L633.179 454.088L635.152 448.709L624.825 444.92ZM622.852 450.299L612.971 445.465L610.448 450.622L620.328 455.456L630.209 460.291L632.732 455.134L622.852 450.299ZM620.328 455.456L609.472 453.683L608.527 459.467L619.383 461.241L630.239 463.015L631.184 457.23L620.328 455.456ZM619.383 461.241L608.675 458.725L607.353 464.352L618.061 466.868L628.769 469.384L630.092 463.757L619.383 461.241ZM618.061 466.868L610.27 459.103L606.168 463.218L613.959 470.984L621.75 478.749L625.852 474.633L618.061 466.868ZM613.959 470.984L605.314 464.182L601.785 468.666L610.43 475.468L619.075 482.27L622.604 477.786L613.959 470.984ZM610.43 475.468L603.211 467.169L598.895 470.923L606.114 479.223L613.334 487.522L617.65 483.768L610.43 475.468ZM606.114 479.223L597.71 472.125L593.902 476.635L602.307 483.732L610.711 490.829L614.519 486.32L606.114 479.223ZM602.307 483.732L602.173 472.732L595.302 472.816L595.435 483.815L595.569 494.814L602.44 494.731L602.307 483.732ZM595.435 483.815L588.959 474.924L584.368 478.267L590.845 487.159L597.321 496.05L601.912 492.706L595.435 483.815ZM590.845 487.159L581.042 482.167L578.018 488.106L587.82 493.098L597.623 498.089L600.647 492.15L590.845 487.159ZM587.82 493.098L585.216 482.41L579.379 483.833L581.984 494.52L584.588 505.207L590.425 503.785L587.82 493.098ZM581.984 494.52L579.338 483.843L573.546 485.278L576.192 495.955L578.838 506.632L584.63 505.197L581.984 494.52ZM576.192 495.955L566.359 491.023L563.301 497.121L573.133 502.053L582.965 506.986L586.024 500.888L576.192 495.955ZM573.133 502.053L574.005 491.088L567.096 490.539L566.224 501.504L565.352 512.47L572.261 513.019L573.133 502.053ZM566.224 501.504L558.606 493.569L554.355 497.65L561.973 505.585L569.591 513.521L573.842 509.44L566.224 501.504ZM561.973 505.585L555.772 496.499L551.028 499.737L557.228 508.823L563.429 517.909L568.174 514.671L561.973 505.585ZM557.228 508.823L549.524 500.972L545.294 505.122L552.999 512.974L560.703 520.825L564.933 516.674L557.228 508.823ZM552.999 512.974L547.39 503.511L542.459 506.433L548.068 515.896L553.676 525.359L558.607 522.436L552.999 512.974ZM548.068 515.896L543.659 505.818L538.183 508.214L542.592 518.292L547 528.37L552.477 525.974L548.068 515.896ZM542.592 518.292L539.652 507.692L534.116 509.227L537.055 519.827L539.994 530.427L545.531 528.892L542.592 518.292ZM537.055 519.827L533.027 509.591L527.664 511.701L531.692 521.937L535.72 532.173L541.083 530.063L537.055 519.827ZM531.692 521.937L533.081 511.026L526.867 510.234L525.478 521.146L524.089 532.058L530.303 532.849L531.692 521.937ZM525.478 521.146L523.126 510.401L517.549 511.621L519.901 522.367L522.252 533.113L527.83 531.892L525.478 521.146ZM519.901 522.367L512.929 513.858L508.046 517.859L515.017 526.368L521.989 534.877L526.872 530.876L519.901 522.367ZM515.017 526.368L512.87 515.58L507.224 516.703L509.372 527.492L511.519 538.28L517.164 537.156L515.017 526.368ZM509.372 527.492L509.901 516.505L503.987 516.219L503.457 527.207L502.927 538.194L508.842 538.479L509.372 527.492ZM503.457 527.207L499.528 516.932L494.049 519.028L497.978 529.302L501.907 539.576L507.386 537.481L503.457 527.207ZM497.978 529.302L501.575 518.907L495.633 516.851L492.036 527.246L488.439 537.641L494.381 539.697L497.978 529.302ZM492.036 527.246L492.733 516.268L487.17 515.915L486.473 526.893L485.776 537.871L491.339 538.224L492.036 527.246ZM486.473 526.893L481.932 516.874L475.948 519.586L480.489 529.605L485.03 539.624L491.014 536.912L486.473 526.893ZM480.489 529.605L488.046 521.612L483.409 517.228L475.852 525.221L468.295 533.215L472.932 537.598L480.489 529.605ZM475.852 525.221L479.304 514.777L473.851 512.975L470.4 523.42L466.949 533.864L472.401 535.666L475.852 525.221ZM470.4 523.42L476.027 513.968L470.986 510.967L465.359 520.419L459.732 529.871L464.773 532.872L470.4 523.42ZM465.359 520.419L460.427 510.587L457.839 511.885L462.771 521.717L467.704 531.549L470.292 530.251L465.359 520.419Z" fill="black"/>
</svg>
