<svg width="268" height="320" viewBox="0 0 268 320" fill="none" xmlns="http://www.w3.org/2000/svg">
<rect x="5.63965" width="256" height="320" rx="12" fill="black" fill-opacity="0.01"/>
<rect x="12.0391" y="6.39941" width="243.2" height="307.2" rx="19.2" fill="#F0F0F0" fill-opacity="0.9"/>
<g filter="url(#filter2_f_86_948)">
<circle cx="133.639" cy="140.539" r="88.8391" fill="url(#paint0_linear_86_948)"/>
</g>
<path d="M102.524 267.232V278.464H99.7879V267.232H102.524ZM109.947 269.44C110.992 269.44 111.824 269.781 112.443 270.464C113.072 271.136 113.387 272.064 113.387 273.248V278.464H110.667V273.616C110.667 273.019 110.512 272.555 110.203 272.224C109.893 271.893 109.477 271.728 108.955 271.728C108.432 271.728 108.016 271.893 107.707 272.224C107.397 272.555 107.243 273.019 107.243 273.616V278.464H104.507V269.536H107.243V270.72C107.52 270.325 107.893 270.016 108.363 269.792C108.832 269.557 109.36 269.44 109.947 269.44ZM120.264 276.144V278.464H118.872C117.88 278.464 117.107 278.224 116.552 277.744C115.997 277.253 115.72 276.459 115.72 275.36V271.808H114.632V269.536H115.72V267.36H118.456V269.536H120.248V271.808H118.456V275.392C118.456 275.659 118.52 275.851 118.648 275.968C118.776 276.085 118.989 276.144 119.288 276.144H120.264ZM130.604 269.536V278.464H127.868V277.248C127.591 277.643 127.212 277.963 126.732 278.208C126.263 278.443 125.74 278.56 125.164 278.56C124.481 278.56 123.879 278.411 123.356 278.112C122.833 277.803 122.428 277.36 122.14 276.784C121.852 276.208 121.708 275.531 121.708 274.752V269.536H124.428V274.384C124.428 274.981 124.583 275.445 124.892 275.776C125.201 276.107 125.617 276.272 126.14 276.272C126.673 276.272 127.095 276.107 127.404 275.776C127.713 275.445 127.868 274.981 127.868 274.384V269.536H130.604ZM133.945 268.608C133.465 268.608 133.07 268.469 132.761 268.192C132.462 267.904 132.313 267.552 132.313 267.136C132.313 266.709 132.462 266.357 132.761 266.08C133.07 265.792 133.465 265.648 133.945 265.648C134.414 265.648 134.798 265.792 135.097 266.08C135.406 266.357 135.561 266.709 135.561 267.136C135.561 267.552 135.406 267.904 135.097 268.192C134.798 268.469 134.414 268.608 133.945 268.608ZM135.305 269.536V278.464H132.569V269.536H135.305ZM142.264 276.144V278.464H140.872C139.88 278.464 139.107 278.224 138.552 277.744C137.997 277.253 137.72 276.459 137.72 275.36V271.808H136.632V269.536H137.72V267.36H140.456V269.536H142.248V271.808H140.456V275.392C140.456 275.659 140.52 275.851 140.648 275.968C140.776 276.085 140.989 276.144 141.288 276.144H142.264ZM145.164 268.608C144.684 268.608 144.289 268.469 143.98 268.192C143.681 267.904 143.532 267.552 143.532 267.136C143.532 266.709 143.681 266.357 143.98 266.08C144.289 265.792 144.684 265.648 145.164 265.648C145.633 265.648 146.017 265.792 146.316 266.08C146.625 266.357 146.78 266.709 146.78 267.136C146.78 267.552 146.625 267.904 146.316 268.192C146.017 268.469 145.633 268.608 145.164 268.608ZM146.524 269.536V278.464H143.788V269.536H146.524ZM152.571 278.592C151.696 278.592 150.907 278.405 150.203 278.032C149.509 277.659 148.96 277.125 148.555 276.432C148.16 275.739 147.963 274.928 147.963 274C147.963 273.083 148.165 272.277 148.571 271.584C148.976 270.88 149.531 270.341 150.235 269.968C150.939 269.595 151.728 269.408 152.603 269.408C153.477 269.408 154.267 269.595 154.971 269.968C155.675 270.341 156.229 270.88 156.635 271.584C157.04 272.277 157.243 273.083 157.243 274C157.243 274.917 157.035 275.728 156.619 276.432C156.213 277.125 155.653 277.659 154.939 278.032C154.235 278.405 153.445 278.592 152.571 278.592ZM152.571 276.24C153.093 276.24 153.536 276.048 153.899 275.664C154.272 275.269 154.459 274.715 154.459 274C154.459 273.285 154.277 272.736 153.915 272.352C153.563 271.957 153.125 271.76 152.603 271.76C152.069 271.76 151.627 271.952 151.275 272.336C150.923 272.72 150.747 273.275 150.747 274C150.747 274.715 150.917 275.269 151.259 275.664C151.611 276.048 152.048 276.24 152.571 276.24ZM164.134 269.44C165.179 269.44 166.011 269.781 166.63 270.464C167.259 271.136 167.574 272.064 167.574 273.248V278.464H164.854V273.616C164.854 273.019 164.699 272.555 164.39 272.224C164.081 271.893 163.665 271.728 163.142 271.728C162.619 271.728 162.203 271.893 161.894 272.224C161.585 272.555 161.43 273.019 161.43 273.616V278.464H158.694V269.536H161.43V270.72C161.707 270.325 162.081 270.016 162.55 269.792C163.019 269.557 163.547 269.44 164.134 269.44Z" fill="black"/>
<defs>
<filter id="filter2_f_86_948" x="-0.00019455" y="6.9002" width="267.278" height="267.278" filterUnits="userSpaceOnUse" color-interpolation-filters="sRGB">
<feFlood flood-opacity="0" result="BackgroundImageFix"/>
<feBlend mode="normal" in="SourceGraphic" in2="BackgroundImageFix" result="shape"/>
<feGaussianBlur stdDeviation="22.4" result="effect1_foregroundBlur_86_948"/>
</filter>
<linearGradient id="paint0_linear_86_948" x1="133.639" y1="51.7002" x2="133.639" y2="229.378" gradientUnits="userSpaceOnUse">
<stop stop-color="#F82EFF"/>
<stop offset="1" stop-color="#2B2687"/>
</linearGradient>
</defs>
</svg>
