<svg width="268" height="320" viewBox="0 0 268 320" fill="none" xmlns="http://www.w3.org/2000/svg">
<rect x="5.63965" width="256" height="320" rx="12" fill="black" fill-opacity="0.01"/>
<rect x="12.04" y="6.39941" width="243.2" height="307.2" rx="19.2" fill="#F0F0F0" fill-opacity="0.9"/>
<g filter="url(#filter2_f_86_954)">
<circle cx="133.639" cy="140.539" r="88.8391" fill="url(#paint0_linear_86_954)"/>
</g>
<path d="M111.505 270.848C111.505 271.499 111.356 272.096 111.057 272.64C110.758 273.173 110.3 273.605 109.681 273.936C109.062 274.267 108.294 274.432 107.377 274.432H105.681V278.464H102.945V267.232H107.377C108.273 267.232 109.03 267.387 109.649 267.696C110.268 268.005 110.732 268.432 111.041 268.976C111.35 269.52 111.505 270.144 111.505 270.848ZM107.169 272.288C107.692 272.288 108.081 272.16 108.337 271.904C108.593 271.648 108.721 271.296 108.721 270.848C108.721 270.4 108.593 270.048 108.337 269.792C108.081 269.536 107.692 269.408 107.169 269.408H105.681V272.288H107.169ZM112.386 273.984C112.386 273.067 112.556 272.261 112.898 271.568C113.25 270.875 113.724 270.341 114.322 269.968C114.919 269.595 115.586 269.408 116.322 269.408C116.951 269.408 117.5 269.536 117.97 269.792C118.45 270.048 118.818 270.384 119.074 270.8V269.536H121.81V278.464H119.074V277.2C118.807 277.616 118.434 277.952 117.954 278.208C117.484 278.464 116.935 278.592 116.306 278.592C115.58 278.592 114.919 278.405 114.322 278.032C113.724 277.648 113.25 277.109 112.898 276.416C112.556 275.712 112.386 274.901 112.386 273.984ZM119.074 274C119.074 273.317 118.882 272.779 118.498 272.384C118.124 271.989 117.666 271.792 117.122 271.792C116.578 271.792 116.114 271.989 115.73 272.384C115.356 272.768 115.17 273.301 115.17 273.984C115.17 274.667 115.356 275.211 115.73 275.616C116.114 276.011 116.578 276.208 117.122 276.208C117.666 276.208 118.124 276.011 118.498 275.616C118.882 275.221 119.074 274.683 119.074 274ZM127.405 278.592C126.637 278.592 125.949 278.459 125.341 278.192C124.733 277.925 124.253 277.563 123.901 277.104C123.549 276.635 123.352 276.112 123.309 275.536H126.013C126.045 275.867 126.184 276.133 126.429 276.336C126.685 276.528 127.005 276.624 127.389 276.624C127.73 276.624 127.992 276.555 128.173 276.416C128.365 276.277 128.461 276.091 128.461 275.856C128.461 275.6 128.328 275.408 128.061 275.28C127.794 275.152 127.357 275.019 126.749 274.88C126.109 274.731 125.576 274.576 125.149 274.416C124.733 274.256 124.37 274 124.061 273.648C123.762 273.285 123.613 272.805 123.613 272.208C123.613 271.685 123.752 271.216 124.029 270.8C124.317 270.373 124.733 270.037 125.277 269.792C125.821 269.536 126.472 269.408 127.229 269.408C128.349 269.408 129.229 269.685 129.869 270.24C130.52 270.795 130.893 271.531 130.989 272.448H128.461C128.418 272.117 128.28 271.861 128.045 271.68C127.821 271.488 127.522 271.392 127.149 271.392C126.829 271.392 126.584 271.456 126.413 271.584C126.242 271.712 126.157 271.893 126.157 272.128C126.157 272.384 126.29 272.576 126.557 272.704C126.834 272.832 127.261 272.96 127.837 273.088C128.488 273.248 129.026 273.413 129.453 273.584C129.88 273.744 130.248 274.011 130.557 274.384C130.866 274.747 131.021 275.237 131.021 275.856C131.021 276.379 130.877 276.848 130.589 277.264C130.301 277.68 129.88 278.005 129.325 278.24C128.781 278.475 128.141 278.592 127.405 278.592ZM136.327 278.592C135.559 278.592 134.871 278.459 134.263 278.192C133.655 277.925 133.175 277.563 132.823 277.104C132.471 276.635 132.273 276.112 132.231 275.536H134.935C134.967 275.867 135.105 276.133 135.351 276.336C135.607 276.528 135.927 276.624 136.311 276.624C136.652 276.624 136.913 276.555 137.095 276.416C137.287 276.277 137.383 276.091 137.383 275.856C137.383 275.6 137.249 275.408 136.983 275.28C136.716 275.152 136.279 275.019 135.671 274.88C135.031 274.731 134.497 274.576 134.071 274.416C133.655 274.256 133.292 274 132.983 273.648C132.684 273.285 132.535 272.805 132.535 272.208C132.535 271.685 132.673 271.216 132.951 270.8C133.239 270.373 133.655 270.037 134.199 269.792C134.743 269.536 135.393 269.408 136.151 269.408C137.271 269.408 138.151 269.685 138.791 270.24C139.441 270.795 139.815 271.531 139.911 272.448H137.383C137.34 272.117 137.201 271.861 136.967 271.68C136.743 271.488 136.444 271.392 136.071 271.392C135.751 271.392 135.505 271.456 135.335 271.584C135.164 271.712 135.079 271.893 135.079 272.128C135.079 272.384 135.212 272.576 135.479 272.704C135.756 272.832 136.183 272.96 136.759 273.088C137.409 273.248 137.948 273.413 138.375 273.584C138.801 273.744 139.169 274.011 139.479 274.384C139.788 274.747 139.943 275.237 139.943 275.856C139.943 276.379 139.799 276.848 139.511 277.264C139.223 277.68 138.801 278.005 138.247 278.24C137.703 278.475 137.063 278.592 136.327 278.592ZM143.009 268.608C142.529 268.608 142.134 268.469 141.825 268.192C141.526 267.904 141.377 267.552 141.377 267.136C141.377 266.709 141.526 266.357 141.825 266.08C142.134 265.792 142.529 265.648 143.009 265.648C143.478 265.648 143.862 265.792 144.161 266.08C144.47 266.357 144.625 266.709 144.625 267.136C144.625 267.552 144.47 267.904 144.161 268.192C143.862 268.469 143.478 268.608 143.009 268.608ZM144.369 269.536V278.464H141.633V269.536H144.369ZM150.415 278.592C149.541 278.592 148.751 278.405 148.047 278.032C147.354 277.659 146.805 277.125 146.399 276.432C146.005 275.739 145.807 274.928 145.807 274C145.807 273.083 146.01 272.277 146.415 271.584C146.821 270.88 147.375 270.341 148.079 269.968C148.783 269.595 149.573 269.408 150.447 269.408C151.322 269.408 152.111 269.595 152.815 269.968C153.519 270.341 154.074 270.88 154.479 271.584C154.885 272.277 155.087 273.083 155.087 274C155.087 274.917 154.879 275.728 154.463 276.432C154.058 277.125 153.498 277.659 152.783 278.032C152.079 278.405 151.29 278.592 150.415 278.592ZM150.415 276.24C150.938 276.24 151.381 276.048 151.743 275.664C152.117 275.269 152.303 274.715 152.303 274C152.303 273.285 152.122 272.736 151.759 272.352C151.407 271.957 150.97 271.76 150.447 271.76C149.914 271.76 149.471 271.952 149.119 272.336C148.767 272.72 148.591 273.275 148.591 274C148.591 274.715 148.762 275.269 149.103 275.664C149.455 276.048 149.893 276.24 150.415 276.24ZM161.979 269.44C163.024 269.44 163.856 269.781 164.475 270.464C165.104 271.136 165.419 272.064 165.419 273.248V278.464H162.699V273.616C162.699 273.019 162.544 272.555 162.235 272.224C161.926 271.893 161.51 271.728 160.987 271.728C160.464 271.728 160.048 271.893 159.739 272.224C159.43 272.555 159.275 273.019 159.275 273.616V278.464H156.539V269.536H159.275V270.72C159.552 270.325 159.926 270.016 160.395 269.792C160.864 269.557 161.392 269.44 161.979 269.44Z" fill="black"/>
<defs>
<filter id="filter2_f_86_954" x="-0.00019455" y="6.9002" width="267.278" height="267.278" filterUnits="userSpaceOnUse" color-interpolation-filters="sRGB">
<feFlood flood-opacity="0" result="BackgroundImageFix"/>
<feBlend mode="normal" in="SourceGraphic" in2="BackgroundImageFix" result="shape"/>
<feGaussianBlur stdDeviation="22.4" result="effect1_foregroundBlur_86_954"/>
</filter>
<linearGradient id="paint0_linear_86_954" x1="133.639" y1="51.7002" x2="133.639" y2="172.388" gradientUnits="userSpaceOnUse">
<stop stop-color="#F2C511"/>
<stop offset="1" stop-color="#C938E3"/>
</linearGradient>
</defs>
</svg>
