<svg width="130" height="65" viewBox="0 0 130 65" fill="none" xmlns="http://www.w3.org/2000/svg">
<path d="M14.0125 1.02793C12.7954 0.934175 8.78309 1.02652 6.04244 2.09617C2.99171 3.28685 2.0394 7.52255 1.28134 11.519C0.272048 16.84 2.08624 20.1075 4.99987 23.8494C6.08035 25.237 7.75402 25.3439 9.55107 25.454C14.664 25.7672 18.8036 20.9592 21.0913 17.965C22.0277 16.7394 21.673 15.1315 21.1018 14.1486C19.4876 11.371 10.2786 15.526 9.94534 15.7827C10.854 14.8172 17.8267 11.1746 19.9284 9.8118C20.849 9.27589 21.4733 9.05603 22.1165 8.82951" stroke="black" stroke-width="2" stroke-linecap="round"/>
<path d="M32.6694 2.44678C32.0151 2.88349 29.9954 5.08181 29.1308 8.73796C28.2722 12.3686 29.4941 15.9108 30.5717 17.8153C31.4155 19.3067 33.5175 19.4083 35.3835 19.4029C37.4355 19.397 38.9374 17.7951 39.8616 16.6101C42.2037 13.6069 39.9905 7.61324 38.3916 5.25248C37.425 4.40884 36.1013 3.78332 34.4239 3.38067C33.5577 3.23089 32.661 3.19187 31.0163 3.26082" stroke="black" stroke-width="2" stroke-linecap="round"/>
<path d="M29.7004 33.3838C29.7004 33.3907 29.7004 33.3975 29.7525 36.1383C29.8046 38.8791 29.9088 44.3535 30.2973 48.3166C30.9156 54.6242 32.2592 57.0799 33.1367 57.3342C36.4862 57.4083 38.2488 56.9798 40.0355 56.2999C40.9519 55.899 41.888 55.3846 42.8524 54.8546" stroke="black" stroke-width="2" stroke-linecap="round"/>
<path d="M30.783 48.7956C30.8051 48.7956 30.8273 48.7956 31.0308 48.6974C31.2343 48.5992 31.6185 48.4027 33.2035 46.9655C34.7884 45.5282 37.5624 42.8561 40.5232 40.0366" stroke="black" stroke-width="2" stroke-linecap="round"/>
<path d="M30.085 33.5646C30.1262 33.5646 31.6632 33.4953 35.1091 33.1093C37.0393 32.7925 39.3382 32.2305 40.6323 31.9094C41.9263 31.5882 42.1459 31.5251 42.3722 31.46" stroke="black" stroke-width="2" stroke-linecap="round"/>
<path d="M45.8264 43.9988C45.8264 43.983 46.0226 44.0248 47.935 45.0527C49.6512 46.0307 52.8816 47.9351 54.7551 48.9926C56.6286 50.0502 57.0475 50.203 57.479 50.3605" stroke="black" stroke-width="2" stroke-linecap="round"/>
<path d="M52.6453 40.3306C52.6453 40.3645 52.6453 40.3983 52.3853 42.7998C52.1253 45.2012 51.6053 49.9691 51.3347 52.818C51.0641 55.667 51.0588 56.4525 50.9844 56.9684C50.9101 57.4844 50.7669 57.7071 50.6194 57.9365" stroke="black" stroke-width="2" stroke-linecap="round"/>
<path d="M58.6318 37.6802C58.6318 37.8351 58.6481 39.4971 58.9495 43.5707C59.2346 46.0622 59.788 49.4151 60.613 52.9142C61.4379 56.4133 62.5177 59.957 63.6348 63.7525" stroke="black" stroke-width="2" stroke-linecap="round"/>
<path d="M59.4756 40.0055C60.2373 39.792 63.2315 39.3662 64.7293 40.047C65.748 40.5101 65.6038 42.909 65.6598 44.5789C65.7098 46.0731 64.4838 47.5282 63.2522 48.861C62.8568 49.2092 62.357 49.5929 61.9536 49.8499C61.5502 50.1069 61.2585 50.2257 60.47 50.3812" stroke="black" stroke-width="2" stroke-linecap="round"/>
<path d="M67.8933 26.0723C67.8933 26.0644 67.8933 26.0565 67.8988 26.1759C67.9043 26.2952 67.9152 26.5421 68.6856 30.1379C69.4559 33.7336 70.9854 40.6707 72.5612 47.818" stroke="black" stroke-width="2" stroke-linecap="round"/>
<path d="M76.0192 36.5626C76.0495 37.9084 76.2889 41.3366 76.7615 42.7553C77.1497 43.9208 78.0678 44.6347 78.8824 45.1383C79.4986 45.5192 80.2958 45.2983 80.9093 44.9905C82.9655 43.959 84.1249 40.7877 84.3653 38.2804C84.5855 35.9846 82.9051 34.3979 81.9747 33.5198C81.1246 32.7175 79.7346 32.6643 77.3622 32.6509C76.8131 32.6808 76.4844 32.7389 76.0788 32.8633C75.6732 32.9876 75.2006 33.1764 74.5708 33.6372" stroke="black" stroke-width="2" stroke-linecap="round"/>
<path d="M84.2424 28.9785C84.2455 29.0078 84.2485 29.0371 85.2555 30.7416C86.2624 32.4462 88.2731 35.825 89.4151 37.8634C90.557 39.9017 90.7692 40.4971 90.8501 40.6819C91.3792 41.8902 89.5077 36.6829 89.2512 34.6592C88.8983 31.875 89.3721 31.0498 89.5571 30.6444C89.6832 30.4552 89.8748 30.2998 90.3536 30.2041C90.8325 30.1083 91.5927 30.077 92.376 30.0447" stroke="black" stroke-width="2" stroke-linecap="round"/>
<path d="M98.3362 27.5635C98.3362 27.5857 98.3362 27.6079 98.4482 30.1562C98.5602 32.7046 98.7841 34.7783 99.0149 40.0059" stroke="black" stroke-width="2" stroke-linecap="round"/>
<path d="M103.677 26.1567C103.677 26.2316 103.851 28.6822 104.333 33.0464C104.55 35.0109 105.08 36.418 105.305 37.03C106.003 38.9228 105.311 30.1109 105.528 29.2303C105.865 27.8628 108.439 27.2664 109.376 27.1994C109.583 27.2806 109.778 27.4587 110.471 28.8307C111.164 30.2027 112.348 32.7632 113.895 35.6862" stroke="black" stroke-width="2" stroke-linecap="round"/>
<path d="M124.467 24.0134C124.047 23.6613 122.633 22.7565 121.212 22.5954C120.662 22.5331 120.213 22.8438 119.788 23.2329C118.784 24.1538 118.647 25.3456 118.326 27.737C118.004 30.134 118.333 31.8454 118.47 32.2918C118.604 32.724 118.989 33.1541 119.533 33.5603C120.089 33.9759 120.833 33.8397 121.478 33.6274C123.821 32.8574 125.463 30.1837 125.793 29.3976C126.414 27.9228 125.84 25.6887 125.692 25.6454C125.556 25.6055 125.641 26.225 126.18 30.1005C126.719 33.9759 127.797 41.2664 128.351 45.4194C129.166 51.535 128.504 53.0242 127.731 54.3169C126.859 55.7736 124.358 56.1664 119.497 56.3654C117.867 56.2539 116.973 55.9972 116.375 55.6677C116.108 55.5042 115.912 55.3486 115.71 55.1882" stroke="black" stroke-width="2" stroke-linecap="round"/>
<path d="M96.9783 19.9668C96.9925 19.9668 97.2004 20.0534 97.5546 20.2913C97.9238 20.5392 97.9578 21.1046 97.9326 21.4924C97.8629 21.6511 97.6774 21.7326 97.5342 21.6701C97.391 21.6075 97.2957 21.3983 97.1975 21.1828" stroke="black" stroke-width="2" stroke-linecap="round"/>
</svg>
