<svg width="49" height="48" viewBox="0 0 49 48" fill="none" xmlns="http://www.w3.org/2000/svg">
<path d="M42.0453 35.9711C45.1394 35.6323 47.9196 37.8728 48.2462 40.9682C48.5727 44.0636 46.3214 46.8349 43.2247 47.1494C40.1453 47.462 37.3927 45.2259 37.0678 42.1477C36.7431 39.0695 38.9684 36.308 42.0453 35.9711Z" fill="#4B6D4D"/>
<path d="M41.8454 0.0596332C44.9209 -0.389242 47.7764 1.74464 48.2172 4.8213C48.658 7.89797 46.5165 10.7478 43.4387 11.1805C40.3724 11.6115 37.5355 9.47985 37.0963 6.41459C36.6571 3.34941 38.7814 0.50695 41.8454 0.0596332Z" fill="#D1DBED"/>
<path d="M41.9823 17.9475C45.0703 17.5738 47.8735 19.7824 48.2328 22.8721C48.5921 25.9619 46.3706 28.7548 43.2793 29.0998C40.208 29.4426 37.4373 27.2387 37.0803 24.1691C36.7234 21.0995 38.9144 18.3187 41.9823 17.9475Z" fill="#D1DBED"/>
<path d="M24.0647 35.9772C27.1409 35.665 29.8893 37.9021 30.2081 40.9777C30.5269 44.0533 28.2958 46.8065 25.221 47.132C22.1366 47.4585 19.373 45.219 19.0533 42.134C18.7334 39.0489 20.9789 36.2903 24.0647 35.9772Z" fill="#EDC765"/>
<path d="M4.97608 35.9871C8.06004 35.6378 10.8411 37.8604 11.1801 40.9456C11.5191 44.0307 9.28715 46.8043 6.20089 47.1331C3.12914 47.4603 0.3715 45.2411 0.0340232 42.1705C-0.303371 39.0998 1.90655 36.3348 4.97608 35.9871Z" fill="#4F7CB8"/>
<path d="M23.8946 0.0623539C26.9579 -0.344029 29.7719 1.80691 30.1836 4.86955C30.5953 7.93227 28.4493 10.75 25.3873 11.167C22.3178 11.585 19.4916 9.43254 19.0789 6.36235C18.6662 3.29209 20.8236 0.469721 23.8946 0.0623539Z" fill="#EDC765"/>
<path d="M4.76341 0.0825432C7.82564 -0.388152 10.6884 1.7162 11.1529 4.77932C11.6175 7.84245 9.50752 10.701 6.44349 11.1596C3.38799 11.6169 0.539129 9.514 0.0758167 6.4594C-0.387414 3.40481 1.70971 0.551844 4.76341 0.0825432Z" fill="#EA5B3D"/>
<path d="M24.0869 17.9478C27.167 17.6513 29.9035 19.9099 30.1965 22.9903C30.4895 26.0708 28.2278 28.8047 25.147 29.0941C22.0712 29.3831 19.3427 27.1258 19.0502 24.0504C18.7577 20.9749 21.0118 18.2438 24.0869 17.9478Z" fill="#DAE1D8"/>
<path d="M4.9005 17.9716C7.97503 17.5764 10.7852 19.7556 11.1679 22.8317C11.5506 25.9078 9.36013 28.7091 6.28248 29.0793C3.22239 29.4476 0.440545 27.2723 0.0600021 24.2137C-0.320541 21.1551 1.84344 18.3645 4.9005 17.9716Z" fill="#F6CBC8"/>
</svg>
