<svg width="200" height="200" viewBox="0 0 200 200" fill="none" xmlns="http://www.w3.org/2000/svg">
<path d="M98.7038 39.8961L101.329 39.874C101.681 42.0605 101.704 44.7361 101.814 47.0482C102.813 67.8791 114.494 96.0641 138.137 98.2189C139.198 98.3156 142.174 98.5617 142.002 100.133C141.812 101.874 137.133 101.823 135.639 102.056C130.822 102.832 126.282 104.824 122.448 107.843C110.043 117.487 103.633 134.228 102.147 149.373C101.793 152.981 101.747 156.67 101.324 160.109C100.256 160.169 99.6818 160.117 98.632 160.024C98.5029 159.296 98.4497 158.52 98.4263 157.78C98.2208 151.256 97.5521 144.94 95.9986 138.571C91.9753 122.075 80.3771 103.179 61.7716 101.676C60.7693 101.595 59.5193 101.662 58.6443 101.136C56.4165 98.1896 62.4035 98.2191 63.9566 97.9893C68.4585 97.3361 72.739 95.6156 76.4404 92.9709C88.6906 84.291 95.6109 67.8998 97.5064 53.4246C98.0701 49.1199 98.099 43.4928 98.7038 39.8961Z" fill="#3EFAE2"/>
</svg>
