<svg width="136" height="147" viewBox="0 0 136 147" fill="none" xmlns="http://www.w3.org/2000/svg">
<path d="M64.1138 0.145691C80.8013 -1.2609 102.393 7.71197 114.387 18.66C126.018 29.2797 135.557 53.3618 135.428 69.2035C135.329 81.9977 134.092 83.6094 128.379 94.2409C122.772 104.673 120.452 108.887 112.336 117.555C111.393 123.815 110.825 129.992 107.42 135.478C99.9848 147.469 87.6568 149.245 76.1314 142.141L72.7681 139.709C62.6255 139.926 61.395 138.496 52.4659 134.024C49.8679 132.723 45.2407 132.752 42.011 131C23.203 120.82 9.16454 103.63 2.93954 83.1699C-2.22492 66.0856 -0.482324 55.2724 7.36396 38.9325C9.5542 34.3728 14.4485 29.5904 16.8884 25.7867C30.9901 3.80869 42.2513 6.48122 64.1138 0.145691Z" fill="#0593C9"/>
<path d="M63.8206 4.89892C80.9124 3.22859 93.5159 10.1912 107.59 18.8945C117.668 25.1246 128.608 48.3158 130.02 60.1194C131.825 75.1875 131.321 81.2242 123.141 94.077C121.266 97.0132 118.875 103.149 116.52 106.32C114.557 109.18 109.172 113.3 108.182 116.536C104.854 127.401 105.95 139.897 91.1897 141.462C84.803 142.136 81.2991 140.465 76.1898 136.492C73.6234 134.587 73.0784 135.097 69.8616 135.138C63.1175 135.22 59.4143 132.735 54.264 129.037C43.6638 128.691 36.3132 122.426 28.1886 116.096C24.5558 113.265 21.8944 108.037 19.0802 104.433C0.768447 80.978 -1.02158 52.4066 19.8214 29.5846C22.4487 25.7634 24.7327 22.4521 27.8979 19.0586C38.4173 7.77073 50.3534 9.89233 63.8206 4.89892Z" fill="#FC512C"/>
<path d="M66.0007 11.9787C69.2586 11.7442 72.7273 11.9083 75.9382 12.5003C87.7214 14.6629 104.262 23.0908 111.018 33.1069C119.057 45.0219 126.821 64.3743 122.696 78.8329C121.928 81.523 112.378 98.9355 110.585 101.749C108.048 105.722 103.489 108.014 101.55 112.468C99.9441 116.155 99.8503 120.808 99.03 124.741C98.3855 127.829 97.0906 131.105 94.2488 132.793C82.864 139.563 80.4207 125.813 76.1082 124.623C74.3914 125.942 72.6394 127.044 70.571 127.73C62.5261 130.379 63.2644 122.543 57.5849 120.72C54.3986 119.694 51.6371 122.426 47.7535 120.363C31.6343 111.718 19.608 97.0249 14.3193 79.5069C10.7632 67.6857 11.4582 56.4974 17.5004 45.5201C20.055 40.8784 23.8015 36.7757 26.9339 32.5032C38.5009 16.7377 39.8808 18.7479 57.9564 14.6395C60.6394 14.03 63.3289 12.7699 66.0007 11.9787Z" fill="#FA658B"/>
<path d="M67.2309 19.4687C67.7642 19.4336 68.2739 19.416 68.8071 19.416C78.7856 19.4453 94.7349 26.6424 101.702 33.7164C104.608 36.6585 106.612 40.2804 108.504 43.92C114.311 55.079 116.022 64.5149 115.829 76.9574C114.34 79.5244 112.442 81.8219 110.983 84.4182C108.762 88.3919 107.174 93.0277 104.584 96.7493C101.602 101.039 97.102 104.058 94.688 108.805C92.3794 113.341 93.7154 122.625 90.1118 125.971C89.1802 126.839 88.77 126.669 87.5864 126.616C84.979 124.764 83.5844 120.615 82.0844 117.866C81.0415 115.961 80.0044 114.426 77.8305 113.781C76.143 113.851 75.4399 114.478 74.2036 115.522C74.0513 115.65 73.9048 115.785 73.7524 115.914C72.0767 117.813 70.2368 119.595 68.4731 121.412C66.1411 118.657 63.4751 111.87 59.813 111.143C57.1487 110.616 53.9249 113.206 51.7253 114.584C50.1292 113.195 48.573 111.349 46.8427 110.165C44.0671 108.272 40.8772 107.211 38.2774 104.984C34.7618 101.971 24.73 86.2351 22.9393 81.5347C19.078 71.3896 18.3561 61.8659 22.927 51.8204C25.2298 46.7626 28.8397 43.2812 32.0624 38.8915C34.1507 36.049 35.6577 32.7787 37.9862 30.112C43.9154 23.3252 51.5624 24.0285 59.6079 22.1472C62.1802 21.5435 64.7642 20.4006 67.2309 19.4687Z" fill="#FDC128"/>
<path d="M77.4557 36.9046C79.1257 36.846 80.983 36.6878 82.5299 37.438C85.3072 38.7918 87.0534 41.646 87.9147 44.5237C90.7096 53.8892 87.9967 65.9097 83.4205 74.2672L82.0436 75.4863C81.0651 75.5097 80.6139 75.6739 79.7995 75.1171C76.5299 72.8666 75.3757 66.1442 74.8249 62.5046C73.7526 55.4072 73.0143 42.8475 77.4557 36.9046Z" fill="#FC512C"/>
<path d="M51.0029 38.6162C53.5582 38.6631 55.7215 38.8272 57.7705 40.5913C60.8443 43.2404 62.0514 47.6946 62.3854 51.5862C63.0006 58.8829 62.4616 68.8697 57.5619 74.7305C56.0731 74.3495 54.8244 73.6873 53.7205 72.603C48.5654 67.5451 46.3213 59.2579 46.2938 52.2074C46.2733 46.9268 47.2541 42.4433 51.0029 38.6162Z" fill="#FC512C"/>
<path d="M103.337 69.0981L103.999 69.5494C104.391 70.37 104.79 70.6981 104.538 71.6241C103.858 74.1091 99.0944 76.1897 96.9382 77.3911C97.5065 80.5208 98.2565 83.6388 98.9245 86.7509C97.0553 88.937 95.0163 90.66 92.7663 92.4417C91.5358 95.6358 90.2526 100.336 87.3288 102.3C85.6823 103.413 80.8952 99.5626 78.7155 99.2168C75.6217 98.7187 71.7663 99.6094 69.3464 101.567C68.4499 102.288 67.694 102.833 66.6686 103.36C62.4382 102.651 58.3542 97.019 55.5305 94.0358C53.0321 94.4871 50.1241 95.3663 47.604 95.3077C45.9915 95.2666 44.3245 94.7919 43.2106 93.567C40.9817 91.1113 41.4387 86.3641 41.4299 83.2403C38.921 80.808 37.312 78.7626 35.9298 75.5392C35.8888 73.611 35.5841 71.7941 36.7794 70.1648L37.571 70.3699C38.3005 72.1399 39.1401 73.9216 39.7448 75.7325C40.6665 78.5047 42.2766 80.2981 44.1428 82.5018C44.2606 85.3326 43.9876 89.4879 45.3311 92.0021C46.2417 93.7076 54.2397 91.041 56.2132 91.4747C60.6042 92.4417 61.6061 99.0468 65.8132 99.9787C69.0007 100.688 73.7116 95.5772 77.2624 95.5655C80.1335 95.5596 82.9694 98.4901 85.7819 99.2637C89.9245 95.419 89.86 91.0468 96.1061 86.1179C95.4206 83.9142 94.36 81.3003 94.3952 78.9736C94.4596 74.7831 100.542 71.7824 103.337 69.0981Z" fill="#FC512C"/>
</svg>
