<svg width="85" height="55" viewBox="0 0 85 55" fill="none" xmlns="http://www.w3.org/2000/svg">
<path d="M1 6.02884C1.06078 6.02884 3.85517 8.97903 8.67895 13.9078C12.0142 16.8041 13.8572 18.0255 14.888 18.4748C15.3891 18.6482 15.8456 18.7107 16.0649 18.1613" stroke="black" stroke-width="2" stroke-linecap="round"/>
<path d="M8.86187 4.51929C8.86187 4.58841 8.75103 5.57802 8.21098 8.64545C7.78176 10.7589 7.03751 14.0028 6.57753 16.3369C6.11756 18.6709 5.96442 19.9967 5.80664 22.2313" stroke="black" stroke-width="2" stroke-linecap="round"/>
<path d="M13.5625 5.20086C13.5736 5.21194 13.6123 7.40979 13.7066 10.8694C13.7489 12.4199 14.0948 12.9368 14.4185 13.3993C15.0651 14.3231 16.2871 14.622 17.3632 14.8166C17.8409 14.9029 18.3173 14.8257 18.7709 14.7351C19.7082 14.548 20.1812 13.1034 20.569 11.4108C20.8746 10.0768 20.6636 8.90138 20.4655 8.19981C20.0233 6.63437 18.543 5.84009 17.5967 5.39445C17.3695 5.31834 17.1505 5.26421 16.7513 5.21328C16.3521 5.16235 15.7793 5.11626 15.1892 5.06877" stroke="black" stroke-width="2" stroke-linecap="round"/>
<path d="M20.7266 2.9402C20.9059 2.94502 21.4408 3.03414 23.6123 4.52095C25.5846 5.92844 29.3236 8.6617 31.3441 10.1209C33.3646 11.5802 33.5532 11.6825 33.7476 11.788" stroke="black" stroke-width="2" stroke-linecap="round"/>
<path d="M29.8849 1C29.8793 1 29.8738 1 29.3923 2.86139C28.9107 4.72278 27.9534 8.44556 27.3218 11.5686C26.6901 14.6916 26.4132 17.1021 26.1279 19.5856" stroke="black" stroke-width="2" stroke-linecap="round"/>
<path d="M34.5805 3.36352C34.8033 4.34876 35.9887 7.89878 36.7895 9.30552C37.0061 9.68613 37.3095 9.90785 37.6008 10.079C37.9515 10.2849 38.4222 10.2082 38.8235 10.02C39.535 9.68623 39.8183 8.78726 40.0684 8.10638C40.3995 7.20485 40.1639 5.92471 39.6941 4.74377C39.0191 3.0469 38.1734 1.94913 37.9063 1.67395C37.2329 0.980295 35.6741 1.1634 34.5992 1.43177C34.4263 1.54138 34.3169 1.68108 34.2455 1.84138C34.1741 2.00169 34.1439 2.17837 34.1128 2.3604" stroke="black" stroke-width="2" stroke-linecap="round"/>
<path d="M42.955 30.2146C43.1415 34.1443 43.9239 39.0466 39.3252 53.6649" stroke="black" stroke-width="2" stroke-linecap="round"/>
<path d="M43.1792 30.8899C43.421 30.9475 44.2354 31.4024 46.4658 34.9052C47.986 37.2926 50.4707 41.9607 51.8198 43.9932C53.1688 46.0256 53.2236 45.3917 53.2776 40.2291C53.3316 35.0664 53.3831 25.3941 53.4362 15.4287" stroke="black" stroke-width="2" stroke-linecap="round"/>
<path d="M59.2817 25.2615V39.9283" stroke="black" stroke-width="2" stroke-linecap="round"/>
<path d="M59.9614 17.2541V18.3866" stroke="black" stroke-width="2" stroke-linecap="round"/>
<path d="M70.7267 26.0371C71.1155 24.6315 70.3681 23.0764 68.1548 23.0764C66.5399 23.0764 66.0472 24.0906 65.8393 24.2764C65.4105 24.6596 65.0006 26.2858 64.5595 29.1131C63.7041 34.5951 64.6209 37.6478 65.4037 39.4225C66.0304 40.8431 68.1382 41.9089 69.666 41.9089C70.7267 41.9089 70.8316 42.0895 71.1817 41.6786C72.2523 40.422 72.3771 40.2419 72.4916 39.2556C72.5448 38.6191 72.671 37.85 72.0825 36.6883" stroke="black" stroke-width="2" stroke-linecap="round"/>
<path d="M76.9186 23.5736C76.9113 24.0837 76.2978 28.0556 75.9602 34.6992C75.8362 37.1397 77.095 39.1965 77.706 40.0403C78.2816 40.8352 79.6801 40.7988 80.7294 40.7371C81.3041 40.7033 81.7854 40.1768 82.2345 39.7827C84.0737 38.1682 83.7131 32.2295 83.4875 30.2099C83.1596 27.2753 81.8108 26.3598 80.1883 25.1807C79.6742 24.8765 79.1215 24.6045 78.703 24.3832C78.2844 24.1618 78.0168 23.9994 77.2251 23.6428" stroke="black" stroke-width="2" stroke-linecap="round"/>
</svg>
