<svg width="470" height="334" viewBox="0 0 470 334" fill="none" xmlns="http://www.w3.org/2000/svg">
<path d="M50 138.342C51.996 139.244 69.4908 153.811 93.4279 174.668C103.046 182.788 107.529 185.907 112.934 189.075C118.339 192.243 124.53 195.366 130.909 198.584" stroke="black" stroke-width="22" stroke-linecap="round"/>
<path d="M164.363 104.598C164.363 117.778 165.426 147.967 169.994 155.825C175.115 164.635 182.681 167.065 190.051 168.411C198.238 169.905 206.689 162.142 211.375 156.373C217.038 149.4 215.177 132.697 212.84 121.425C209.074 103.264 197.374 97.5306 190.958 92.7991C184.583 90.9126 177.575 90.9495 174.705 91.7154C173.335 92.2198 172.142 92.9592 170.912 93.7209" stroke="black" stroke-width="22" stroke-linecap="round"/>
<path d="M226.699 53.9268C226.647 53.9268 226.595 53.9268 237.515 71.4211C248.436 88.9155 270.331 123.904 282.167 142.567C294.002 161.229 295.113 162.505 298.296 165.669" stroke="black" stroke-width="22" stroke-linecap="round"/>
<path d="M283.171 50.7515C283.171 50.6476 282.953 55.8365 279.43 81.6101C276.125 102.141 269.739 137.802 266.248 162.585C262.757 187.367 262.355 200.191 261.94 213.403" stroke="black" stroke-width="22" stroke-linecap="round"/>
<path d="M324.789 51.6C324.89 66.7955 326.455 100.013 329.198 104.56C333.569 111.804 347.322 114.35 355.158 115.937C358.918 116.698 362.648 115.096 365.299 113.041C371.084 108.558 371.196 86.0025 368.739 69.4914C365.923 50.5755 355.897 47.8247 349.652 44.5118C344.627 42.8221 339.389 41.8498 335.185 42.019C333.253 42.2502 331.729 42.7767 328.234 44.833" stroke="black" stroke-width="22" stroke-linecap="round"/>
<path d="M110.668 116.537C110.668 116.429 110.147 119.021 101.501 147.876C93.3762 174.083 77.664 223.769 69.268 251.099C60.8721 278.429 60.2685 281.896 59.5908 286.245" stroke="black" stroke-width="22" stroke-linecap="round"/>
</svg>
