<svg width="268" height="320" viewBox="0 0 268 320" fill="none" xmlns="http://www.w3.org/2000/svg">
<rect x="5.64062" width="256" height="320" rx="12" fill="black" fill-opacity="0.01"/>
<rect x="12.04" y="6.39941" width="243.2" height="307.2" rx="19.2" fill="#F0F0F0" fill-opacity="0.9"/>
<g filter="url(#filter2_f_86_939)">
<circle cx="133.639" cy="140.539" r="88.8391" fill="url(#paint0_linear_86_939)"/>
</g>
<path d="M96.4436 284.576C95.3876 284.576 94.417 284.331 93.5316 283.84C92.657 283.349 91.9583 282.667 91.4356 281.792C90.9236 280.907 90.6676 279.915 90.6676 278.816C90.6676 277.717 90.9236 276.731 91.4356 275.856C91.9583 274.981 92.657 274.299 93.5316 273.808C94.417 273.317 95.3876 273.072 96.4436 273.072C97.4996 273.072 98.465 273.317 99.3396 273.808C100.225 274.299 100.918 274.981 101.42 275.856C101.932 276.731 102.188 277.717 102.188 278.816C102.188 279.915 101.932 280.907 101.42 281.792C100.908 282.667 100.214 283.349 99.3396 283.84C98.465 284.331 97.4996 284.576 96.4436 284.576ZM96.4436 282.048C97.3396 282.048 98.0543 281.755 98.5876 281.168C99.1316 280.581 99.4036 279.797 99.4036 278.816C99.4036 277.835 99.1316 277.051 98.5876 276.464C98.0543 275.877 97.3396 275.584 96.4436 275.584C95.537 275.584 94.8116 275.877 94.2676 276.464C93.7343 277.051 93.4676 277.835 93.4676 278.816C93.4676 279.797 93.7343 280.581 94.2676 281.168C94.8116 281.755 95.537 282.048 96.4436 282.048ZM106.446 276.8C106.712 276.384 107.08 276.048 107.55 275.792C108.019 275.536 108.568 275.408 109.198 275.408C109.934 275.408 110.6 275.595 111.198 275.968C111.795 276.341 112.264 276.875 112.606 277.568C112.958 278.261 113.134 279.067 113.134 279.984C113.134 280.901 112.958 281.712 112.606 282.416C112.264 283.109 111.795 283.648 111.198 284.032C110.6 284.405 109.934 284.592 109.198 284.592C108.579 284.592 108.03 284.464 107.55 284.208C107.08 283.952 106.712 283.621 106.446 283.216V288.72H103.71V275.536H106.446V276.8ZM110.35 279.984C110.35 279.301 110.158 278.768 109.774 278.384C109.4 277.989 108.936 277.792 108.382 277.792C107.838 277.792 107.374 277.989 106.99 278.384C106.616 278.779 106.43 279.317 106.43 280C106.43 280.683 106.616 281.221 106.99 281.616C107.374 282.011 107.838 282.208 108.382 282.208C108.926 282.208 109.39 282.011 109.774 281.616C110.158 281.211 110.35 280.667 110.35 279.984ZM119.545 282.144V284.464H118.153C117.161 284.464 116.388 284.224 115.833 283.744C115.278 283.253 115.001 282.459 115.001 281.36V277.808H113.913V275.536H115.001V273.36H117.737V275.536H119.529V277.808H117.737V281.392C117.737 281.659 117.801 281.851 117.929 281.968C118.057 282.085 118.27 282.144 118.569 282.144H119.545ZM122.445 274.608C121.965 274.608 121.57 274.469 121.261 274.192C120.962 273.904 120.813 273.552 120.813 273.136C120.813 272.709 120.962 272.357 121.261 272.08C121.57 271.792 121.965 271.648 122.445 271.648C122.914 271.648 123.298 271.792 123.597 272.08C123.906 272.357 124.061 272.709 124.061 273.136C124.061 273.552 123.906 273.904 123.597 274.192C123.298 274.469 122.914 274.608 122.445 274.608ZM123.805 275.536V284.464H121.069V275.536H123.805ZM137.18 275.44C138.289 275.44 139.169 275.776 139.82 276.448C140.481 277.12 140.812 278.053 140.812 279.248V284.464H138.092V279.616C138.092 279.04 137.937 278.597 137.628 278.288C137.329 277.968 136.913 277.808 136.38 277.808C135.847 277.808 135.425 277.968 135.116 278.288C134.817 278.597 134.668 279.04 134.668 279.616V284.464H131.948V279.616C131.948 279.04 131.793 278.597 131.484 278.288C131.185 277.968 130.769 277.808 130.236 277.808C129.703 277.808 129.281 277.968 128.972 278.288C128.673 278.597 128.524 279.04 128.524 279.616V284.464H125.788V275.536H128.524V276.656C128.801 276.283 129.164 275.989 129.612 275.776C130.06 275.552 130.567 275.44 131.132 275.44C131.804 275.44 132.401 275.584 132.924 275.872C133.457 276.16 133.873 276.571 134.172 277.104C134.481 276.613 134.903 276.213 135.436 275.904C135.969 275.595 136.551 275.44 137.18 275.44ZM144.101 274.608C143.621 274.608 143.227 274.469 142.917 274.192C142.619 273.904 142.469 273.552 142.469 273.136C142.469 272.709 142.619 272.357 142.917 272.08C143.227 271.792 143.621 271.648 144.101 271.648C144.571 271.648 144.955 271.792 145.253 272.08C145.563 272.357 145.717 272.709 145.717 273.136C145.717 273.552 145.563 273.904 145.253 274.192C144.955 274.469 144.571 274.608 144.101 274.608ZM145.461 275.536V284.464H142.725V275.536H145.461ZM151.06 284.592C150.292 284.592 149.604 284.459 148.996 284.192C148.388 283.925 147.908 283.563 147.556 283.104C147.204 282.635 147.007 282.112 146.964 281.536H149.668C149.7 281.867 149.839 282.133 150.084 282.336C150.34 282.528 150.66 282.624 151.044 282.624C151.385 282.624 151.647 282.555 151.828 282.416C152.02 282.277 152.116 282.091 152.116 281.856C152.116 281.6 151.983 281.408 151.716 281.28C151.449 281.152 151.012 281.019 150.404 280.88C149.764 280.731 149.231 280.576 148.804 280.416C148.388 280.256 148.025 280 147.716 279.648C147.417 279.285 147.268 278.805 147.268 278.208C147.268 277.685 147.407 277.216 147.684 276.8C147.972 276.373 148.388 276.037 148.932 275.792C149.476 275.536 150.127 275.408 150.884 275.408C152.004 275.408 152.884 275.685 153.524 276.24C154.175 276.795 154.548 277.531 154.644 278.448H152.116C152.073 278.117 151.935 277.861 151.7 277.68C151.476 277.488 151.177 277.392 150.804 277.392C150.484 277.392 150.239 277.456 150.068 277.584C149.897 277.712 149.812 277.893 149.812 278.128C149.812 278.384 149.945 278.576 150.212 278.704C150.489 278.832 150.916 278.96 151.492 279.088C152.143 279.248 152.681 279.413 153.108 279.584C153.535 279.744 153.903 280.011 154.212 280.384C154.521 280.747 154.676 281.237 154.676 281.856C154.676 282.379 154.532 282.848 154.244 283.264C153.956 283.68 153.535 284.005 152.98 284.24C152.436 284.475 151.796 284.592 151.06 284.592ZM161.342 282.144V284.464H159.95C158.958 284.464 158.185 284.224 157.63 283.744C157.075 283.253 156.798 282.459 156.798 281.36V277.808H155.71V275.536H156.798V273.36H159.534V275.536H161.326V277.808H159.534V281.392C159.534 281.659 159.598 281.851 159.726 281.968C159.854 282.085 160.067 282.144 160.366 282.144H161.342ZM164.242 274.608C163.762 274.608 163.367 274.469 163.058 274.192C162.759 273.904 162.61 273.552 162.61 273.136C162.61 272.709 162.759 272.357 163.058 272.08C163.367 271.792 163.762 271.648 164.242 271.648C164.711 271.648 165.095 271.792 165.394 272.08C165.703 272.357 165.858 272.709 165.858 273.136C165.858 273.552 165.703 273.904 165.394 274.192C165.095 274.469 164.711 274.608 164.242 274.608ZM165.602 275.536V284.464H162.866V275.536H165.602ZM167.041 280C167.041 279.072 167.227 278.261 167.601 277.568C167.985 276.875 168.513 276.341 169.185 275.968C169.867 275.595 170.646 275.408 171.521 275.408C172.641 275.408 173.574 275.701 174.321 276.288C175.078 276.875 175.574 277.701 175.809 278.768H172.897C172.651 278.085 172.177 277.744 171.473 277.744C170.971 277.744 170.571 277.941 170.273 278.336C169.974 278.72 169.825 279.275 169.825 280C169.825 280.725 169.974 281.285 170.273 281.68C170.571 282.064 170.971 282.256 171.473 282.256C172.177 282.256 172.651 281.915 172.897 281.232H175.809C175.574 282.277 175.078 283.099 174.321 283.696C173.563 284.293 172.63 284.592 171.521 284.592C170.646 284.592 169.867 284.405 169.185 284.032C168.513 283.659 167.985 283.125 167.601 282.432C167.227 281.739 167.041 280.928 167.041 280Z" fill="black"/>
<defs>
<filter id="filter2_f_86_939" x="-0.00019455" y="6.9002" width="267.278" height="267.278" filterUnits="userSpaceOnUse" color-interpolation-filters="sRGB">
<feFlood flood-opacity="0" result="BackgroundImageFix"/>
<feBlend mode="normal" in="SourceGraphic" in2="BackgroundImageFix" result="shape"/>
<feGaussianBlur stdDeviation="22.4" result="effect1_foregroundBlur_86_939"/>
</filter>
<linearGradient id="paint0_linear_86_939" x1="133.639" y1="51.7002" x2="133.639" y2="229.378" gradientUnits="userSpaceOnUse">
<stop stop-color="#F5FF8B"/>
<stop offset="1" stop-color="#DFED43"/>
</linearGradient>
</defs>
</svg>
