<svg width="57" height="78" viewBox="0 0 57 78" fill="none" xmlns="http://www.w3.org/2000/svg">
<path d="M25.3 0.0628037C29.1773 -0.010083 33.1191 0.0656489 37.017 0.0370083C39.3399 0.208668 42.4855 -0.267574 44.7194 0.248325C46.8443 0.738979 49.7887 2.07683 51.8041 2.89758C54.144 3.85043 57.305 3.81775 56.0987 7.21663C55.3488 9.32988 54.3372 11.303 53.5274 13.3673C49.5403 23.5603 45.4328 33.7059 41.2057 43.8019C40.3234 45.9482 39.5803 48.4146 38.526 50.428C37.7962 51.8214 34.8783 51.4182 33.6002 51.4832C30.8001 51.6256 27.6588 51.2527 24.9038 51.4803C26.3394 52.3515 28.2858 52.8033 29.8107 53.781C32.5974 55.5674 34.5404 58.5184 35.216 61.7368C36.0619 65.7669 35.0721 68.8011 32.9801 72.1554C32.5909 72.6344 32.1833 73.0981 31.758 73.5454C29.5605 75.8173 26.4919 77.2758 23.31 77.3388C21.8602 77.3674 20.1624 77.1321 18.7643 76.7674C17.0431 76.3185 15.2913 75.4398 13.6328 74.8057C10.183 73.4865 6.44131 72.6773 3.75598 69.989C1.34925 67.5796 0.0339793 64.2621 0.000473433 60.8745C-0.0338586 57.395 1.80281 53.7231 4.28592 51.3593C4.80384 50.8662 5.09245 50.5925 5.63056 50.1707C6.17097 49.747 8.79021 48.602 8.98197 48.4069C8.77901 48.0085 7.75814 47.782 7.3221 47.5895C5.84243 46.9364 5.5876 46.1683 6.08009 44.6926C6.66226 42.9479 7.4598 41.3377 8.13643 39.6412L13.8342 25.6153L20.8017 8.50582C21.6616 6.37127 22.4588 4.12986 23.3176 1.98696C23.7027 1.0264 24.3211 0.446423 25.3 0.0628037Z" fill="black"/>
<path d="M26.1264 1.09534C31.3485 0.987568 36.6447 1.16584 41.8732 1.09185C42.4914 1.08313 44.464 1.09616 44.9157 1.43912C44.9432 1.52724 44.9636 1.61436 44.9704 1.7068C45.0492 2.77081 33.4377 30.741 32.1046 34.0277L28.7012 42.4616C28.3668 43.2853 28.0441 44.2487 27.695 45.0445C27.5549 45.3713 27.363 45.6733 27.1267 45.939C26.6211 46.5079 26.4668 46.5016 25.7348 46.5515C25.3328 46.5714 24.8957 46.5673 24.4915 46.5666C19.1471 46.557 13.8007 46.5464 8.45681 46.5722C6.7884 46.5803 6.64446 45.9699 7.22269 44.5346C8.2107 42.0825 9.29005 39.6489 10.2809 37.1984L21.9312 8.35537C22.7191 6.44049 23.8575 3.26789 24.9017 1.43085C25.059 1.1539 25.7876 1.11719 26.1264 1.09534Z" fill="#FEFEFE"/>
<path d="M46.4806 2.03588C47.3011 2.16899 54.5421 4.88985 55.2896 5.3078C55.6946 6.09927 53.6174 10.4518 53.1867 11.5405L46.7263 27.5276L41.0764 41.4461C40.2971 43.3882 38.6023 48.294 37.3189 50.1411C36.9712 50.6416 33.9215 50.5033 32.9434 50.4967C31.3115 50.4986 24.05 50.622 23.9848 48.2877C24.7417 47.4492 27.188 48.1028 28.0731 46.3624C29.6314 43.2978 30.7403 40.0468 32.047 36.8673L41.8378 12.7657C43.3963 9.01493 44.4862 5.60945 46.4806 2.03588Z" fill="#610FD3"/>
<path d="M11.4516 49.1684C17.8494 48.5323 23.5475 53.213 24.1657 59.6125C24.7841 66.0121 20.0875 71.697 13.6862 72.2975C7.31017 72.8955 1.65254 68.2214 1.03668 61.8472C0.420812 55.4729 5.07904 49.8021 11.4516 49.1684Z" fill="#FEFEFE"/>
<path d="M21.6716 51.5204C22.4644 51.509 24.4526 52.6787 25.3192 52.9197C30.5938 54.3866 34.0607 57.9015 34.3824 63.7413C34.5756 66.9445 33.4738 70.0911 31.3244 72.4741C29.0219 75.0405 26.1517 76.1499 22.7808 76.3242C19.9442 76.23 19.1516 75.7589 16.5365 74.7431C15.3406 74.2786 14.6522 74.317 13.4231 73.4859C13.4749 73.2606 14.0214 73.2017 14.2516 73.1792C16.4136 73.0454 17.455 72.5062 19.2411 71.3628C24.8572 67.7676 26.5611 60.2289 23.6077 54.3791C23.1623 53.4969 22.2693 52.368 21.6716 51.5204Z" fill="#610FD3"/>
</svg>
